<?xml version="1.0" encoding="UTF-8" standalone="no"?><svg xmlns="http://www.w3.org/2000/svg" xmlns:xlink="http://www.w3.org/1999/xlink" clip-rule="evenodd" stroke-miterlimit="4.00" viewBox="0 0 1802 203"><desc>SVG generated by Keynote</desc><defs></defs><g transform="matrix(1.00, 0.00, -0.00, -1.00, 0.0, 203.0)"><path d="M 1.0 201.3 L 1801.0 201.3 L 1801.0 1.3 L 1.0 1.3 Z M 1.0 201.3 " fill="#FDCA55"></path><g><clipPath id="clip-105"><path d="M -9.5 -21.2 L 1811.5 -21.2 L 1811.5 201.3 L -9.5 201.3 Z M -9.5 -21.2 "></path></clipPath><g clip-path="url(#clip-105)"><text xml:space="preserve" font-family="DINCondensed-Bold" font-weight="bold" font-size="58.0" fill="#222222" transform="matrix(1.00, 0.00, -0.00, -1.00, 308.0, 22.0)">T</text><text xml:space="preserve" font-family="DINCondensed-Bold" font-weight="bold" font-size="58.0" fill="#222222" transform="matrix(1.00, 0.00, -0.00, -1.00, 327.3, 22.0)">H</text><text xml:space="preserve" font-family="DINCondensed-Bold" font-weight="bold" font-size="58.0" fill="#222222" transform="matrix(1.00, 0.00, -0.00, -1.00, 352.0, 22.0)">E</text><text xml:space="preserve" font-family="DINCondensed-Bold" font-weight="bold" font-size="58.0" fill="#222222" transform="matrix(1.00, 0.00, -0.00, -1.00, 373.4, 22.0)"> </text><text xml:space="preserve" font-family="DINCondensed-Bold" font-weight="bold" font-size="58.0" fill="#222222" transform="matrix(1.00, 0.00, -0.00, -1.00, 384.2, 22.0)">6</text><text xml:space="preserve" font-family="DINCondensed-Bold" font-weight="bold" font-size="58.0" fill="#222222" transform="matrix(1.00, 0.00, -0.00, -1.00, 405.8, 22.0)"> </text><text xml:space="preserve" font-family="DINCondensed-Bold" font-weight="bold" font-size="58.0" fill="#222222" transform="matrix(1.00, 0.00, -0.00, -1.00, 416.6, 22.0)">W</text><text xml:space="preserve" font-family="DINCondensed-Bold" font-weight="bold" font-size="58.0" fill="#222222" transform="matrix(1.00, 0.00, -0.00, -1.00, 449.2, 22.0)">A</text><text xml:space="preserve" font-family="DINCondensed-Bold" font-weight="bold" font-size="58.0" fill="#222222" transform="matrix(1.00, 0.00, -0.00, -1.00, 469.6, 22.0)">Y</text><text xml:space="preserve" font-family="DINCondensed-Bold" font-weight="bold" font-size="58.0" fill="#222222" transform="matrix(1.00, 0.00, -0.00, -1.00, 492.1, 22.0)">S</text><text xml:space="preserve" font-family="DINCondensed-Bold" font-weight="bold" font-size="58.0" fill="#222222" transform="matrix(1.00, 0.00, -0.00, -1.00, 515.7, 22.0)"> </text><text xml:space="preserve" font-family="DINCondensed-Bold" font-weight="bold" font-size="58.0" fill="#222222" transform="matrix(1.00, 0.00, -0.00, -1.00, 526.5, 22.0)">T</text><text xml:space="preserve" font-family="DINCondensed-Bold" font-weight="bold" font-size="58.0" fill="#222222" transform="matrix(1.00, 0.00, -0.00, -1.00, 545.0, 22.0)">O</text><text xml:space="preserve" font-family="DINCondensed-Bold" font-weight="bold" font-size="58.0" fill="#222222" transform="matrix(1.00, 0.00, -0.00, -1.00, 569.8, 22.0)"> </text><text xml:space="preserve" font-family="DINCondensed-Bold" font-weight="bold" font-size="58.0" fill="#222222" transform="matrix(1.00, 0.00, -0.00, -1.00, 580.5, 22.0)">T</text><text xml:space="preserve" font-family="DINCondensed-Bold" font-weight="bold" font-size="58.0" fill="#222222" transform="matrix(1.00, 0.00, -0.00, -1.00, 599.8, 22.0)">R</text><text xml:space="preserve" font-family="DINCondensed-Bold" font-weight="bold" font-size="58.0" fill="#222222" transform="matrix(1.00, 0.00, -0.00, -1.00, 624.5, 22.0)">A</text><text xml:space="preserve" font-family="DINCondensed-Bold" font-weight="bold" font-size="58.0" fill="#222222" transform="matrix(1.00, 0.00, -0.00, -1.00, 648.1, 22.0)">I</text><text xml:space="preserve" font-family="DINCondensed-Bold" font-weight="bold" font-size="58.0" fill="#222222" transform="matrix(1.00, 0.00, -0.00, -1.00, 659.9, 22.0)">N</text><text xml:space="preserve" font-family="DINCondensed-Bold" font-weight="bold" font-size="58.0" fill="#222222" transform="matrix(1.00, 0.00, -0.00, -1.00, 685.7, 22.0)"> </text><text xml:space="preserve" font-family="DINCondensed-Bold" font-weight="bold" font-size="58.0" fill="#222222" transform="matrix(1.00, 0.00, -0.00, -1.00, 696.5, 22.0)">T</text><text xml:space="preserve" font-family="DINCondensed-Bold" font-weight="bold" font-size="58.0" fill="#222222" transform="matrix(1.00, 0.00, -0.00, -1.00, 715.7, 22.0)">H</text><text xml:space="preserve" font-family="DINCondensed-Bold" font-weight="bold" font-size="58.0" fill="#222222" transform="matrix(1.00, 0.00, -0.00, -1.00, 740.4, 22.0)">E</text><text xml:space="preserve" font-family="DINCondensed-Bold" font-weight="bold" font-size="58.0" fill="#222222" transform="matrix(1.00, 0.00, -0.00, -1.00, 761.9, 22.0)"> </text><text xml:space="preserve" font-family="DINCondensed-Bold" font-weight="bold" font-size="58.0" fill="#222222" transform="matrix(1.00, 0.00, -0.00, -1.00, 772.7, 22.0)">H</text><text xml:space="preserve" font-family="DINCondensed-Bold" font-weight="bold" font-size="58.0" fill="#222222" transform="matrix(1.00, 0.00, -0.00, -1.00, 797.4, 22.0)">U</text><text xml:space="preserve" font-family="DINCondensed-Bold" font-weight="bold" font-size="58.0" fill="#222222" transform="matrix(1.00, 0.00, -0.00, -1.00, 822.1, 22.0)">M</text><text xml:space="preserve" font-family="DINCondensed-Bold" font-weight="bold" font-size="58.0" fill="#222222" transform="matrix(1.00, 0.00, -0.00, -1.00, 854.4, 22.0)">A</text><text xml:space="preserve" font-family="DINCondensed-Bold" font-weight="bold" font-size="58.0" fill="#222222" transform="matrix(1.00, 0.00, -0.00, -1.00, 878.0, 22.0)">N</text><text xml:space="preserve" font-family="DINCondensed-Bold" font-weight="bold" font-size="58.0" fill="#222222" transform="matrix(1.00, 0.00, -0.00, -1.00, 903.7, 22.0)"> </text><text xml:space="preserve" font-family="DINCondensed-Bold" font-weight="bold" font-size="58.0" fill="#222222" transform="matrix(1.00, 0.00, -0.00, -1.00, 914.5, 22.0)">B</text><text xml:space="preserve" font-family="DINCondensed-Bold" font-weight="bold" font-size="58.0" fill="#222222" transform="matrix(1.00, 0.00, -0.00, -1.00, 939.2, 22.0)">R</text><text xml:space="preserve" font-family="DINCondensed-Bold" font-weight="bold" font-size="58.0" fill="#222222" transform="matrix(1.00, 0.00, -0.00, -1.00, 963.9, 22.0)">A</text><text xml:space="preserve" font-family="DINCondensed-Bold" font-weight="bold" font-size="58.0" fill="#222222" transform="matrix(1.00, 0.00, -0.00, -1.00, 987.5, 22.0)">I</text><text xml:space="preserve" font-family="DINCondensed-Bold" font-weight="bold" font-size="58.0" fill="#222222" transform="matrix(1.00, 0.00, -0.00, -1.00, 999.4, 22.0)">N</text><text xml:space="preserve" font-family="DINCondensed-Bold" font-weight="bold" font-size="58.0" fill="#222222" transform="matrix(1.00, 0.00, -0.00, -1.00, 1025.1, 22.0)"> </text><text xml:space="preserve" font-family="DINCondensed-Bold" font-weight="bold" font-size="58.0" fill="#222222" transform="matrix(1.00, 0.00, -0.00, -1.00, 1035.9, 22.0)">T</text><text xml:space="preserve" font-family="DINCondensed-Bold" font-weight="bold" font-size="58.0" fill="#222222" transform="matrix(1.00, 0.00, -0.00, -1.00, 1054.5, 22.0)">O</text><text xml:space="preserve" font-family="DINCondensed-Bold" font-weight="bold" font-size="58.0" fill="#222222" transform="matrix(1.00, 0.00, -0.00, -1.00, 1079.2, 22.0)"> </text><text xml:space="preserve" font-family="DINCondensed-Bold" font-weight="bold" font-size="58.0" fill="#222222" transform="matrix(1.00, 0.00, -0.00, -1.00, 1090.0, 22.0)">G</text><text xml:space="preserve" font-family="DINCondensed-Bold" font-weight="bold" font-size="58.0" fill="#222222" transform="matrix(1.00, 0.00, -0.00, -1.00, 1114.7, 22.0)">A</text><text xml:space="preserve" font-family="DINCondensed-Bold" font-weight="bold" font-size="58.0" fill="#222222" transform="matrix(1.00, 0.00, -0.00, -1.00, 1138.3, 22.0)">I</text><text xml:space="preserve" font-family="DINCondensed-Bold" font-weight="bold" font-size="58.0" fill="#222222" transform="matrix(1.00, 0.00, -0.00, -1.00, 1150.1, 22.0)">N</text><text xml:space="preserve" font-family="DINCondensed-Bold" font-weight="bold" font-size="58.0" fill="#222222" transform="matrix(1.00, 0.00, -0.00, -1.00, 1175.9, 22.0)"> </text><text xml:space="preserve" font-family="DINCondensed-Bold" font-weight="bold" font-size="58.0" fill="#222222" transform="matrix(1.00, 0.00, -0.00, -1.00, 1186.6, 22.0)">C</text><text xml:space="preserve" font-family="DINCondensed-Bold" font-weight="bold" font-size="58.0" fill="#222222" transform="matrix(1.00, 0.00, -0.00, -1.00, 1210.2, 22.0)">O</text><text xml:space="preserve" font-family="DINCondensed-Bold" font-weight="bold" font-size="58.0" fill="#222222" transform="matrix(1.00, 0.00, -0.00, -1.00, 1235.0, 22.0)">M</text><text xml:space="preserve" font-family="DINCondensed-Bold" font-weight="bold" font-size="58.0" fill="#222222" transform="matrix(1.00, 0.00, -0.00, -1.00, 1267.2, 22.0)">P</text><text xml:space="preserve" font-family="DINCondensed-Bold" font-weight="bold" font-size="58.0" fill="#222222" transform="matrix(1.00, 0.00, -0.00, -1.00, 1290.8, 22.0)">R</text><text xml:space="preserve" font-family="DINCondensed-Bold" font-weight="bold" font-size="58.0" fill="#222222" transform="matrix(1.00, 0.00, -0.00, -1.00, 1315.5, 22.0)">E</text><text xml:space="preserve" font-family="DINCondensed-Bold" font-weight="bold" font-size="58.0" fill="#222222" transform="matrix(1.00, 0.00, -0.00, -1.00, 1337.0, 22.0)">H</text><text xml:space="preserve" font-family="DINCondensed-Bold" font-weight="bold" font-size="58.0" fill="#222222" transform="matrix(1.00, 0.00, -0.00, -1.00, 1361.7, 22.0)">E</text><text xml:space="preserve" font-family="DINCondensed-Bold" font-weight="bold" font-size="58.0" fill="#222222" transform="matrix(1.00, 0.00, -0.00, -1.00, 1383.1, 22.0)">N</text><text xml:space="preserve" font-family="DINCondensed-Bold" font-weight="bold" font-size="58.0" fill="#222222" transform="matrix(1.00, 0.00, -0.00, -1.00, 1408.9, 22.0)">S</text><text xml:space="preserve" font-family="DINCondensed-Bold" font-weight="bold" font-size="58.0" fill="#222222" transform="matrix(1.00, 0.00, -0.00, -1.00, 1432.4, 22.0)">I</text><text xml:space="preserve" font-family="DINCondensed-Bold" font-weight="bold" font-size="58.0" fill="#222222" transform="matrix(1.00, 0.00, -0.00, -1.00, 1444.3, 22.0)">O</text><text xml:space="preserve" font-family="DINCondensed-Bold" font-weight="bold" font-size="58.0" fill="#222222" transform="matrix(1.00, 0.00, -0.00, -1.00, 1469.0, 22.0)">N</text></g></g></g></svg>