<?xml version="1.0" encoding="UTF-8" standalone="no"?><svg xmlns="http://www.w3.org/2000/svg" xmlns:xlink="http://www.w3.org/1999/xlink" clip-rule="evenodd" stroke-miterlimit="4.00" viewBox="0 0 849 60"><desc>SVG generated by Keynote</desc><defs></defs><g transform="matrix(1.00, 0.00, -0.00, -1.00, 0.0, 60.0)"><text xml:space="preserve" font-family="DINAlternate-Bold" font-weight="bold" font-size="79.0" fill="#A6AAA9" transform="matrix(1.00, 0.00, -0.00, -1.00, -4.0, 2.0)">M</text><text xml:space="preserve" font-family="DINAlternate-Bold" font-weight="bold" font-size="79.0" fill="#A6AAA9" transform="matrix(1.00, 0.00, -0.00, -1.00, 55.9, 2.0)">U</text><text xml:space="preserve" font-family="DINAlternate-Bold" font-weight="bold" font-size="79.0" fill="#A6AAA9" transform="matrix(1.00, 0.00, -0.00, -1.00, 105.6, 2.0)">S</text><text xml:space="preserve" font-family="DINAlternate-Bold" font-weight="bold" font-size="79.0" fill="#A6AAA9" transform="matrix(1.00, 0.00, -0.00, -1.00, 150.9, 2.0)">I</text><text xml:space="preserve" font-family="DINAlternate-Bold" font-weight="bold" font-size="79.0" fill="#A6AAA9" transform="matrix(1.00, 0.00, -0.00, -1.00, 171.3, 2.0)">C</text><text xml:space="preserve" font-family="DINAlternate-Bold" font-weight="bold" font-size="79.0" fill="#A6AAA9" transform="matrix(1.00, 0.00, -0.00, -1.00, 215.2, 2.0)"> </text><text xml:space="preserve" font-family="DINAlternate-Bold" font-weight="bold" font-size="79.0" fill="#A6AAA9" transform="matrix(1.00, 0.00, -0.00, -1.00, 234.1, 2.0)">C</text><text xml:space="preserve" font-family="DINAlternate-Bold" font-weight="bold" font-size="79.0" fill="#A6AAA9" transform="matrix(1.00, 0.00, -0.00, -1.00, 278.1, 2.0)">I</text><text xml:space="preserve" font-family="DINAlternate-Bold" font-weight="bold" font-size="79.0" fill="#A6AAA9" transform="matrix(1.00, 0.00, -0.00, -1.00, 298.4, 2.0)">T</text><text xml:space="preserve" font-family="DINAlternate-Bold" font-weight="bold" font-size="79.0" fill="#A6AAA9" transform="matrix(1.00, 0.00, -0.00, -1.00, 337.9, 2.0)">Y</text><text xml:space="preserve" font-family="DINAlternate-Bold" font-weight="bold" font-size="79.0" fill="#A6AAA9" transform="matrix(1.00, 0.00, -0.00, -1.00, 377.4, 2.0)"> </text><text xml:space="preserve" font-family="DINAlternate-Bold" font-weight="bold" font-size="79.0" fill="#A6AAA9" transform="matrix(1.00, 0.00, -0.00, -1.00, 396.3, 2.0)">C</text><text xml:space="preserve" font-family="DINAlternate-Bold" font-weight="bold" font-size="79.0" fill="#A6AAA9" transform="matrix(1.00, 0.00, -0.00, -1.00, 440.3, 2.0)">O</text><text xml:space="preserve" font-family="DINAlternate-Bold" font-weight="bold" font-size="79.0" fill="#A6AAA9" transform="matrix(1.00, 0.00, -0.00, -1.00, 488.5, 2.0)">D</text><text xml:space="preserve" font-family="DINAlternate-Bold" font-weight="bold" font-size="79.0" fill="#A6AAA9" transform="matrix(1.00, 0.00, -0.00, -1.00, 538.2, 2.0)">E</text><text xml:space="preserve" font-family="DINAlternate-Bold" font-weight="bold" font-size="79.0" fill="#A6AAA9" transform="matrix(1.00, 0.00, -0.00, -1.00, 582.2, 2.0)"> </text><text xml:space="preserve" font-family="DINAlternate-Bold" font-weight="bold" font-size="79.0" fill="#A6AAA9" transform="matrix(1.00, 0.00, -0.00, -1.00, 601.1, 2.0)">—</text><text xml:space="preserve" font-family="DINAlternate-Bold" font-weight="bold" font-size="79.0" fill="#A6AAA9" transform="matrix(1.00, 0.00, -0.00, -1.00, 680.1, 2.0)"> </text><text xml:space="preserve" font-family="DINAlternate-Bold" font-weight="bold" font-size="79.0" fill="#A6AAA9" transform="matrix(1.00, 0.00, -0.00, -1.00, 699.0, 2.0)">2</text><text xml:space="preserve" font-family="DINAlternate-Bold" font-weight="bold" font-size="79.0" fill="#A6AAA9" transform="matrix(1.00, 0.00, -0.00, -1.00, 736.9, 2.0)">0</text><text xml:space="preserve" font-family="DINAlternate-Bold" font-weight="bold" font-size="79.0" fill="#A6AAA9" transform="matrix(1.00, 0.00, -0.00, -1.00, 774.8, 2.0)">1</text><text xml:space="preserve" font-family="DINAlternate-Bold" font-weight="bold" font-size="79.0" fill="#A6AAA9" transform="matrix(1.00, 0.00, -0.00, -1.00, 812.8, 2.0)">6</text></g></svg>