<?xml version="1.0" encoding="UTF-8" standalone="no"?><svg xmlns="http://www.w3.org/2000/svg" xmlns:xlink="http://www.w3.org/1999/xlink" clip-rule="evenodd" stroke-miterlimit="4.00" viewBox="0 0 759 72"><desc>SVG generated by Keynote</desc><defs></defs><g transform="matrix(1.00, 0.00, -0.00, -1.00, 0.0, 72.0)"><text xml:space="preserve" font-family="AmericanTypewriter-Bold" font-weight="bold" font-size="92.0" fill="#4D5A87" transform="matrix(1.00, 0.00, -0.00, -1.00, -1.0, 3.0)">@</text><text xml:space="preserve" font-family="AmericanTypewriter-Bold" font-weight="bold" font-size="92.0" fill="#4D5A87" transform="matrix(1.00, 0.00, -0.00, -1.00, 66.4, 3.0)">n</text><text xml:space="preserve" font-family="AmericanTypewriter-Bold" font-weight="bold" font-size="92.0" fill="#4D5A87" transform="matrix(1.00, 0.00, -0.00, -1.00, 128.4, 3.0)">a</text><text xml:space="preserve" font-family="AmericanTypewriter-Bold" font-weight="bold" font-size="92.0" fill="#4D5A87" transform="matrix(1.00, 0.00, -0.00, -1.00, 182.1, 3.0)">s</text><text xml:space="preserve" font-family="AmericanTypewriter-Bold" font-weight="bold" font-size="92.0" fill="#4D5A87" transform="matrix(1.00, 0.00, -0.00, -1.00, 229.0, 3.0)">h</text><text xml:space="preserve" font-family="AmericanTypewriter-Bold" font-weight="bold" font-size="92.0" fill="#4D5A87" transform="matrix(1.00, 0.00, -0.00, -1.00, 289.3, 3.0)">v</text><text xml:space="preserve" font-family="AmericanTypewriter-Bold" font-weight="bold" font-size="92.0" fill="#4D5A87" transform="matrix(1.00, 0.00, -0.00, -1.00, 349.5, 3.0)">i</text><text xml:space="preserve" font-family="AmericanTypewriter-Bold" font-weight="bold" font-size="92.0" fill="#4D5A87" transform="matrix(1.00, 0.00, -0.00, -1.00, 383.0, 3.0)">l</text><text xml:space="preserve" font-family="AmericanTypewriter-Bold" font-weight="bold" font-size="92.0" fill="#4D5A87" transform="matrix(1.00, 0.00, -0.00, -1.00, 416.5, 3.0)">l</text><text xml:space="preserve" font-family="AmericanTypewriter-Bold" font-weight="bold" font-size="92.0" fill="#4D5A87" transform="matrix(1.00, 0.00, -0.00, -1.00, 450.0, 3.0)">e</text><text xml:space="preserve" font-family="AmericanTypewriter-Bold" font-weight="bold" font-size="92.0" fill="#4D5A87" transform="matrix(1.00, 0.00, -0.00, -1.00, 500.2, 3.0)">c</text><text xml:space="preserve" font-family="AmericanTypewriter-Bold" font-weight="bold" font-size="92.0" fill="#4D5A87" transform="matrix(1.00, 0.00, -0.00, -1.00, 548.8, 3.0)">o</text><text xml:space="preserve" font-family="AmericanTypewriter-Bold" font-weight="bold" font-size="92.0" fill="#4D5A87" transform="matrix(1.00, 0.00, -0.00, -1.00, 600.7, 3.0)">d</text><text xml:space="preserve" font-family="AmericanTypewriter-Bold" font-weight="bold" font-size="92.0" fill="#4D5A87" transform="matrix(1.00, 0.00, -0.00, -1.00, 659.3, 3.0)">e</text><text xml:space="preserve" font-family="AmericanTypewriter-Bold" font-weight="bold" font-size="92.0" fill="#4D5A87" transform="matrix(1.00, 0.00, -0.00, -1.00, 709.5, 3.0)">r</text></g></svg>