<?xml version="1.0" encoding="UTF-8" standalone="no"?><svg xmlns="http://www.w3.org/2000/svg" xmlns:xlink="http://www.w3.org/1999/xlink" clip-rule="evenodd" stroke-miterlimit="4.00" viewBox="0 0 1920 1080"><desc>SVG generated by Keynote</desc><defs></defs><g transform="matrix(1.00, 0.00, -0.00, -1.00, 0.0, 1080.0)"><path d="M 0.0 1080.0 L 1920.0 1080.0 L 1920.0 0.0 L 0.0 0.0 Z M 0.0 1080.0 " fill="#FFFFFF"></path><path d="M 0.0 0.0 L 1800.0 0.0 " fill="none" stroke="#A6AAA9" stroke-width="4.00" transform="matrix(1.00, 0.00, 0.00, -1.00, 60.0, 978.7)"></path><text xml:space="preserve" font-family="DINCondensed-Bold" font-weight="bold" font-size="290.9" fill="#34A4DA" transform="matrix(1.00, 0.00, -0.00, -1.00, 47.0, 482.0)">G</text><text xml:space="preserve" font-family="DINCondensed-Bold" font-weight="bold" font-size="290.9" fill="#34A4DA" transform="matrix(1.00, 0.00, -0.00, -1.00, 170.9, 482.0)">R</text><text xml:space="preserve" font-family="DINCondensed-Bold" font-weight="bold" font-size="290.9" fill="#34A4DA" transform="matrix(1.00, 0.00, -0.00, -1.00, 294.8, 482.0)">O</text><text xml:space="preserve" font-family="DINCondensed-Bold" font-weight="bold" font-size="290.9" fill="#34A4DA" transform="matrix(1.00, 0.00, -0.00, -1.00, 418.7, 482.0)">U</text><text xml:space="preserve" font-family="DINCondensed-Bold" font-weight="bold" font-size="290.9" fill="#34A4DA" transform="matrix(1.00, 0.00, -0.00, -1.00, 542.7, 482.0)">P</text><text xml:space="preserve" font-family="DINCondensed-Bold" font-weight="bold" font-size="290.9" fill="#34A4DA" transform="matrix(1.00, 0.00, -0.00, -1.00, 661.0, 482.0)">T</text><text xml:space="preserve" font-family="DINCondensed-Bold" font-weight="bold" font-size="290.9" fill="#34A4DA" transform="matrix(1.00, 0.00, -0.00, -1.00, 757.6, 482.0)">H</text><text xml:space="preserve" font-family="DINCondensed-Bold" font-weight="bold" font-size="290.9" fill="#34A4DA" transform="matrix(1.00, 0.00, -0.00, -1.00, 881.5, 482.0)">I</text><text xml:space="preserve" font-family="DINCondensed-Bold" font-weight="bold" font-size="290.9" fill="#34A4DA" transform="matrix(1.00, 0.00, -0.00, -1.00, 940.9, 482.0)">N</text><text xml:space="preserve" font-family="DINCondensed-Bold" font-weight="bold" font-size="290.9" fill="#34A4DA" transform="matrix(1.00, 0.00, -0.00, -1.00, 1070.0, 482.0)">K</text><path d="M 60.0 422.3 L 1860.0 422.3 L 1860.0 222.3 L 60.0 222.3 Z M 60.0 422.3 " fill="#FDCA55"></path><text xml:space="preserve" font-family="DINCondensed-Bold" font-weight="bold" font-size="58.0" fill="#222222" transform="matrix(1.00, 0.00, -0.00, -1.00, 246.0, 243.0)">U</text><text xml:space="preserve" font-family="DINCondensed-Bold" font-weight="bold" font-size="58.0" fill="#222222" transform="matrix(1.00, 0.00, -0.00, -1.00, 270.7, 243.0)">S</text><text xml:space="preserve" font-family="DINCondensed-Bold" font-weight="bold" font-size="58.0" fill="#222222" transform="matrix(1.00, 0.00, -0.00, -1.00, 294.3, 243.0)">I</text><text xml:space="preserve" font-family="DINCondensed-Bold" font-weight="bold" font-size="58.0" fill="#222222" transform="matrix(1.00, 0.00, -0.00, -1.00, 306.1, 243.0)">N</text><text xml:space="preserve" font-family="DINCondensed-Bold" font-weight="bold" font-size="58.0" fill="#222222" transform="matrix(1.00, 0.00, -0.00, -1.00, 331.8, 243.0)">G</text><text xml:space="preserve" font-family="DINCondensed-Bold" font-weight="bold" font-size="58.0" fill="#222222" transform="matrix(1.00, 0.00, -0.00, -1.00, 367.3, 243.0)">T</text><text xml:space="preserve" font-family="DINCondensed-Bold" font-weight="bold" font-size="58.0" fill="#222222" transform="matrix(1.00, 0.00, -0.00, -1.00, 386.6, 243.0)">H</text><text xml:space="preserve" font-family="DINCondensed-Bold" font-weight="bold" font-size="58.0" fill="#222222" transform="matrix(1.00, 0.00, -0.00, -1.00, 411.3, 243.0)">E</text><text xml:space="preserve" font-family="DINCondensed-Bold" font-weight="bold" font-size="58.0" fill="#222222" transform="matrix(1.00, 0.00, -0.00, -1.00, 443.5, 243.0)">P</text><text xml:space="preserve" font-family="DINCondensed-Bold" font-weight="bold" font-size="58.0" fill="#222222" transform="matrix(1.00, 0.00, -0.00, -1.00, 467.2, 243.0)">O</text><text xml:space="preserve" font-family="DINCondensed-Bold" font-weight="bold" font-size="58.0" fill="#222222" transform="matrix(1.00, 0.00, -0.00, -1.00, 491.2, 243.0)">W</text><text xml:space="preserve" font-family="DINCondensed-Bold" font-weight="bold" font-size="58.0" fill="#222222" transform="matrix(1.00, 0.00, -0.00, -1.00, 525.6, 243.0)">E</text><text xml:space="preserve" font-family="DINCondensed-Bold" font-weight="bold" font-size="58.0" fill="#222222" transform="matrix(1.00, 0.00, -0.00, -1.00, 547.0, 243.0)">R</text><text xml:space="preserve" font-family="DINCondensed-Bold" font-weight="bold" font-size="58.0" fill="#222222" transform="matrix(1.00, 0.00, -0.00, -1.00, 582.5, 243.0)">O</text><text xml:space="preserve" font-family="DINCondensed-Bold" font-weight="bold" font-size="58.0" fill="#222222" transform="matrix(1.00, 0.00, -0.00, -1.00, 607.2, 243.0)">F</text><text xml:space="preserve" font-family="DINCondensed-Bold" font-weight="bold" font-size="58.0" fill="#222222" transform="matrix(1.00, 0.00, -0.00, -1.00, 639.5, 243.0)">C</text><text xml:space="preserve" font-family="DINCondensed-Bold" font-weight="bold" font-size="58.0" fill="#222222" transform="matrix(1.00, 0.00, -0.00, -1.00, 663.1, 243.0)">O</text><text xml:space="preserve" font-family="DINCondensed-Bold" font-weight="bold" font-size="58.0" fill="#222222" transform="matrix(1.00, 0.00, -0.00, -1.00, 687.8, 243.0)">O</text><text xml:space="preserve" font-family="DINCondensed-Bold" font-weight="bold" font-size="58.0" fill="#222222" transform="matrix(1.00, 0.00, -0.00, -1.00, 712.5, 243.0)">P</text><text xml:space="preserve" font-family="DINCondensed-Bold" font-weight="bold" font-size="58.0" fill="#222222" transform="matrix(1.00, 0.00, -0.00, -1.00, 736.1, 243.0)">E</text><text xml:space="preserve" font-family="DINCondensed-Bold" font-weight="bold" font-size="58.0" fill="#222222" transform="matrix(1.00, 0.00, -0.00, -1.00, 757.6, 243.0)">R</text><text xml:space="preserve" font-family="DINCondensed-Bold" font-weight="bold" font-size="58.0" fill="#222222" transform="matrix(1.00, 0.00, -0.00, -1.00, 782.3, 243.0)">A</text><text xml:space="preserve" font-family="DINCondensed-Bold" font-weight="bold" font-size="58.0" fill="#222222" transform="matrix(1.00, 0.00, -0.00, -1.00, 802.7, 243.0)">T</text><text xml:space="preserve" font-family="DINCondensed-Bold" font-weight="bold" font-size="58.0" fill="#222222" transform="matrix(1.00, 0.00, -0.00, -1.00, 821.9, 243.0)">I</text><text xml:space="preserve" font-family="DINCondensed-Bold" font-weight="bold" font-size="58.0" fill="#222222" transform="matrix(1.00, 0.00, -0.00, -1.00, 833.8, 243.0)">V</text><text xml:space="preserve" font-family="DINCondensed-Bold" font-weight="bold" font-size="58.0" fill="#222222" transform="matrix(1.00, 0.00, -0.00, -1.00, 857.4, 243.0)">E</text><text xml:space="preserve" font-family="DINCondensed-Bold" font-weight="bold" font-size="58.0" fill="#222222" transform="matrix(1.00, 0.00, -0.00, -1.00, 889.6, 243.0)">L</text><text xml:space="preserve" font-family="DINCondensed-Bold" font-weight="bold" font-size="58.0" fill="#222222" transform="matrix(1.00, 0.00, -0.00, -1.00, 911.1, 243.0)">E</text><text xml:space="preserve" font-family="DINCondensed-Bold" font-weight="bold" font-size="58.0" fill="#222222" transform="matrix(1.00, 0.00, -0.00, -1.00, 932.5, 243.0)">A</text><text xml:space="preserve" font-family="DINCondensed-Bold" font-weight="bold" font-size="58.0" fill="#222222" transform="matrix(1.00, 0.00, -0.00, -1.00, 956.2, 243.0)">R</text><text xml:space="preserve" font-family="DINCondensed-Bold" font-weight="bold" font-size="58.0" fill="#222222" transform="matrix(1.00, 0.00, -0.00, -1.00, 980.9, 243.0)">N</text><text xml:space="preserve" font-family="DINCondensed-Bold" font-weight="bold" font-size="58.0" fill="#222222" transform="matrix(1.00, 0.00, -0.00, -1.00, 1006.6, 243.0)">I</text><text xml:space="preserve" font-family="DINCondensed-Bold" font-weight="bold" font-size="58.0" fill="#222222" transform="matrix(1.00, 0.00, -0.00, -1.00, 1018.4, 243.0)">N</text><text xml:space="preserve" font-family="DINCondensed-Bold" font-weight="bold" font-size="58.0" fill="#222222" transform="matrix(1.00, 0.00, -0.00, -1.00, 1044.2, 243.0)">G</text><text xml:space="preserve" font-family="DINCondensed-Bold" font-weight="bold" font-size="58.0" fill="#222222" transform="matrix(1.00, 0.00, -0.00, -1.00, 1079.7, 243.0)">T</text><text xml:space="preserve" font-family="DINCondensed-Bold" font-weight="bold" font-size="58.0" fill="#222222" transform="matrix(1.00, 0.00, -0.00, -1.00, 1098.3, 243.0)">O</text><text xml:space="preserve" font-family="DINCondensed-Bold" font-weight="bold" font-size="58.0" fill="#222222" transform="matrix(1.00, 0.00, -0.00, -1.00, 1133.7, 243.0)">A</text><text xml:space="preserve" font-family="DINCondensed-Bold" font-weight="bold" font-size="58.0" fill="#222222" transform="matrix(1.00, 0.00, -0.00, -1.00, 1157.4, 243.0)">C</text><text xml:space="preserve" font-family="DINCondensed-Bold" font-weight="bold" font-size="58.0" fill="#222222" transform="matrix(1.00, 0.00, -0.00, -1.00, 1181.0, 243.0)">C</text><text xml:space="preserve" font-family="DINCondensed-Bold" font-weight="bold" font-size="58.0" fill="#222222" transform="matrix(1.00, 0.00, -0.00, -1.00, 1204.6, 243.0)">E</text><text xml:space="preserve" font-family="DINCondensed-Bold" font-weight="bold" font-size="58.0" fill="#222222" transform="matrix(1.00, 0.00, -0.00, -1.00, 1226.0, 243.0)">L</text><text xml:space="preserve" font-family="DINCondensed-Bold" font-weight="bold" font-size="58.0" fill="#222222" transform="matrix(1.00, 0.00, -0.00, -1.00, 1247.5, 243.0)">E</text><text xml:space="preserve" font-family="DINCondensed-Bold" font-weight="bold" font-size="58.0" fill="#222222" transform="matrix(1.00, 0.00, -0.00, -1.00, 1268.9, 243.0)">R</text><text xml:space="preserve" font-family="DINCondensed-Bold" font-weight="bold" font-size="58.0" fill="#222222" transform="matrix(1.00, 0.00, -0.00, -1.00, 1293.7, 243.0)">A</text><text xml:space="preserve" font-family="DINCondensed-Bold" font-weight="bold" font-size="58.0" fill="#222222" transform="matrix(1.00, 0.00, -0.00, -1.00, 1314.1, 243.0)">T</text><text xml:space="preserve" font-family="DINCondensed-Bold" font-weight="bold" font-size="58.0" fill="#222222" transform="matrix(1.00, 0.00, -0.00, -1.00, 1333.3, 243.0)">E</text><text xml:space="preserve" font-family="DINCondensed-Bold" font-weight="bold" font-size="58.0" fill="#222222" transform="matrix(1.00, 0.00, -0.00, -1.00, 1365.6, 243.0)">C</text><text xml:space="preserve" font-family="DINCondensed-Bold" font-weight="bold" font-size="58.0" fill="#222222" transform="matrix(1.00, 0.00, -0.00, -1.00, 1389.2, 243.0)">O</text><text xml:space="preserve" font-family="DINCondensed-Bold" font-weight="bold" font-size="58.0" fill="#222222" transform="matrix(1.00, 0.00, -0.00, -1.00, 1413.9, 243.0)">M</text><text xml:space="preserve" font-family="DINCondensed-Bold" font-weight="bold" font-size="58.0" fill="#222222" transform="matrix(1.00, 0.00, -0.00, -1.00, 1446.1, 243.0)">P</text><text xml:space="preserve" font-family="DINCondensed-Bold" font-weight="bold" font-size="58.0" fill="#222222" transform="matrix(1.00, 0.00, -0.00, -1.00, 1469.7, 243.0)">R</text><text xml:space="preserve" font-family="DINCondensed-Bold" font-weight="bold" font-size="58.0" fill="#222222" transform="matrix(1.00, 0.00, -0.00, -1.00, 1494.5, 243.0)">E</text><text xml:space="preserve" font-family="DINCondensed-Bold" font-weight="bold" font-size="58.0" fill="#222222" transform="matrix(1.00, 0.00, -0.00, -1.00, 1515.9, 243.0)">H</text><text xml:space="preserve" font-family="DINCondensed-Bold" font-weight="bold" font-size="58.0" fill="#222222" transform="matrix(1.00, 0.00, -0.00, -1.00, 1540.6, 243.0)">E</text><text xml:space="preserve" font-family="DINCondensed-Bold" font-weight="bold" font-size="58.0" fill="#222222" transform="matrix(1.00, 0.00, -0.00, -1.00, 1562.1, 243.0)">N</text><text xml:space="preserve" font-family="DINCondensed-Bold" font-weight="bold" font-size="58.0" fill="#222222" transform="matrix(1.00, 0.00, -0.00, -1.00, 1587.8, 243.0)">S</text><text xml:space="preserve" font-family="DINCondensed-Bold" font-weight="bold" font-size="58.0" fill="#222222" transform="matrix(1.00, 0.00, -0.00, -1.00, 1611.4, 243.0)">I</text><text xml:space="preserve" font-family="DINCondensed-Bold" font-weight="bold" font-size="58.0" fill="#222222" transform="matrix(1.00, 0.00, -0.00, -1.00, 1623.2, 243.0)">O</text><text xml:space="preserve" font-family="DINCondensed-Bold" font-weight="bold" font-size="58.0" fill="#222222" transform="matrix(1.00, 0.00, -0.00, -1.00, 1647.9, 243.0)">N</text><text xml:space="preserve" font-family="DINAlternate-Bold" font-weight="bold" font-size="36.0" fill="#838686" transform="matrix(1.00, 0.00, -0.00, -1.00, 64.0, 992.0)">M</text><text xml:space="preserve" font-family="DINAlternate-Bold" font-weight="bold" font-size="36.0" fill="#838686" transform="matrix(1.00, 0.00, -0.00, -1.00, 93.1, 992.0)">A</text><text xml:space="preserve" font-family="DINAlternate-Bold" font-weight="bold" font-size="36.0" fill="#838686" transform="matrix(1.00, 0.00, -0.00, -1.00, 116.8, 992.0)">X</text><text xml:space="preserve" font-family="DINAlternate-Bold" font-weight="bold" font-size="36.0" fill="#838686" transform="matrix(1.00, 0.00, -0.00, -1.00, 137.9, 992.0)">I</text><text xml:space="preserve" font-family="DINAlternate-Bold" font-weight="bold" font-size="36.0" fill="#838686" transform="matrix(1.00, 0.00, -0.00, -1.00, 149.0, 992.0)">M</text><text xml:space="preserve" font-family="DINAlternate-Bold" font-weight="bold" font-size="36.0" fill="#838686" transform="matrix(1.00, 0.00, -0.00, -1.00, 178.1, 992.0)">I</text><text xml:space="preserve" font-family="DINAlternate-Bold" font-weight="bold" font-size="36.0" fill="#838686" transform="matrix(1.00, 0.00, -0.00, -1.00, 189.1, 992.0)">Z</text><text xml:space="preserve" font-family="DINAlternate-Bold" font-weight="bold" font-size="36.0" fill="#838686" transform="matrix(1.00, 0.00, -0.00, -1.00, 209.6, 992.0)">E</text><text xml:space="preserve" font-family="DINAlternate-Bold" font-weight="bold" font-size="36.0" fill="#838686" transform="matrix(1.00, 0.00, -0.00, -1.00, 231.4, 992.0)"> </text><text xml:space="preserve" font-family="DINAlternate-Bold" font-weight="bold" font-size="36.0" fill="#838686" transform="matrix(1.00, 0.00, -0.00, -1.00, 241.9, 992.0)">Y</text><text xml:space="preserve" font-family="DINAlternate-Bold" font-weight="bold" font-size="36.0" fill="#838686" transform="matrix(1.00, 0.00, -0.00, -1.00, 260.7, 992.0)">O</text><text xml:space="preserve" font-family="DINAlternate-Bold" font-weight="bold" font-size="36.0" fill="#838686" transform="matrix(1.00, 0.00, -0.00, -1.00, 284.5, 992.0)">U</text><text xml:space="preserve" font-family="DINAlternate-Bold" font-weight="bold" font-size="36.0" fill="#838686" transform="matrix(1.00, 0.00, -0.00, -1.00, 309.0, 992.0)">R</text><text xml:space="preserve" font-family="DINAlternate-Bold" font-weight="bold" font-size="36.0" fill="#838686" transform="matrix(1.00, 0.00, -0.00, -1.00, 332.7, 992.0)"> </text><text xml:space="preserve" font-family="DINAlternate-Bold" font-weight="bold" font-size="36.0" fill="#838686" transform="matrix(1.00, 0.00, -0.00, -1.00, 343.1, 992.0)">A</text><text xml:space="preserve" font-family="DINAlternate-Bold" font-weight="bold" font-size="36.0" fill="#838686" transform="matrix(1.00, 0.00, -0.00, -1.00, 366.9, 992.0)">B</text><text xml:space="preserve" font-family="DINAlternate-Bold" font-weight="bold" font-size="36.0" fill="#838686" transform="matrix(1.00, 0.00, -0.00, -1.00, 390.6, 992.0)">I</text><text xml:space="preserve" font-family="DINAlternate-Bold" font-weight="bold" font-size="36.0" fill="#838686" transform="matrix(1.00, 0.00, -0.00, -1.00, 401.7, 992.0)">L</text><text xml:space="preserve" font-family="DINAlternate-Bold" font-weight="bold" font-size="36.0" fill="#838686" transform="matrix(1.00, 0.00, -0.00, -1.00, 423.5, 992.0)">I</text><text xml:space="preserve" font-family="DINAlternate-Bold" font-weight="bold" font-size="36.0" fill="#838686" transform="matrix(1.00, 0.00, -0.00, -1.00, 434.6, 992.0)">T</text><text xml:space="preserve" font-family="DINAlternate-Bold" font-weight="bold" font-size="36.0" fill="#838686" transform="matrix(1.00, 0.00, -0.00, -1.00, 454.4, 992.0)">Y</text><text xml:space="preserve" font-family="DINAlternate-Bold" font-weight="bold" font-size="36.0" fill="#838686" transform="matrix(1.00, 0.00, -0.00, -1.00, 474.2, 992.0)"> </text><text xml:space="preserve" font-family="DINAlternate-Bold" font-weight="bold" font-size="36.0" fill="#838686" transform="matrix(1.00, 0.00, -0.00, -1.00, 484.6, 992.0)">T</text><text xml:space="preserve" font-family="DINAlternate-Bold" font-weight="bold" font-size="36.0" fill="#838686" transform="matrix(1.00, 0.00, -0.00, -1.00, 503.7, 992.0)">O</text><text xml:space="preserve" font-family="DINAlternate-Bold" font-weight="bold" font-size="36.0" fill="#838686" transform="matrix(1.00, 0.00, -0.00, -1.00, 527.5, 992.0)"> </text><text xml:space="preserve" font-family="DINAlternate-Bold" font-weight="bold" font-size="36.0" fill="#838686" transform="matrix(1.00, 0.00, -0.00, -1.00, 537.9, 992.0)">L</text><text xml:space="preserve" font-family="DINAlternate-Bold" font-weight="bold" font-size="36.0" fill="#838686" transform="matrix(1.00, 0.00, -0.00, -1.00, 559.7, 992.0)">E</text><text xml:space="preserve" font-family="DINAlternate-Bold" font-weight="bold" font-size="36.0" fill="#838686" transform="matrix(1.00, 0.00, -0.00, -1.00, 581.5, 992.0)">A</text><text xml:space="preserve" font-family="DINAlternate-Bold" font-weight="bold" font-size="36.0" fill="#838686" transform="matrix(1.00, 0.00, -0.00, -1.00, 605.3, 992.0)">R</text><text xml:space="preserve" font-family="DINAlternate-Bold" font-weight="bold" font-size="36.0" fill="#838686" transform="matrix(1.00, 0.00, -0.00, -1.00, 629.0, 992.0)">N</text></g></svg>