<?xml version="1.0" encoding="UTF-8" standalone="no"?><svg xmlns="http://www.w3.org/2000/svg" xmlns:xlink="http://www.w3.org/1999/xlink" clip-rule="evenodd" stroke-miterlimit="4.00" viewBox="0 0 1920 1080"><desc>SVG generated by Keynote</desc><defs></defs><g transform="matrix(1.00, 0.00, -0.00, -1.00, 0.0, 1080.0)"><path d="M 0.0 1080.0 L 1920.0 1080.0 L 1920.0 0.0 L 0.0 0.0 Z M 0.0 1080.0 " fill="#FFFFFF"></path><path d="M 0.0 0.0 L 1800.0 0.0 " fill="none" stroke="#A6AAA9" stroke-width="2.00" transform="matrix(1.00, 0.00, 0.00, -1.00, 60.0, 970.0)"></path><text xml:space="preserve" font-family="DINAlternate-Bold" font-weight="bold" font-size="36.0" fill="#838686" transform="matrix(1.00, 0.00, -0.00, -1.00, 64.0, 992.0)">M</text><text xml:space="preserve" font-family="DINAlternate-Bold" font-weight="bold" font-size="36.0" fill="#838686" transform="matrix(1.00, 0.00, -0.00, -1.00, 93.1, 992.0)">A</text><text xml:space="preserve" font-family="DINAlternate-Bold" font-weight="bold" font-size="36.0" fill="#838686" transform="matrix(1.00, 0.00, -0.00, -1.00, 116.8, 992.0)">X</text><text xml:space="preserve" font-family="DINAlternate-Bold" font-weight="bold" font-size="36.0" fill="#838686" transform="matrix(1.00, 0.00, -0.00, -1.00, 137.9, 992.0)">I</text><text xml:space="preserve" font-family="DINAlternate-Bold" font-weight="bold" font-size="36.0" fill="#838686" transform="matrix(1.00, 0.00, -0.00, -1.00, 149.0, 992.0)">M</text><text xml:space="preserve" font-family="DINAlternate-Bold" font-weight="bold" font-size="36.0" fill="#838686" transform="matrix(1.00, 0.00, -0.00, -1.00, 178.1, 992.0)">I</text><text xml:space="preserve" font-family="DINAlternate-Bold" font-weight="bold" font-size="36.0" fill="#838686" transform="matrix(1.00, 0.00, -0.00, -1.00, 189.1, 992.0)">Z</text><text xml:space="preserve" font-family="DINAlternate-Bold" font-weight="bold" font-size="36.0" fill="#838686" transform="matrix(1.00, 0.00, -0.00, -1.00, 209.6, 992.0)">E</text><text xml:space="preserve" font-family="DINAlternate-Bold" font-weight="bold" font-size="36.0" fill="#838686" transform="matrix(1.00, 0.00, -0.00, -1.00, 231.4, 992.0)"> </text><text xml:space="preserve" font-family="DINAlternate-Bold" font-weight="bold" font-size="36.0" fill="#838686" transform="matrix(1.00, 0.00, -0.00, -1.00, 241.9, 992.0)">Y</text><text xml:space="preserve" font-family="DINAlternate-Bold" font-weight="bold" font-size="36.0" fill="#838686" transform="matrix(1.00, 0.00, -0.00, -1.00, 260.7, 992.0)">O</text><text xml:space="preserve" font-family="DINAlternate-Bold" font-weight="bold" font-size="36.0" fill="#838686" transform="matrix(1.00, 0.00, -0.00, -1.00, 284.5, 992.0)">U</text><text xml:space="preserve" font-family="DINAlternate-Bold" font-weight="bold" font-size="36.0" fill="#838686" transform="matrix(1.00, 0.00, -0.00, -1.00, 309.0, 992.0)">R</text><text xml:space="preserve" font-family="DINAlternate-Bold" font-weight="bold" font-size="36.0" fill="#838686" transform="matrix(1.00, 0.00, -0.00, -1.00, 332.7, 992.0)"> </text><text xml:space="preserve" font-family="DINAlternate-Bold" font-weight="bold" font-size="36.0" fill="#838686" transform="matrix(1.00, 0.00, -0.00, -1.00, 343.1, 992.0)">A</text><text xml:space="preserve" font-family="DINAlternate-Bold" font-weight="bold" font-size="36.0" fill="#838686" transform="matrix(1.00, 0.00, -0.00, -1.00, 366.9, 992.0)">B</text><text xml:space="preserve" font-family="DINAlternate-Bold" font-weight="bold" font-size="36.0" fill="#838686" transform="matrix(1.00, 0.00, -0.00, -1.00, 390.6, 992.0)">I</text><text xml:space="preserve" font-family="DINAlternate-Bold" font-weight="bold" font-size="36.0" fill="#838686" transform="matrix(1.00, 0.00, -0.00, -1.00, 401.7, 992.0)">L</text><text xml:space="preserve" font-family="DINAlternate-Bold" font-weight="bold" font-size="36.0" fill="#838686" transform="matrix(1.00, 0.00, -0.00, -1.00, 423.5, 992.0)">I</text><text xml:space="preserve" font-family="DINAlternate-Bold" font-weight="bold" font-size="36.0" fill="#838686" transform="matrix(1.00, 0.00, -0.00, -1.00, 434.6, 992.0)">T</text><text xml:space="preserve" font-family="DINAlternate-Bold" font-weight="bold" font-size="36.0" fill="#838686" transform="matrix(1.00, 0.00, -0.00, -1.00, 454.4, 992.0)">Y</text><text xml:space="preserve" font-family="DINAlternate-Bold" font-weight="bold" font-size="36.0" fill="#838686" transform="matrix(1.00, 0.00, -0.00, -1.00, 474.2, 992.0)"> </text><text xml:space="preserve" font-family="DINAlternate-Bold" font-weight="bold" font-size="36.0" fill="#838686" transform="matrix(1.00, 0.00, -0.00, -1.00, 484.6, 992.0)">T</text><text xml:space="preserve" font-family="DINAlternate-Bold" font-weight="bold" font-size="36.0" fill="#838686" transform="matrix(1.00, 0.00, -0.00, -1.00, 503.7, 992.0)">O</text><text xml:space="preserve" font-family="DINAlternate-Bold" font-weight="bold" font-size="36.0" fill="#838686" transform="matrix(1.00, 0.00, -0.00, -1.00, 527.5, 992.0)"> </text><text xml:space="preserve" font-family="DINAlternate-Bold" font-weight="bold" font-size="36.0" fill="#838686" transform="matrix(1.00, 0.00, -0.00, -1.00, 537.9, 992.0)">L</text><text xml:space="preserve" font-family="DINAlternate-Bold" font-weight="bold" font-size="36.0" fill="#838686" transform="matrix(1.00, 0.00, -0.00, -1.00, 559.7, 992.0)">E</text><text xml:space="preserve" font-family="DINAlternate-Bold" font-weight="bold" font-size="36.0" fill="#838686" transform="matrix(1.00, 0.00, -0.00, -1.00, 581.5, 992.0)">A</text><text xml:space="preserve" font-family="DINAlternate-Bold" font-weight="bold" font-size="36.0" fill="#838686" transform="matrix(1.00, 0.00, -0.00, -1.00, 605.3, 992.0)">R</text><text xml:space="preserve" font-family="DINAlternate-Bold" font-weight="bold" font-size="36.0" fill="#838686" transform="matrix(1.00, 0.00, -0.00, -1.00, 629.0, 992.0)">N</text><g><clipPath id="clip-85"><path d="M 33.7 802.0 L 1886.3 802.0 L 1886.3 906.0 L 33.7 906.0 Z M 33.7 802.0 "></path></clipPath><g clip-path="url(#clip-85)"><text xml:space="preserve" font-family="DINCondensed-Bold" font-weight="bold" font-size="121.2" fill="#34A4DA" transform="matrix(1.00, 0.00, -0.00, -1.00, 64.0, 820.0)">S</text><text xml:space="preserve" font-family="DINCondensed-Bold" font-weight="bold" font-size="121.2" fill="#34A4DA" transform="matrix(1.00, 0.00, -0.00, -1.00, 113.2, 820.0)">C</text><text xml:space="preserve" font-family="DINCondensed-Bold" font-weight="bold" font-size="121.2" fill="#34A4DA" transform="matrix(1.00, 0.00, -0.00, -1.00, 162.5, 820.0)">A</text><text xml:space="preserve" font-family="DINCondensed-Bold" font-weight="bold" font-size="121.2" fill="#34A4DA" transform="matrix(1.00, 0.00, -0.00, -1.00, 211.9, 820.0)">R</text><text xml:space="preserve" font-family="DINCondensed-Bold" font-weight="bold" font-size="121.2" fill="#34A4DA" transform="matrix(1.00, 0.00, -0.00, -1.00, 263.5, 820.0)">E</text><text xml:space="preserve" font-family="DINCondensed-Bold" font-weight="bold" font-size="121.2" fill="#34A4DA" transform="matrix(1.00, 0.00, -0.00, -1.00, 308.3, 820.0)">D</text><text xml:space="preserve" font-family="DINCondensed-Bold" font-weight="bold" font-size="121.2" fill="#34A4DA" transform="matrix(1.00, 0.00, -0.00, -1.00, 360.0, 820.0)"> </text><text xml:space="preserve" font-family="DINCondensed-Bold" font-weight="bold" font-size="121.2" fill="#34A4DA" transform="matrix(1.00, 0.00, -0.00, -1.00, 382.5, 820.0)">(</text><text xml:space="preserve" font-family="DINCondensed-Bold" font-weight="bold" font-size="121.2" fill="#34A4DA" transform="matrix(1.00, 0.00, -0.00, -1.00, 409.4, 820.0)">T</text><text xml:space="preserve" font-family="DINCondensed-Bold" font-weight="bold" font-size="121.2" fill="#34A4DA" transform="matrix(1.00, 0.00, -0.00, -1.00, 449.7, 820.0)">)</text><text xml:space="preserve" font-family="DINCondensed-Bold" font-weight="bold" font-size="121.2" fill="#34A4DA" transform="matrix(1.00, 0.00, -0.00, -1.00, 476.6, 820.0)"> </text><text xml:space="preserve" font-family="DINCondensed-Bold" font-weight="bold" font-size="121.2" fill="#34A4DA" transform="matrix(1.00, 0.00, -0.00, -1.00, 499.1, 820.0)"> </text><text xml:space="preserve" font-family="DINCondensed-Bold" font-weight="bold" font-size="121.2" fill="#34A4DA" transform="matrix(1.00, 0.00, -0.00, -1.00, 521.7, 820.0)"> </text><text xml:space="preserve" font-family="DINCondensed-Bold" font-weight="bold" font-size="121.2" fill="#34A4DA" transform="matrix(1.00, 0.00, -0.00, -1.00, 544.2, 820.0)"> </text><text xml:space="preserve" font-family="DINCondensed-Bold" font-weight="bold" font-size="121.2" fill="#34A4DA" transform="matrix(1.00, 0.00, -0.00, -1.00, 566.7, 820.0)"> </text><text xml:space="preserve" font-family="DINCondensed-Bold" font-weight="bold" font-size="121.2" fill="#34A4DA" transform="matrix(1.00, 0.00, -0.00, -1.00, 589.3, 820.0)"> </text><text xml:space="preserve" font-family="DINCondensed-Bold" font-weight="bold" font-size="121.2" fill="#34A4DA" transform="matrix(1.00, 0.00, -0.00, -1.00, 611.8, 820.0)"> </text><text xml:space="preserve" font-family="DINCondensed-Bold" font-weight="bold" font-size="121.2" fill="#34A4DA" transform="matrix(1.00, 0.00, -0.00, -1.00, 634.4, 820.0)"> </text><text xml:space="preserve" font-family="DINCondensed-Bold" font-weight="bold" font-size="121.2" fill="#34A4DA" transform="matrix(1.00, 0.00, -0.00, -1.00, 656.9, 820.0)"> </text><text xml:space="preserve" font-family="DINCondensed-Bold" font-weight="bold" font-size="121.2" fill="#34A4DA" transform="matrix(1.00, 0.00, -0.00, -1.00, 679.5, 820.0)"> </text><text xml:space="preserve" font-family="DINCondensed-Bold" font-weight="bold" font-size="121.2" fill="#34A4DA" transform="matrix(1.00, 0.00, -0.00, -1.00, 702.0, 820.0)"> </text><text xml:space="preserve" font-family="DINCondensed-Bold" font-weight="bold" font-size="121.2" fill="#34A4DA" transform="matrix(1.00, 0.00, -0.00, -1.00, 724.5, 820.0)"> </text><text xml:space="preserve" font-family="DINCondensed-Bold" font-weight="bold" font-size="121.2" fill="#34A4DA" transform="matrix(1.00, 0.00, -0.00, -1.00, 747.1, 820.0)"> </text><text xml:space="preserve" font-family="DINCondensed-Bold" font-weight="bold" font-size="121.2" fill="#34A4DA" transform="matrix(1.00, 0.00, -0.00, -1.00, 769.6, 820.0)"> </text><text xml:space="preserve" font-family="DINCondensed-Bold" font-weight="bold" font-size="121.2" fill="#34A4DA" transform="matrix(1.00, 0.00, -0.00, -1.00, 792.2, 820.0)"> </text><text xml:space="preserve" font-family="DINCondensed-Bold" font-weight="bold" font-size="121.2" fill="#34A4DA" transform="matrix(1.00, 0.00, -0.00, -1.00, 814.7, 820.0)"> </text><text xml:space="preserve" font-family="DINCondensed-Bold" font-weight="bold" font-size="121.2" fill="#34A4DA" transform="matrix(1.00, 0.00, -0.00, -1.00, 837.3, 820.0)"> </text><text xml:space="preserve" font-family="DINCondensed-Bold" font-weight="bold" font-size="121.2" fill="#34A4DA" transform="matrix(1.00, 0.00, -0.00, -1.00, 859.8, 820.0)"> </text><text xml:space="preserve" font-family="DINCondensed-Bold" font-weight="bold" font-size="121.2" fill="#34A4DA" transform="matrix(1.00, 0.00, -0.00, -1.00, 882.3, 820.0)"> </text><text xml:space="preserve" font-family="DINCondensed-Bold" font-weight="bold" font-size="121.2" fill="#34A4DA" transform="matrix(1.00, 0.00, -0.00, -1.00, 904.9, 820.0)"> </text><text xml:space="preserve" font-family="DINCondensed-Bold" font-weight="bold" font-size="121.2" fill="#34A4DA" transform="matrix(1.00, 0.00, -0.00, -1.00, 927.4, 820.0)"> </text><text xml:space="preserve" font-family="DINCondensed-Bold" font-weight="bold" font-size="121.2" fill="#34A4DA" transform="matrix(1.00, 0.00, -0.00, -1.00, 950.0, 820.0)"> </text><text xml:space="preserve" font-family="DINCondensed-Bold" font-weight="bold" font-size="121.2" fill="#34A4DA" transform="matrix(1.00, 0.00, -0.00, -1.00, 972.5, 820.0)"> </text><text xml:space="preserve" font-family="DINCondensed-Bold" font-weight="bold" font-size="121.2" fill="#34A4DA" transform="matrix(1.00, 0.00, -0.00, -1.00, 995.1, 820.0)"> </text><text xml:space="preserve" font-family="DINCondensed-Bold" font-weight="bold" font-size="121.2" fill="#34A4DA" transform="matrix(1.00, 0.00, -0.00, -1.00, 1017.6, 820.0)"> </text><text xml:space="preserve" font-family="DINCondensed-Bold" font-weight="bold" font-size="121.2" fill="#34A4DA" transform="matrix(1.00, 0.00, -0.00, -1.00, 1040.1, 820.0)"> </text><text xml:space="preserve" font-family="DINCondensed-Bold" font-weight="bold" font-size="121.2" fill="#34A4DA" transform="matrix(1.00, 0.00, -0.00, -1.00, 1062.7, 820.0)"> </text><text xml:space="preserve" font-family="DINCondensed-Bold" font-weight="bold" font-size="121.2" fill="#34A4DA" transform="matrix(1.00, 0.00, -0.00, -1.00, 1085.2, 820.0)"> </text><text xml:space="preserve" font-family="DINCondensed-Bold" font-weight="bold" font-size="121.2" fill="#34A4DA" transform="matrix(1.00, 0.00, -0.00, -1.00, 1107.8, 820.0)"> </text><text xml:space="preserve" font-family="DINCondensed-Bold" font-weight="bold" font-size="121.2" fill="#34A4DA" transform="matrix(1.00, 0.00, -0.00, -1.00, 1130.3, 820.0)"> </text><text xml:space="preserve" font-family="DINCondensed-Bold" font-weight="bold" font-size="121.2" fill="#34A4DA" transform="matrix(1.00, 0.00, -0.00, -1.00, 1152.9, 820.0)"> </text><text xml:space="preserve" font-family="DINCondensed-Bold" font-weight="bold" font-size="121.2" fill="#34A4DA" transform="matrix(1.00, 0.00, -0.00, -1.00, 1175.4, 820.0)"> </text><text xml:space="preserve" font-family="DINCondensed-Bold" font-weight="bold" font-size="121.2" fill="#34A4DA" transform="matrix(1.00, 0.00, -0.00, -1.00, 1197.9, 820.0)"> </text><text xml:space="preserve" font-family="DINCondensed-Bold" font-weight="bold" font-size="121.2" fill="#34A4DA" transform="matrix(1.00, 0.00, -0.00, -1.00, 1220.5, 820.0)"> </text><text xml:space="preserve" font-family="DINCondensed-Bold" font-weight="bold" font-size="121.2" fill="#34A4DA" transform="matrix(1.00, 0.00, -0.00, -1.00, 1243.0, 820.0)"> </text><text xml:space="preserve" font-family="DINCondensed-Bold" font-weight="bold" font-size="121.2" fill="#34A4DA" transform="matrix(1.00, 0.00, -0.00, -1.00, 1265.6, 820.0)"> </text><text xml:space="preserve" font-family="DINCondensed-Bold" font-weight="bold" font-size="121.2" fill="#34A4DA" transform="matrix(1.00, 0.00, -0.00, -1.00, 1288.1, 820.0)"> </text><text xml:space="preserve" font-family="DINCondensed-Bold" font-weight="bold" font-size="121.2" fill="#34A4DA" transform="matrix(1.00, 0.00, -0.00, -1.00, 1310.7, 820.0)"> </text><text xml:space="preserve" font-family="DINCondensed-Bold" font-weight="bold" font-size="121.2" fill="#34A4DA" transform="matrix(1.00, 0.00, -0.00, -1.00, 1333.2, 820.0)"> </text><text xml:space="preserve" font-family="DINCondensed-Bold" font-weight="bold" font-size="121.2" fill="#34A4DA" transform="matrix(1.00, 0.00, -0.00, -1.00, 1355.7, 820.0)"> </text><text xml:space="preserve" font-family="DINCondensed-Bold" font-weight="bold" font-size="121.2" fill="#34A4DA" transform="matrix(1.00, 0.00, -0.00, -1.00, 1378.3, 820.0)"> </text><text xml:space="preserve" font-family="DINCondensed-Bold" font-weight="bold" font-size="121.2" fill="#34A4DA" transform="matrix(1.00, 0.00, -0.00, -1.00, 1400.8, 820.0)"> </text><text xml:space="preserve" font-family="DINCondensed-Bold" font-weight="bold" font-size="121.2" fill="#34A4DA" transform="matrix(1.00, 0.00, -0.00, -1.00, 1423.4, 820.0)"> </text><text xml:space="preserve" font-family="DINCondensed-Bold" font-weight="bold" font-size="121.2" fill="#34A4DA" transform="matrix(1.00, 0.00, -0.00, -1.00, 1445.9, 820.0)"> </text><text xml:space="preserve" font-family="DINCondensed-Bold" font-weight="bold" font-size="121.2" fill="#34A4DA" transform="matrix(1.00, 0.00, -0.00, -1.00, 1468.5, 820.0)"> </text><text xml:space="preserve" font-family="DINCondensed-Bold" font-weight="bold" font-size="121.2" fill="#34A4DA" transform="matrix(1.00, 0.00, -0.00, -1.00, 1491.0, 820.0)"> </text><text xml:space="preserve" font-family="DINCondensed-Bold" font-weight="bold" font-size="121.2" fill="#34A4DA" transform="matrix(1.00, 0.00, -0.00, -1.00, 1513.6, 820.0)"> </text><text xml:space="preserve" font-family="DINCondensed-Bold" font-weight="bold" font-size="121.2" fill="#34A4DA" transform="matrix(1.00, 0.00, -0.00, -1.00, 1536.1, 820.0)"> </text><text xml:space="preserve" font-family="DINCondensed-Bold" font-weight="bold" font-size="121.2" fill="#34A4DA" transform="matrix(1.00, 0.00, -0.00, -1.00, 1558.6, 820.0)"> </text><text xml:space="preserve" font-family="DINCondensed-Bold" font-weight="bold" font-size="121.2" fill="#34A4DA" transform="matrix(1.00, 0.00, -0.00, -1.00, 1581.2, 820.0)">S</text><text xml:space="preserve" font-family="DINCondensed-Bold" font-weight="bold" font-size="121.2" fill="#34A4DA" transform="matrix(1.00, 0.00, -0.00, -1.00, 1630.4, 820.0)">A</text><text xml:space="preserve" font-family="DINCondensed-Bold" font-weight="bold" font-size="121.2" fill="#34A4DA" transform="matrix(1.00, 0.00, -0.00, -1.00, 1679.7, 820.0)">D</text><text xml:space="preserve" font-family="DINCondensed-Bold" font-weight="bold" font-size="121.2" fill="#34A4DA" transform="matrix(1.00, 0.00, -0.00, -1.00, 1731.3, 820.0)"> </text><text xml:space="preserve" font-family="DINCondensed-Bold" font-weight="bold" font-size="121.2" fill="#34A4DA" transform="matrix(1.00, 0.00, -0.00, -1.00, 1753.9, 820.0)">(</text><text xml:space="preserve" font-family="DINCondensed-Bold" font-weight="bold" font-size="121.2" fill="#34A4DA" transform="matrix(1.00, 0.00, -0.00, -1.00, 1780.8, 820.0)">E</text><text xml:space="preserve" font-family="DINCondensed-Bold" font-weight="bold" font-size="121.2" fill="#34A4DA" transform="matrix(1.00, 0.00, -0.00, -1.00, 1825.6, 820.0)">)</text></g></g><image xlink:href="../../9D36BCDD-EC18-458A-AEDC-EC68EF909775/assets/1F89CDDAEC3A9A56F385DE81B5A3DE77.png" width="960.00" height="639.00" transform="matrix(1.00, 0.00, -0.00, -1.00, 480.0, 739.0)"></image></g></svg>