<?xml version="1.0" encoding="UTF-8" standalone="no"?><svg xmlns="http://www.w3.org/2000/svg" xmlns:xlink="http://www.w3.org/1999/xlink" clip-rule="evenodd" stroke-miterlimit="4.00" viewBox="0 0 1920 1080"><desc>SVG generated by Keynote</desc><defs></defs><g transform="matrix(1.00, 0.00, -0.00, -1.00, 0.0, 1080.0)"><path d="M 0.0 1080.0 L 1920.0 1080.0 L 1920.0 0.0 L 0.0 0.0 Z M 0.0 1080.0 " fill="#FFFFFF"></path><path d="M 0.0 0.0 L 1800.0 0.0 " fill="none" stroke="#A6AAA9" stroke-width="2.00" transform="matrix(1.00, 0.00, 0.00, -1.00, 60.0, 970.0)"></path><text xml:space="preserve" font-family="DINAlternate-Bold" font-weight="bold" font-size="36.0" fill="#838686" transform="matrix(1.00, 0.00, -0.00, -1.00, 64.0, 992.0)">M</text><text xml:space="preserve" font-family="DINAlternate-Bold" font-weight="bold" font-size="36.0" fill="#838686" transform="matrix(1.00, 0.00, -0.00, -1.00, 93.1, 992.0)">A</text><text xml:space="preserve" font-family="DINAlternate-Bold" font-weight="bold" font-size="36.0" fill="#838686" transform="matrix(1.00, 0.00, -0.00, -1.00, 116.8, 992.0)">X</text><text xml:space="preserve" font-family="DINAlternate-Bold" font-weight="bold" font-size="36.0" fill="#838686" transform="matrix(1.00, 0.00, -0.00, -1.00, 137.9, 992.0)">I</text><text xml:space="preserve" font-family="DINAlternate-Bold" font-weight="bold" font-size="36.0" fill="#838686" transform="matrix(1.00, 0.00, -0.00, -1.00, 149.0, 992.0)">M</text><text xml:space="preserve" font-family="DINAlternate-Bold" font-weight="bold" font-size="36.0" fill="#838686" transform="matrix(1.00, 0.00, -0.00, -1.00, 178.1, 992.0)">I</text><text xml:space="preserve" font-family="DINAlternate-Bold" font-weight="bold" font-size="36.0" fill="#838686" transform="matrix(1.00, 0.00, -0.00, -1.00, 189.1, 992.0)">Z</text><text xml:space="preserve" font-family="DINAlternate-Bold" font-weight="bold" font-size="36.0" fill="#838686" transform="matrix(1.00, 0.00, -0.00, -1.00, 209.6, 992.0)">E</text><text xml:space="preserve" font-family="DINAlternate-Bold" font-weight="bold" font-size="36.0" fill="#838686" transform="matrix(1.00, 0.00, -0.00, -1.00, 231.4, 992.0)"> </text><text xml:space="preserve" font-family="DINAlternate-Bold" font-weight="bold" font-size="36.0" fill="#838686" transform="matrix(1.00, 0.00, -0.00, -1.00, 241.9, 992.0)">Y</text><text xml:space="preserve" font-family="DINAlternate-Bold" font-weight="bold" font-size="36.0" fill="#838686" transform="matrix(1.00, 0.00, -0.00, -1.00, 260.7, 992.0)">O</text><text xml:space="preserve" font-family="DINAlternate-Bold" font-weight="bold" font-size="36.0" fill="#838686" transform="matrix(1.00, 0.00, -0.00, -1.00, 284.5, 992.0)">U</text><text xml:space="preserve" font-family="DINAlternate-Bold" font-weight="bold" font-size="36.0" fill="#838686" transform="matrix(1.00, 0.00, -0.00, -1.00, 309.0, 992.0)">R</text><text xml:space="preserve" font-family="DINAlternate-Bold" font-weight="bold" font-size="36.0" fill="#838686" transform="matrix(1.00, 0.00, -0.00, -1.00, 332.7, 992.0)"> </text><text xml:space="preserve" font-family="DINAlternate-Bold" font-weight="bold" font-size="36.0" fill="#838686" transform="matrix(1.00, 0.00, -0.00, -1.00, 343.1, 992.0)">A</text><text xml:space="preserve" font-family="DINAlternate-Bold" font-weight="bold" font-size="36.0" fill="#838686" transform="matrix(1.00, 0.00, -0.00, -1.00, 366.9, 992.0)">B</text><text xml:space="preserve" font-family="DINAlternate-Bold" font-weight="bold" font-size="36.0" fill="#838686" transform="matrix(1.00, 0.00, -0.00, -1.00, 390.6, 992.0)">I</text><text xml:space="preserve" font-family="DINAlternate-Bold" font-weight="bold" font-size="36.0" fill="#838686" transform="matrix(1.00, 0.00, -0.00, -1.00, 401.7, 992.0)">L</text><text xml:space="preserve" font-family="DINAlternate-Bold" font-weight="bold" font-size="36.0" fill="#838686" transform="matrix(1.00, 0.00, -0.00, -1.00, 423.5, 992.0)">I</text><text xml:space="preserve" font-family="DINAlternate-Bold" font-weight="bold" font-size="36.0" fill="#838686" transform="matrix(1.00, 0.00, -0.00, -1.00, 434.6, 992.0)">T</text><text xml:space="preserve" font-family="DINAlternate-Bold" font-weight="bold" font-size="36.0" fill="#838686" transform="matrix(1.00, 0.00, -0.00, -1.00, 454.4, 992.0)">Y</text><text xml:space="preserve" font-family="DINAlternate-Bold" font-weight="bold" font-size="36.0" fill="#838686" transform="matrix(1.00, 0.00, -0.00, -1.00, 474.2, 992.0)"> </text><text xml:space="preserve" font-family="DINAlternate-Bold" font-weight="bold" font-size="36.0" fill="#838686" transform="matrix(1.00, 0.00, -0.00, -1.00, 484.6, 992.0)">T</text><text xml:space="preserve" font-family="DINAlternate-Bold" font-weight="bold" font-size="36.0" fill="#838686" transform="matrix(1.00, 0.00, -0.00, -1.00, 503.7, 992.0)">O</text><text xml:space="preserve" font-family="DINAlternate-Bold" font-weight="bold" font-size="36.0" fill="#838686" transform="matrix(1.00, 0.00, -0.00, -1.00, 527.5, 992.0)"> </text><text xml:space="preserve" font-family="DINAlternate-Bold" font-weight="bold" font-size="36.0" fill="#838686" transform="matrix(1.00, 0.00, -0.00, -1.00, 537.9, 992.0)">L</text><text xml:space="preserve" font-family="DINAlternate-Bold" font-weight="bold" font-size="36.0" fill="#838686" transform="matrix(1.00, 0.00, -0.00, -1.00, 559.7, 992.0)">E</text><text xml:space="preserve" font-family="DINAlternate-Bold" font-weight="bold" font-size="36.0" fill="#838686" transform="matrix(1.00, 0.00, -0.00, -1.00, 581.5, 992.0)">A</text><text xml:space="preserve" font-family="DINAlternate-Bold" font-weight="bold" font-size="36.0" fill="#838686" transform="matrix(1.00, 0.00, -0.00, -1.00, 605.3, 992.0)">R</text><text xml:space="preserve" font-family="DINAlternate-Bold" font-weight="bold" font-size="36.0" fill="#838686" transform="matrix(1.00, 0.00, -0.00, -1.00, 629.0, 992.0)">N</text><text xml:space="preserve" font-family="DINCondensed-Bold" font-weight="bold" font-size="72.0" fill="#34A4DA" transform="matrix(1.00, 0.00, -0.00, -1.00, 64.0, 855.0)">D</text><text xml:space="preserve" font-family="DINCondensed-Bold" font-weight="bold" font-size="72.0" fill="#34A4DA" transform="matrix(1.00, 0.00, -0.00, -1.00, 94.7, 855.0)">E</text><text xml:space="preserve" font-family="DINCondensed-Bold" font-weight="bold" font-size="72.0" fill="#34A4DA" transform="matrix(1.00, 0.00, -0.00, -1.00, 121.3, 855.0)">F</text><text xml:space="preserve" font-family="DINCondensed-Bold" font-weight="bold" font-size="72.0" fill="#34A4DA" transform="matrix(1.00, 0.00, -0.00, -1.00, 148.0, 855.0)"> </text><text xml:space="preserve" font-family="DINCondensed-Bold" font-weight="bold" font-size="72.0" fill="#34A4DA" transform="matrix(1.00, 0.00, -0.00, -1.00, 161.3, 855.0)">E</text><text xml:space="preserve" font-family="DINCondensed-Bold" font-weight="bold" font-size="72.0" fill="#34A4DA" transform="matrix(1.00, 0.00, -0.00, -1.00, 188.0, 855.0)">L</text><text xml:space="preserve" font-family="DINCondensed-Bold" font-weight="bold" font-size="72.0" fill="#34A4DA" transform="matrix(1.00, 0.00, -0.00, -1.00, 214.6, 855.0)">A</text><text xml:space="preserve" font-family="DINCondensed-Bold" font-weight="bold" font-size="72.0" fill="#34A4DA" transform="matrix(1.00, 0.00, -0.00, -1.00, 243.9, 855.0)">B</text><text xml:space="preserve" font-family="DINCondensed-Bold" font-weight="bold" font-size="72.0" fill="#34A4DA" transform="matrix(1.00, 0.00, -0.00, -1.00, 274.6, 855.0)">O</text><text xml:space="preserve" font-family="DINCondensed-Bold" font-weight="bold" font-size="72.0" fill="#34A4DA" transform="matrix(1.00, 0.00, -0.00, -1.00, 305.3, 855.0)">R</text><text xml:space="preserve" font-family="DINCondensed-Bold" font-weight="bold" font-size="72.0" fill="#34A4DA" transform="matrix(1.00, 0.00, -0.00, -1.00, 335.9, 855.0)">A</text><text xml:space="preserve" font-family="DINCondensed-Bold" font-weight="bold" font-size="72.0" fill="#34A4DA" transform="matrix(1.00, 0.00, -0.00, -1.00, 361.3, 855.0)">T</text><text xml:space="preserve" font-family="DINCondensed-Bold" font-weight="bold" font-size="72.0" fill="#34A4DA" transform="matrix(1.00, 0.00, -0.00, -1.00, 385.2, 855.0)">I</text><text xml:space="preserve" font-family="DINCondensed-Bold" font-weight="bold" font-size="72.0" fill="#34A4DA" transform="matrix(1.00, 0.00, -0.00, -1.00, 399.9, 855.0)">O</text><text xml:space="preserve" font-family="DINCondensed-Bold" font-weight="bold" font-size="72.0" fill="#34A4DA" transform="matrix(1.00, 0.00, -0.00, -1.00, 430.6, 855.0)">N</text><text xml:space="preserve" font-family="AvenirNext-Medium" font-size="64.0" fill="#838686" transform="matrix(1.00, 0.00, -0.00, -1.00, 194.0, 672.0)">E</text><text xml:space="preserve" font-family="AvenirNext-Medium" font-size="64.0" fill="#838686" transform="matrix(1.00, 0.00, -0.00, -1.00, 232.5, 672.0)">a</text><text xml:space="preserve" font-family="AvenirNext-Medium" font-size="64.0" fill="#838686" transform="matrix(1.00, 0.00, -0.00, -1.00, 267.2, 672.0)">c</text><text xml:space="preserve" font-family="AvenirNext-Medium" font-size="64.0" fill="#838686" transform="matrix(1.00, 0.00, -0.00, -1.00, 298.8, 672.0)">h</text><text xml:space="preserve" font-family="AvenirNext-Medium" font-size="64.0" fill="#838686" transform="matrix(1.00, 0.00, -0.00, -1.00, 336.1, 672.0)"> </text><text xml:space="preserve" font-family="AvenirNext-Medium" font-size="64.0" fill="#838686" transform="matrix(1.00, 0.00, -0.00, -1.00, 352.1, 672.0)">n</text><text xml:space="preserve" font-family="AvenirNext-Medium" font-size="64.0" fill="#838686" transform="matrix(1.00, 0.00, -0.00, -1.00, 389.4, 672.0)">e</text><text xml:space="preserve" font-family="AvenirNext-Medium" font-size="64.0" fill="#838686" transform="matrix(1.00, 0.00, -0.00, -1.00, 426.1, 672.0)">w</text><text xml:space="preserve" font-family="AvenirNext-Medium" font-size="64.0" fill="#838686" transform="matrix(1.00, 0.00, -0.00, -1.00, 475.5, 672.0)"> </text><text xml:space="preserve" font-family="AvenirNext-Medium" font-size="64.0" fill="#838686" transform="matrix(1.00, 0.00, -0.00, -1.00, 491.5, 672.0)">c</text><text xml:space="preserve" font-family="AvenirNext-Medium" font-size="64.0" fill="#838686" transform="matrix(1.00, 0.00, -0.00, -1.00, 523.2, 672.0)">o</text><text xml:space="preserve" font-family="AvenirNext-Medium" font-size="64.0" fill="#838686" transform="matrix(1.00, 0.00, -0.00, -1.00, 562.2, 672.0)">n</text><text xml:space="preserve" font-family="AvenirNext-Medium" font-size="64.0" fill="#838686" transform="matrix(1.00, 0.00, -0.00, -1.00, 599.4, 672.0)">c</text><text xml:space="preserve" font-family="AvenirNext-Medium" font-size="64.0" fill="#838686" transform="matrix(1.00, 0.00, -0.00, -1.00, 631.1, 672.0)">e</text><text xml:space="preserve" font-family="AvenirNext-Medium" font-size="64.0" fill="#838686" transform="matrix(1.00, 0.00, -0.00, -1.00, 667.7, 672.0)">p</text><text xml:space="preserve" font-family="AvenirNext-Medium" font-size="64.0" fill="#838686" transform="matrix(1.00, 0.00, -0.00, -1.00, 708.3, 672.0)">t</text><text xml:space="preserve" font-family="AvenirNext-Medium" font-size="64.0" fill="#838686" transform="matrix(1.00, 0.00, -0.00, -1.00, 729.4, 672.0)"> </text><text xml:space="preserve" font-family="AvenirNext-Medium" font-size="64.0" fill="#838686" transform="matrix(1.00, 0.00, -0.00, -1.00, 745.4, 672.0)">m</text><text xml:space="preserve" font-family="AvenirNext-Medium" font-size="64.0" fill="#838686" transform="matrix(1.00, 0.00, -0.00, -1.00, 802.1, 672.0)">u</text><text xml:space="preserve" font-family="AvenirNext-Medium" font-size="64.0" fill="#838686" transform="matrix(1.00, 0.00, -0.00, -1.00, 839.4, 672.0)">s</text><text xml:space="preserve" font-family="AvenirNext-Medium" font-size="64.0" fill="#838686" transform="matrix(1.00, 0.00, -0.00, -1.00, 867.8, 672.0)">t</text><text xml:space="preserve" font-family="AvenirNext-Medium" font-size="64.0" fill="#838686" transform="matrix(1.00, 0.00, -0.00, -1.00, 888.8, 672.0)"> </text><text xml:space="preserve" font-family="AvenirNext-Medium" font-size="64.0" fill="#838686" transform="matrix(1.00, 0.00, -0.00, -1.00, 904.8, 672.0)">e</text><text xml:space="preserve" font-family="AvenirNext-Medium" font-size="64.0" fill="#838686" transform="matrix(1.00, 0.00, -0.00, -1.00, 941.5, 672.0)">l</text><text xml:space="preserve" font-family="AvenirNext-Medium" font-size="64.0" fill="#838686" transform="matrix(1.00, 0.00, -0.00, -1.00, 958.2, 672.0)">a</text><text xml:space="preserve" font-family="AvenirNext-Medium" font-size="64.0" fill="#838686" transform="matrix(1.00, 0.00, -0.00, -1.00, 992.8, 672.0)">b</text><text xml:space="preserve" font-family="AvenirNext-Medium" font-size="64.0" fill="#838686" transform="matrix(1.00, 0.00, -0.00, -1.00, 1033.6, 672.0)">o</text><text xml:space="preserve" font-family="AvenirNext-Medium" font-size="64.0" fill="#838686" transform="matrix(1.00, 0.00, -0.00, -1.00, 1072.6, 672.0)">r</text><text xml:space="preserve" font-family="AvenirNext-Medium" font-size="64.0" fill="#838686" transform="matrix(1.00, 0.00, -0.00, -1.00, 1094.9, 672.0)">a</text><text xml:space="preserve" font-family="AvenirNext-Medium" font-size="64.0" fill="#838686" transform="matrix(1.00, 0.00, -0.00, -1.00, 1129.0, 672.0)">t</text><text xml:space="preserve" font-family="AvenirNext-Medium" font-size="64.0" fill="#838686" transform="matrix(1.00, 0.00, -0.00, -1.00, 1150.0, 672.0)">e</text><text xml:space="preserve" font-family="AvenirNext-Medium" font-size="64.0" fill="#838686" transform="matrix(1.00, 0.00, -0.00, -1.00, 1186.7, 672.0)"> </text><text xml:space="preserve" font-family="AvenirNext-Medium" font-size="64.0" fill="#838686" transform="matrix(1.00, 0.00, -0.00, -1.00, 1202.7, 672.0)">u</text><text xml:space="preserve" font-family="AvenirNext-Medium" font-size="64.0" fill="#838686" transform="matrix(1.00, 0.00, -0.00, -1.00, 1240.0, 672.0)">p</text><text xml:space="preserve" font-family="AvenirNext-Medium" font-size="64.0" fill="#838686" transform="matrix(1.00, 0.00, -0.00, -1.00, 1280.5, 672.0)">o</text><text xml:space="preserve" font-family="AvenirNext-Medium" font-size="64.0" fill="#838686" transform="matrix(1.00, 0.00, -0.00, -1.00, 1319.6, 672.0)">n</text><text xml:space="preserve" font-family="AvenirNext-Medium" font-size="64.0" fill="#838686" transform="matrix(1.00, 0.00, -0.00, -1.00, 1356.8, 672.0)"> </text><text xml:space="preserve" font-family="AvenirNext-Medium" font-size="64.0" fill="#838686" transform="matrix(1.00, 0.00, -0.00, -1.00, 1372.8, 672.0)">a</text><text xml:space="preserve" font-family="AvenirNext-Medium" font-size="64.0" fill="#838686" transform="matrix(1.00, 0.00, -0.00, -1.00, 1407.5, 672.0)"> </text><text xml:space="preserve" font-family="AvenirNext-Medium" font-size="64.0" fill="#838686" transform="matrix(1.00, 0.00, -0.00, -1.00, 1423.5, 672.0)">p</text><text xml:space="preserve" font-family="AvenirNext-Medium" font-size="64.0" fill="#838686" transform="matrix(1.00, 0.00, -0.00, -1.00, 1464.1, 672.0)">r</text><text xml:space="preserve" font-family="AvenirNext-Medium" font-size="64.0" fill="#838686" transform="matrix(1.00, 0.00, -0.00, -1.00, 1486.1, 672.0)">e</text><text xml:space="preserve" font-family="AvenirNext-Medium" font-size="64.0" fill="#838686" transform="matrix(1.00, 0.00, -0.00, -1.00, 1522.8, 672.0)">v</text><text xml:space="preserve" font-family="AvenirNext-Medium" font-size="64.0" fill="#838686" transform="matrix(1.00, 0.00, -0.00, -1.00, 1555.0, 672.0)">i</text><text xml:space="preserve" font-family="AvenirNext-Medium" font-size="64.0" fill="#838686" transform="matrix(1.00, 0.00, -0.00, -1.00, 1571.6, 672.0)">o</text><text xml:space="preserve" font-family="AvenirNext-Medium" font-size="64.0" fill="#838686" transform="matrix(1.00, 0.00, -0.00, -1.00, 1610.6, 672.0)">u</text><text xml:space="preserve" font-family="AvenirNext-Medium" font-size="64.0" fill="#838686" transform="matrix(1.00, 0.00, -0.00, -1.00, 1647.9, 672.0)">s</text><text xml:space="preserve" font-family="AvenirNext-Medium" font-size="64.0" fill="#838686" transform="matrix(1.00, 0.00, -0.00, -1.00, 1676.3, 672.0)">l</text><text xml:space="preserve" font-family="AvenirNext-Medium" font-size="64.0" fill="#838686" transform="matrix(1.00, 0.00, -0.00, -1.00, 1692.9, 672.0)">y</text><text xml:space="preserve" font-family="AvenirNext-Medium" font-size="64.0" fill="#838686" transform="matrix(1.00, 0.00, -0.00, -1.00, 1725.2, 672.0)"> </text><text xml:space="preserve" font-family="AvenirNext-Medium" font-size="64.0" fill="#838686" transform="matrix(1.00, 0.00, -0.00, -1.00, 687.0, 585.0)">m</text><text xml:space="preserve" font-family="AvenirNext-Medium" font-size="64.0" fill="#838686" transform="matrix(1.00, 0.00, -0.00, -1.00, 743.8, 585.0)">a</text><text xml:space="preserve" font-family="AvenirNext-Medium" font-size="64.0" fill="#838686" transform="matrix(1.00, 0.00, -0.00, -1.00, 778.5, 585.0)">s</text><text xml:space="preserve" font-family="AvenirNext-Medium" font-size="64.0" fill="#838686" transform="matrix(1.00, 0.00, -0.00, -1.00, 806.9, 585.0)">t</text><text xml:space="preserve" font-family="AvenirNext-Medium" font-size="64.0" fill="#838686" transform="matrix(1.00, 0.00, -0.00, -1.00, 827.9, 585.0)">e</text><text xml:space="preserve" font-family="AvenirNext-Medium" font-size="64.0" fill="#838686" transform="matrix(1.00, 0.00, -0.00, -1.00, 864.6, 585.0)">r</text><text xml:space="preserve" font-family="AvenirNext-Medium" font-size="64.0" fill="#838686" transform="matrix(1.00, 0.00, -0.00, -1.00, 886.6, 585.0)">e</text><text xml:space="preserve" font-family="AvenirNext-Medium" font-size="64.0" fill="#838686" transform="matrix(1.00, 0.00, -0.00, -1.00, 923.3, 585.0)">d</text><text xml:space="preserve" font-family="AvenirNext-Medium" font-size="64.0" fill="#838686" transform="matrix(1.00, 0.00, -0.00, -1.00, 963.9, 585.0)"> </text><text xml:space="preserve" font-family="AvenirNext-Medium" font-size="64.0" fill="#838686" transform="matrix(1.00, 0.00, -0.00, -1.00, 979.9, 585.0)">c</text><text xml:space="preserve" font-family="AvenirNext-Medium" font-size="64.0" fill="#838686" transform="matrix(1.00, 0.00, -0.00, -1.00, 1011.5, 585.0)">o</text><text xml:space="preserve" font-family="AvenirNext-Medium" font-size="64.0" fill="#838686" transform="matrix(1.00, 0.00, -0.00, -1.00, 1050.6, 585.0)">n</text><text xml:space="preserve" font-family="AvenirNext-Medium" font-size="64.0" fill="#838686" transform="matrix(1.00, 0.00, -0.00, -1.00, 1087.8, 585.0)">c</text><text xml:space="preserve" font-family="AvenirNext-Medium" font-size="64.0" fill="#838686" transform="matrix(1.00, 0.00, -0.00, -1.00, 1119.4, 585.0)">e</text><text xml:space="preserve" font-family="AvenirNext-Medium" font-size="64.0" fill="#838686" transform="matrix(1.00, 0.00, -0.00, -1.00, 1156.1, 585.0)">p</text><text xml:space="preserve" font-family="AvenirNext-Medium" font-size="64.0" fill="#838686" transform="matrix(1.00, 0.00, -0.00, -1.00, 1196.7, 585.0)">t</text><text xml:space="preserve" font-family="AvenirNext-Medium" font-size="64.0" fill="#838686" transform="matrix(1.00, 0.00, -0.00, -1.00, 1217.8, 585.0)">.</text><text xml:space="preserve" font-family="AvenirNext-Medium" font-size="64.0" fill="#838686" transform="matrix(1.00, 0.00, -0.00, -1.00, 1232.5, 585.0)"> </text><text xml:space="preserve" font-family="AvenirNext-Medium" font-size="64.0" fill="#838686" transform="matrix(1.00, 0.00, -0.00, -1.00, 1248.5, 585.0)"> </text><text xml:space="preserve" font-family="AvenirNext-Medium" font-size="64.0" fill="#838686" transform="matrix(1.00, 0.00, -0.00, -1.00, 211.0, 343.0)">T</text><text xml:space="preserve" font-family="AvenirNext-Medium" font-size="64.0" fill="#838686" transform="matrix(1.00, 0.00, -0.00, -1.00, 246.6, 343.0)">i</text><text xml:space="preserve" font-family="AvenirNext-Medium" font-size="64.0" fill="#838686" transform="matrix(1.00, 0.00, -0.00, -1.00, 263.2, 343.0)">m</text><text xml:space="preserve" font-family="AvenirNext-Medium" font-size="64.0" fill="#838686" transform="matrix(1.00, 0.00, -0.00, -1.00, 320.0, 343.0)">e</text><text xml:space="preserve" font-family="AvenirNext-Medium" font-size="64.0" fill="#838686" transform="matrix(1.00, 0.00, -0.00, -1.00, 356.7, 343.0)"> </text><text xml:space="preserve" font-family="AvenirNext-Medium" font-size="64.0" fill="#838686" transform="matrix(1.00, 0.00, -0.00, -1.00, 372.7, 343.0)">m</text><text xml:space="preserve" font-family="AvenirNext-Medium" font-size="64.0" fill="#838686" transform="matrix(1.00, 0.00, -0.00, -1.00, 429.4, 343.0)">u</text><text xml:space="preserve" font-family="AvenirNext-Medium" font-size="64.0" fill="#838686" transform="matrix(1.00, 0.00, -0.00, -1.00, 466.7, 343.0)">s</text><text xml:space="preserve" font-family="AvenirNext-Medium" font-size="64.0" fill="#838686" transform="matrix(1.00, 0.00, -0.00, -1.00, 495.1, 343.0)">t</text><text xml:space="preserve" font-family="AvenirNext-Medium" font-size="64.0" fill="#838686" transform="matrix(1.00, 0.00, -0.00, -1.00, 516.2, 343.0)"> </text><text xml:space="preserve" font-family="AvenirNext-Medium" font-size="64.0" fill="#838686" transform="matrix(1.00, 0.00, -0.00, -1.00, 532.2, 343.0)">b</text><text xml:space="preserve" font-family="AvenirNext-Medium" font-size="64.0" fill="#838686" transform="matrix(1.00, 0.00, -0.00, -1.00, 572.9, 343.0)">e</text><text xml:space="preserve" font-family="AvenirNext-Medium" font-size="64.0" fill="#838686" transform="matrix(1.00, 0.00, -0.00, -1.00, 609.5, 343.0)"> </text><text xml:space="preserve" font-family="AvenirNext-Medium" font-size="64.0" fill="#838686" transform="matrix(1.00, 0.00, -0.00, -1.00, 625.5, 343.0)">t</text><text xml:space="preserve" font-family="AvenirNext-Medium" font-size="64.0" fill="#838686" transform="matrix(1.00, 0.00, -0.00, -1.00, 646.6, 343.0)">a</text><text xml:space="preserve" font-family="AvenirNext-Medium" font-size="64.0" fill="#838686" transform="matrix(1.00, 0.00, -0.00, -1.00, 681.3, 343.0)">k</text><text xml:space="preserve" font-family="AvenirNext-Medium" font-size="64.0" fill="#838686" transform="matrix(1.00, 0.00, -0.00, -1.00, 713.8, 343.0)">e</text><text xml:space="preserve" font-family="AvenirNext-Medium" font-size="64.0" fill="#838686" transform="matrix(1.00, 0.00, -0.00, -1.00, 750.5, 343.0)">n</text><text xml:space="preserve" font-family="AvenirNext-Medium" font-size="64.0" fill="#838686" transform="matrix(1.00, 0.00, -0.00, -1.00, 787.8, 343.0)"> </text><text xml:space="preserve" font-family="AvenirNext-Medium" font-size="64.0" fill="#838686" transform="matrix(1.00, 0.00, -0.00, -1.00, 803.8, 343.0)">t</text><text xml:space="preserve" font-family="AvenirNext-Medium" font-size="64.0" fill="#838686" transform="matrix(1.00, 0.00, -0.00, -1.00, 824.8, 343.0)">o</text><text xml:space="preserve" font-family="AvenirNext-Medium" font-size="64.0" fill="#838686" transform="matrix(1.00, 0.00, -0.00, -1.00, 863.9, 343.0)"> </text><text xml:space="preserve" font-family="AvenirNext-Medium" font-size="64.0" fill="#838686" transform="matrix(1.00, 0.00, -0.00, -1.00, 879.9, 343.0)">s</text><text xml:space="preserve" font-family="AvenirNext-Medium" font-size="64.0" fill="#838686" transform="matrix(1.00, 0.00, -0.00, -1.00, 908.3, 343.0)">h</text><text xml:space="preserve" font-family="AvenirNext-Medium" font-size="64.0" fill="#838686" transform="matrix(1.00, 0.00, -0.00, -1.00, 945.7, 343.0)">o</text><text xml:space="preserve" font-family="AvenirNext-Medium" font-size="64.0" fill="#838686" transform="matrix(1.00, 0.00, -0.00, -1.00, 984.7, 343.0)">w</text><text xml:space="preserve" font-family="AvenirNext-Medium" font-size="64.0" fill="#838686" transform="matrix(1.00, 0.00, -0.00, -1.00, 1034.2, 343.0)"> </text><text xml:space="preserve" font-family="AvenirNext-Medium" font-size="64.0" fill="#838686" transform="matrix(1.00, 0.00, -0.00, -1.00, 1050.2, 343.0)">t</text><text xml:space="preserve" font-family="AvenirNext-Medium" font-size="64.0" fill="#838686" transform="matrix(1.00, 0.00, -0.00, -1.00, 1071.2, 343.0)">h</text><text xml:space="preserve" font-family="AvenirNext-Medium" font-size="64.0" fill="#838686" transform="matrix(1.00, 0.00, -0.00, -1.00, 1108.6, 343.0)">e</text><text xml:space="preserve" font-family="AvenirNext-Medium" font-size="64.0" fill="#838686" transform="matrix(1.00, 0.00, -0.00, -1.00, 1145.3, 343.0)"> </text><text xml:space="preserve" font-family="AvenirNext-Medium" font-size="64.0" fill="#838686" transform="matrix(1.00, 0.00, -0.00, -1.00, 1161.3, 343.0)">c</text><text xml:space="preserve" font-family="AvenirNext-Medium" font-size="64.0" fill="#838686" transform="matrix(1.00, 0.00, -0.00, -1.00, 1192.9, 343.0)">o</text><text xml:space="preserve" font-family="AvenirNext-Medium" font-size="64.0" fill="#838686" transform="matrix(1.00, 0.00, -0.00, -1.00, 1231.9, 343.0)">n</text><text xml:space="preserve" font-family="AvenirNext-Medium" font-size="64.0" fill="#838686" transform="matrix(1.00, 0.00, -0.00, -1.00, 1269.2, 343.0)">t</text><text xml:space="preserve" font-family="AvenirNext-Medium" font-size="64.0" fill="#838686" transform="matrix(1.00, 0.00, -0.00, -1.00, 1290.2, 343.0)">e</text><text xml:space="preserve" font-family="AvenirNext-Medium" font-size="64.0" fill="#838686" transform="matrix(1.00, 0.00, -0.00, -1.00, 1326.3, 343.0)">x</text><text xml:space="preserve" font-family="AvenirNext-Medium" font-size="64.0" fill="#838686" transform="matrix(1.00, 0.00, -0.00, -1.00, 1359.0, 343.0)">t</text><text xml:space="preserve" font-family="AvenirNext-Medium" font-size="64.0" fill="#838686" transform="matrix(1.00, 0.00, -0.00, -1.00, 1380.0, 343.0)"> </text><text xml:space="preserve" font-family="AvenirNext-Medium" font-size="64.0" fill="#838686" transform="matrix(1.00, 0.00, -0.00, -1.00, 1396.0, 343.0)">o</text><text xml:space="preserve" font-family="AvenirNext-Medium" font-size="64.0" fill="#838686" transform="matrix(1.00, 0.00, -0.00, -1.00, 1435.1, 343.0)">f</text><text xml:space="preserve" font-family="AvenirNext-Medium" font-size="64.0" fill="#838686" transform="matrix(1.00, 0.00, -0.00, -1.00, 1456.4, 343.0)"> </text><text xml:space="preserve" font-family="AvenirNext-Medium" font-size="64.0" fill="#838686" transform="matrix(1.00, 0.00, -0.00, -1.00, 1472.4, 343.0)">h</text><text xml:space="preserve" font-family="AvenirNext-Medium" font-size="64.0" fill="#838686" transform="matrix(1.00, 0.00, -0.00, -1.00, 1509.8, 343.0)">o</text><text xml:space="preserve" font-family="AvenirNext-Medium" font-size="64.0" fill="#838686" transform="matrix(1.00, 0.00, -0.00, -1.00, 1548.9, 343.0)">w</text><text xml:space="preserve" font-family="AvenirNext-Medium" font-size="64.0" fill="#838686" transform="matrix(1.00, 0.00, -0.00, -1.00, 1598.3, 343.0)"> </text><text xml:space="preserve" font-family="AvenirNext-Medium" font-size="64.0" fill="#838686" transform="matrix(1.00, 0.00, -0.00, -1.00, 1614.3, 343.0)">t</text><text xml:space="preserve" font-family="AvenirNext-Medium" font-size="64.0" fill="#838686" transform="matrix(1.00, 0.00, -0.00, -1.00, 1635.4, 343.0)">h</text><text xml:space="preserve" font-family="AvenirNext-Medium" font-size="64.0" fill="#838686" transform="matrix(1.00, 0.00, -0.00, -1.00, 1672.8, 343.0)">e</text><text xml:space="preserve" font-family="AvenirNext-Medium" font-size="64.0" fill="#838686" transform="matrix(1.00, 0.00, -0.00, -1.00, 1709.4, 343.0)"> </text><text xml:space="preserve" font-family="AvenirNext-Medium" font-size="64.0" fill="#838686" transform="matrix(1.00, 0.00, -0.00, -1.00, 533.0, 256.0)">n</text><text xml:space="preserve" font-family="AvenirNext-Medium" font-size="64.0" fill="#838686" transform="matrix(1.00, 0.00, -0.00, -1.00, 570.2, 256.0)">e</text><text xml:space="preserve" font-family="AvenirNext-Medium" font-size="64.0" fill="#838686" transform="matrix(1.00, 0.00, -0.00, -1.00, 606.9, 256.0)">w</text><text xml:space="preserve" font-family="AvenirNext-Medium" font-size="64.0" fill="#838686" transform="matrix(1.00, 0.00, -0.00, -1.00, 656.4, 256.0)"> </text><text xml:space="preserve" font-family="AvenirNext-Medium" font-size="64.0" fill="#838686" transform="matrix(1.00, 0.00, -0.00, -1.00, 672.4, 256.0)">k</text><text xml:space="preserve" font-family="AvenirNext-Medium" font-size="64.0" fill="#838686" transform="matrix(1.00, 0.00, -0.00, -1.00, 706.1, 256.0)">n</text><text xml:space="preserve" font-family="AvenirNext-Medium" font-size="64.0" fill="#838686" transform="matrix(1.00, 0.00, -0.00, -1.00, 743.4, 256.0)">o</text><text xml:space="preserve" font-family="AvenirNext-Medium" font-size="64.0" fill="#838686" transform="matrix(1.00, 0.00, -0.00, -1.00, 782.4, 256.0)">w</text><text xml:space="preserve" font-family="AvenirNext-Medium" font-size="64.0" fill="#838686" transform="matrix(1.00, 0.00, -0.00, -1.00, 831.9, 256.0)">l</text><text xml:space="preserve" font-family="AvenirNext-Medium" font-size="64.0" fill="#838686" transform="matrix(1.00, 0.00, -0.00, -1.00, 848.5, 256.0)">e</text><text xml:space="preserve" font-family="AvenirNext-Medium" font-size="64.0" fill="#838686" transform="matrix(1.00, 0.00, -0.00, -1.00, 885.2, 256.0)">d</text><text xml:space="preserve" font-family="AvenirNext-Medium" font-size="64.0" fill="#838686" transform="matrix(1.00, 0.00, -0.00, -1.00, 925.8, 256.0)">g</text><text xml:space="preserve" font-family="AvenirNext-Medium" font-size="64.0" fill="#838686" transform="matrix(1.00, 0.00, -0.00, -1.00, 966.3, 256.0)">e</text><text xml:space="preserve" font-family="AvenirNext-Medium" font-size="64.0" fill="#838686" transform="matrix(1.00, 0.00, -0.00, -1.00, 1003.0, 256.0)"> </text><text xml:space="preserve" font-family="AvenirNext-Medium" font-size="64.0" fill="#838686" transform="matrix(1.00, 0.00, -0.00, -1.00, 1019.0, 256.0)">w</text><text xml:space="preserve" font-family="AvenirNext-Medium" font-size="64.0" fill="#838686" transform="matrix(1.00, 0.00, -0.00, -1.00, 1068.4, 256.0)">i</text><text xml:space="preserve" font-family="AvenirNext-Medium" font-size="64.0" fill="#838686" transform="matrix(1.00, 0.00, -0.00, -1.00, 1085.0, 256.0)">l</text><text xml:space="preserve" font-family="AvenirNext-Medium" font-size="64.0" fill="#838686" transform="matrix(1.00, 0.00, -0.00, -1.00, 1101.6, 256.0)">l</text><text xml:space="preserve" font-family="AvenirNext-Medium" font-size="64.0" fill="#838686" transform="matrix(1.00, 0.00, -0.00, -1.00, 1118.3, 256.0)"> </text><text xml:space="preserve" font-family="AvenirNext-Medium" font-size="64.0" fill="#838686" transform="matrix(1.00, 0.00, -0.00, -1.00, 1134.3, 256.0)">b</text><text xml:space="preserve" font-family="AvenirNext-Medium" font-size="64.0" fill="#838686" transform="matrix(1.00, 0.00, -0.00, -1.00, 1175.0, 256.0)">e</text><text xml:space="preserve" font-family="AvenirNext-Medium" font-size="64.0" fill="#838686" transform="matrix(1.00, 0.00, -0.00, -1.00, 1211.7, 256.0)"> </text><text xml:space="preserve" font-family="AvenirNext-Medium" font-size="64.0" fill="#838686" transform="matrix(1.00, 0.00, -0.00, -1.00, 1227.7, 256.0)">u</text><text xml:space="preserve" font-family="AvenirNext-Medium" font-size="64.0" fill="#838686" transform="matrix(1.00, 0.00, -0.00, -1.00, 1264.9, 256.0)">s</text><text xml:space="preserve" font-family="AvenirNext-Medium" font-size="64.0" fill="#838686" transform="matrix(1.00, 0.00, -0.00, -1.00, 1293.3, 256.0)">e</text><text xml:space="preserve" font-family="AvenirNext-Medium" font-size="64.0" fill="#838686" transform="matrix(1.00, 0.00, -0.00, -1.00, 1330.0, 256.0)">d</text><text xml:space="preserve" font-family="AvenirNext-Medium" font-size="64.0" fill="#838686" transform="matrix(1.00, 0.00, -0.00, -1.00, 1370.6, 256.0)">.</text></g></svg>