<?xml version="1.0" encoding="UTF-8" standalone="no"?><svg xmlns="http://www.w3.org/2000/svg" xmlns:xlink="http://www.w3.org/1999/xlink" clip-rule="evenodd" stroke-miterlimit="4.00" viewBox="0 0 1920 1080"><desc>SVG generated by Keynote</desc><defs></defs><g transform="matrix(1.00, 0.00, -0.00, -1.00, 0.0, 1080.0)"><path d="M 0.0 1080.0 L 1920.0 1080.0 L 1920.0 0.0 L 0.0 0.0 Z M 0.0 1080.0 " fill="#FFFFFF"></path><path d="M 0.0 0.0 L 1800.0 0.0 " fill="none" stroke="#A6AAA9" stroke-width="2.00" transform="matrix(1.00, 0.00, 0.00, -1.00, 60.0, 970.0)"></path><text xml:space="preserve" font-family="DINAlternate-Bold" font-weight="bold" font-size="36.0" fill="#838686" transform="matrix(1.00, 0.00, -0.00, -1.00, 64.0, 992.0)">M</text><text xml:space="preserve" font-family="DINAlternate-Bold" font-weight="bold" font-size="36.0" fill="#838686" transform="matrix(1.00, 0.00, -0.00, -1.00, 93.1, 992.0)">A</text><text xml:space="preserve" font-family="DINAlternate-Bold" font-weight="bold" font-size="36.0" fill="#838686" transform="matrix(1.00, 0.00, -0.00, -1.00, 116.8, 992.0)">X</text><text xml:space="preserve" font-family="DINAlternate-Bold" font-weight="bold" font-size="36.0" fill="#838686" transform="matrix(1.00, 0.00, -0.00, -1.00, 137.9, 992.0)">I</text><text xml:space="preserve" font-family="DINAlternate-Bold" font-weight="bold" font-size="36.0" fill="#838686" transform="matrix(1.00, 0.00, -0.00, -1.00, 149.0, 992.0)">M</text><text xml:space="preserve" font-family="DINAlternate-Bold" font-weight="bold" font-size="36.0" fill="#838686" transform="matrix(1.00, 0.00, -0.00, -1.00, 178.1, 992.0)">I</text><text xml:space="preserve" font-family="DINAlternate-Bold" font-weight="bold" font-size="36.0" fill="#838686" transform="matrix(1.00, 0.00, -0.00, -1.00, 189.1, 992.0)">Z</text><text xml:space="preserve" font-family="DINAlternate-Bold" font-weight="bold" font-size="36.0" fill="#838686" transform="matrix(1.00, 0.00, -0.00, -1.00, 209.6, 992.0)">E</text><text xml:space="preserve" font-family="DINAlternate-Bold" font-weight="bold" font-size="36.0" fill="#838686" transform="matrix(1.00, 0.00, -0.00, -1.00, 231.4, 992.0)"> </text><text xml:space="preserve" font-family="DINAlternate-Bold" font-weight="bold" font-size="36.0" fill="#838686" transform="matrix(1.00, 0.00, -0.00, -1.00, 241.9, 992.0)">Y</text><text xml:space="preserve" font-family="DINAlternate-Bold" font-weight="bold" font-size="36.0" fill="#838686" transform="matrix(1.00, 0.00, -0.00, -1.00, 260.7, 992.0)">O</text><text xml:space="preserve" font-family="DINAlternate-Bold" font-weight="bold" font-size="36.0" fill="#838686" transform="matrix(1.00, 0.00, -0.00, -1.00, 284.5, 992.0)">U</text><text xml:space="preserve" font-family="DINAlternate-Bold" font-weight="bold" font-size="36.0" fill="#838686" transform="matrix(1.00, 0.00, -0.00, -1.00, 309.0, 992.0)">R</text><text xml:space="preserve" font-family="DINAlternate-Bold" font-weight="bold" font-size="36.0" fill="#838686" transform="matrix(1.00, 0.00, -0.00, -1.00, 332.7, 992.0)"> </text><text xml:space="preserve" font-family="DINAlternate-Bold" font-weight="bold" font-size="36.0" fill="#838686" transform="matrix(1.00, 0.00, -0.00, -1.00, 343.1, 992.0)">A</text><text xml:space="preserve" font-family="DINAlternate-Bold" font-weight="bold" font-size="36.0" fill="#838686" transform="matrix(1.00, 0.00, -0.00, -1.00, 366.9, 992.0)">B</text><text xml:space="preserve" font-family="DINAlternate-Bold" font-weight="bold" font-size="36.0" fill="#838686" transform="matrix(1.00, 0.00, -0.00, -1.00, 390.6, 992.0)">I</text><text xml:space="preserve" font-family="DINAlternate-Bold" font-weight="bold" font-size="36.0" fill="#838686" transform="matrix(1.00, 0.00, -0.00, -1.00, 401.7, 992.0)">L</text><text xml:space="preserve" font-family="DINAlternate-Bold" font-weight="bold" font-size="36.0" fill="#838686" transform="matrix(1.00, 0.00, -0.00, -1.00, 423.5, 992.0)">I</text><text xml:space="preserve" font-family="DINAlternate-Bold" font-weight="bold" font-size="36.0" fill="#838686" transform="matrix(1.00, 0.00, -0.00, -1.00, 434.6, 992.0)">T</text><text xml:space="preserve" font-family="DINAlternate-Bold" font-weight="bold" font-size="36.0" fill="#838686" transform="matrix(1.00, 0.00, -0.00, -1.00, 454.4, 992.0)">Y</text><text xml:space="preserve" font-family="DINAlternate-Bold" font-weight="bold" font-size="36.0" fill="#838686" transform="matrix(1.00, 0.00, -0.00, -1.00, 474.2, 992.0)"> </text><text xml:space="preserve" font-family="DINAlternate-Bold" font-weight="bold" font-size="36.0" fill="#838686" transform="matrix(1.00, 0.00, -0.00, -1.00, 484.6, 992.0)">T</text><text xml:space="preserve" font-family="DINAlternate-Bold" font-weight="bold" font-size="36.0" fill="#838686" transform="matrix(1.00, 0.00, -0.00, -1.00, 503.7, 992.0)">O</text><text xml:space="preserve" font-family="DINAlternate-Bold" font-weight="bold" font-size="36.0" fill="#838686" transform="matrix(1.00, 0.00, -0.00, -1.00, 527.5, 992.0)"> </text><text xml:space="preserve" font-family="DINAlternate-Bold" font-weight="bold" font-size="36.0" fill="#838686" transform="matrix(1.00, 0.00, -0.00, -1.00, 537.9, 992.0)">L</text><text xml:space="preserve" font-family="DINAlternate-Bold" font-weight="bold" font-size="36.0" fill="#838686" transform="matrix(1.00, 0.00, -0.00, -1.00, 559.7, 992.0)">E</text><text xml:space="preserve" font-family="DINAlternate-Bold" font-weight="bold" font-size="36.0" fill="#838686" transform="matrix(1.00, 0.00, -0.00, -1.00, 581.5, 992.0)">A</text><text xml:space="preserve" font-family="DINAlternate-Bold" font-weight="bold" font-size="36.0" fill="#838686" transform="matrix(1.00, 0.00, -0.00, -1.00, 605.3, 992.0)">R</text><text xml:space="preserve" font-family="DINAlternate-Bold" font-weight="bold" font-size="36.0" fill="#838686" transform="matrix(1.00, 0.00, -0.00, -1.00, 629.0, 992.0)">N</text><text xml:space="preserve" font-family="DINCondensed-Bold" font-weight="bold" font-size="72.0" fill="#34A4DA" transform="matrix(1.00, 0.00, -0.00, -1.00, 64.0, 855.0)">R</text><text xml:space="preserve" font-family="DINCondensed-Bold" font-weight="bold" font-size="72.0" fill="#34A4DA" transform="matrix(1.00, 0.00, -0.00, -1.00, 94.7, 855.0)">E</text><text xml:space="preserve" font-family="DINCondensed-Bold" font-weight="bold" font-size="72.0" fill="#34A4DA" transform="matrix(1.00, 0.00, -0.00, -1.00, 121.3, 855.0)">F</text><text xml:space="preserve" font-family="DINCondensed-Bold" font-weight="bold" font-size="72.0" fill="#34A4DA" transform="matrix(1.00, 0.00, -0.00, -1.00, 148.0, 855.0)">L</text><text xml:space="preserve" font-family="DINCondensed-Bold" font-weight="bold" font-size="72.0" fill="#34A4DA" transform="matrix(1.00, 0.00, -0.00, -1.00, 174.6, 855.0)">E</text><text xml:space="preserve" font-family="DINCondensed-Bold" font-weight="bold" font-size="72.0" fill="#34A4DA" transform="matrix(1.00, 0.00, -0.00, -1.00, 201.2, 855.0)">C</text><text xml:space="preserve" font-family="DINCondensed-Bold" font-weight="bold" font-size="72.0" fill="#34A4DA" transform="matrix(1.00, 0.00, -0.00, -1.00, 230.5, 855.0)">T</text><text xml:space="preserve" font-family="DINCondensed-Bold" font-weight="bold" font-size="72.0" fill="#34A4DA" transform="matrix(1.00, 0.00, -0.00, -1.00, 254.4, 855.0)">I</text><text xml:space="preserve" font-family="DINCondensed-Bold" font-weight="bold" font-size="72.0" fill="#34A4DA" transform="matrix(1.00, 0.00, -0.00, -1.00, 269.1, 855.0)">O</text><text xml:space="preserve" font-family="DINCondensed-Bold" font-weight="bold" font-size="72.0" fill="#34A4DA" transform="matrix(1.00, 0.00, -0.00, -1.00, 299.8, 855.0)">N</text><text xml:space="preserve" font-family="DINCondensed-Bold" font-weight="bold" font-size="72.0" fill="#34A4DA" transform="matrix(1.00, 0.00, -0.00, -1.00, 331.8, 855.0)">(</text><text xml:space="preserve" font-family="DINCondensed-Bold" font-weight="bold" font-size="72.0" fill="#34A4DA" transform="matrix(1.00, 0.00, -0.00, -1.00, 347.8, 855.0)">)</text><text xml:space="preserve" font-family="AvenirNext-Medium" font-size="64.0" fill="#838686" transform="matrix(1.00, 0.00, -0.00, -1.00, 285.0, 520.0)">D</text><text xml:space="preserve" font-family="AvenirNext-Medium" font-size="64.0" fill="#838686" transform="matrix(1.00, 0.00, -0.00, -1.00, 333.7, 520.0)">i</text><text xml:space="preserve" font-family="AvenirNext-Medium" font-size="64.0" fill="#838686" transform="matrix(1.00, 0.00, -0.00, -1.00, 350.3, 520.0)">s</text><text xml:space="preserve" font-family="AvenirNext-Medium" font-size="64.0" fill="#838686" transform="matrix(1.00, 0.00, -0.00, -1.00, 378.7, 520.0)">c</text><text xml:space="preserve" font-family="AvenirNext-Medium" font-size="64.0" fill="#838686" transform="matrix(1.00, 0.00, -0.00, -1.00, 410.3, 520.0)">u</text><text xml:space="preserve" font-family="AvenirNext-Medium" font-size="64.0" fill="#838686" transform="matrix(1.00, 0.00, -0.00, -1.00, 447.6, 520.0)">s</text><text xml:space="preserve" font-family="AvenirNext-Medium" font-size="64.0" fill="#838686" transform="matrix(1.00, 0.00, -0.00, -1.00, 476.0, 520.0)">s</text><text xml:space="preserve" font-family="AvenirNext-Medium" font-size="64.0" fill="#838686" transform="matrix(1.00, 0.00, -0.00, -1.00, 504.4, 520.0)"> </text><text xml:space="preserve" font-family="AvenirNext-Medium" font-size="64.0" fill="#838686" transform="matrix(1.00, 0.00, -0.00, -1.00, 520.4, 520.0)">i</text><text xml:space="preserve" font-family="AvenirNext-Medium" font-size="64.0" fill="#838686" transform="matrix(1.00, 0.00, -0.00, -1.00, 537.0, 520.0)">m</text><text xml:space="preserve" font-family="AvenirNext-Medium" font-size="64.0" fill="#838686" transform="matrix(1.00, 0.00, -0.00, -1.00, 593.7, 520.0)">p</text><text xml:space="preserve" font-family="AvenirNext-Medium" font-size="64.0" fill="#838686" transform="matrix(1.00, 0.00, -0.00, -1.00, 634.3, 520.0)">l</text><text xml:space="preserve" font-family="AvenirNext-Medium" font-size="64.0" fill="#838686" transform="matrix(1.00, 0.00, -0.00, -1.00, 651.0, 520.0)">e</text><text xml:space="preserve" font-family="AvenirNext-Medium" font-size="64.0" fill="#838686" transform="matrix(1.00, 0.00, -0.00, -1.00, 687.6, 520.0)">m</text><text xml:space="preserve" font-family="AvenirNext-Medium" font-size="64.0" fill="#838686" transform="matrix(1.00, 0.00, -0.00, -1.00, 744.4, 520.0)">e</text><text xml:space="preserve" font-family="AvenirNext-Medium" font-size="64.0" fill="#838686" transform="matrix(1.00, 0.00, -0.00, -1.00, 781.1, 520.0)">n</text><text xml:space="preserve" font-family="AvenirNext-Medium" font-size="64.0" fill="#838686" transform="matrix(1.00, 0.00, -0.00, -1.00, 818.3, 520.0)">t</text><text xml:space="preserve" font-family="AvenirNext-Medium" font-size="64.0" fill="#838686" transform="matrix(1.00, 0.00, -0.00, -1.00, 839.4, 520.0)">a</text><text xml:space="preserve" font-family="AvenirNext-Medium" font-size="64.0" fill="#838686" transform="matrix(1.00, 0.00, -0.00, -1.00, 873.4, 520.0)">t</text><text xml:space="preserve" font-family="AvenirNext-Medium" font-size="64.0" fill="#838686" transform="matrix(1.00, 0.00, -0.00, -1.00, 894.5, 520.0)">i</text><text xml:space="preserve" font-family="AvenirNext-Medium" font-size="64.0" fill="#838686" transform="matrix(1.00, 0.00, -0.00, -1.00, 911.0, 520.0)">o</text><text xml:space="preserve" font-family="AvenirNext-Medium" font-size="64.0" fill="#838686" transform="matrix(1.00, 0.00, -0.00, -1.00, 950.1, 520.0)">n</text><text xml:space="preserve" font-family="AvenirNext-Medium" font-size="64.0" fill="#838686" transform="matrix(1.00, 0.00, -0.00, -1.00, 987.3, 520.0)"> </text><text xml:space="preserve" font-family="AvenirNext-Medium" font-size="64.0" fill="#838686" transform="matrix(1.00, 0.00, -0.00, -1.00, 1003.3, 520.0)">i</text><text xml:space="preserve" font-family="AvenirNext-Medium" font-size="64.0" fill="#838686" transform="matrix(1.00, 0.00, -0.00, -1.00, 1019.9, 520.0)">d</text><text xml:space="preserve" font-family="AvenirNext-Medium" font-size="64.0" fill="#838686" transform="matrix(1.00, 0.00, -0.00, -1.00, 1060.6, 520.0)">e</text><text xml:space="preserve" font-family="AvenirNext-Medium" font-size="64.0" fill="#838686" transform="matrix(1.00, 0.00, -0.00, -1.00, 1096.8, 520.0)">a</text><text xml:space="preserve" font-family="AvenirNext-Medium" font-size="64.0" fill="#838686" transform="matrix(1.00, 0.00, -0.00, -1.00, 1131.5, 520.0)">s</text><text xml:space="preserve" font-family="AvenirNext-Medium" font-size="64.0" fill="#838686" transform="matrix(1.00, 0.00, -0.00, -1.00, 1159.9, 520.0)"> </text><text xml:space="preserve" font-family="AvenirNext-Medium" font-size="64.0" fill="#838686" transform="matrix(1.00, 0.00, -0.00, -1.00, 1175.9, 520.0)">w</text><text xml:space="preserve" font-family="AvenirNext-Medium" font-size="64.0" fill="#838686" transform="matrix(1.00, 0.00, -0.00, -1.00, 1225.4, 520.0)">i</text><text xml:space="preserve" font-family="AvenirNext-Medium" font-size="64.0" fill="#838686" transform="matrix(1.00, 0.00, -0.00, -1.00, 1242.0, 520.0)">t</text><text xml:space="preserve" font-family="AvenirNext-Medium" font-size="64.0" fill="#838686" transform="matrix(1.00, 0.00, -0.00, -1.00, 1263.0, 520.0)">h</text><text xml:space="preserve" font-family="AvenirNext-Medium" font-size="64.0" fill="#838686" transform="matrix(1.00, 0.00, -0.00, -1.00, 1300.4, 520.0)"> </text><text xml:space="preserve" font-family="AvenirNext-Medium" font-size="64.0" fill="#838686" transform="matrix(1.00, 0.00, -0.00, -1.00, 1316.4, 520.0)">c</text><text xml:space="preserve" font-family="AvenirNext-Medium" font-size="64.0" fill="#838686" transform="matrix(1.00, 0.00, -0.00, -1.00, 1348.0, 520.0)">o</text><text xml:space="preserve" font-family="AvenirNext-Medium" font-size="64.0" fill="#838686" transform="matrix(1.00, 0.00, -0.00, -1.00, 1387.1, 520.0)">l</text><text xml:space="preserve" font-family="AvenirNext-Medium" font-size="64.0" fill="#838686" transform="matrix(1.00, 0.00, -0.00, -1.00, 1403.7, 520.0)">l</text><text xml:space="preserve" font-family="AvenirNext-Medium" font-size="64.0" fill="#838686" transform="matrix(1.00, 0.00, -0.00, -1.00, 1420.4, 520.0)">e</text><text xml:space="preserve" font-family="AvenirNext-Medium" font-size="64.0" fill="#838686" transform="matrix(1.00, 0.00, -0.00, -1.00, 1456.6, 520.0)">a</text><text xml:space="preserve" font-family="AvenirNext-Medium" font-size="64.0" fill="#838686" transform="matrix(1.00, 0.00, -0.00, -1.00, 1491.3, 520.0)">g</text><text xml:space="preserve" font-family="AvenirNext-Medium" font-size="64.0" fill="#838686" transform="matrix(1.00, 0.00, -0.00, -1.00, 1531.8, 520.0)">u</text><text xml:space="preserve" font-family="AvenirNext-Medium" font-size="64.0" fill="#838686" transform="matrix(1.00, 0.00, -0.00, -1.00, 1569.0, 520.0)">e</text><text xml:space="preserve" font-family="AvenirNext-Medium" font-size="64.0" fill="#838686" transform="matrix(1.00, 0.00, -0.00, -1.00, 1605.7, 520.0)">s</text></g></svg>