<?xml version="1.0" encoding="UTF-8" standalone="no"?><svg xmlns="http://www.w3.org/2000/svg" xmlns:xlink="http://www.w3.org/1999/xlink" clip-rule="evenodd" stroke-miterlimit="4.00" viewBox="0 0 1466 214"><desc>SVG generated by Keynote</desc><defs></defs><g transform="matrix(1.00, 0.00, -0.00, -1.00, 0.0, 214.0)"><text xml:space="preserve" font-family="DINCondensed-Bold" font-weight="bold" font-size="290.9" fill="#34A4DA" transform="matrix(1.00, 0.00, -0.00, -1.00, -11.0, 3.0)">L</text><text xml:space="preserve" font-family="DINCondensed-Bold" font-weight="bold" font-size="290.9" fill="#34A4DA" transform="matrix(1.00, 0.00, -0.00, -1.00, 96.6, 3.0)">E</text><text xml:space="preserve" font-family="DINCondensed-Bold" font-weight="bold" font-size="290.9" fill="#34A4DA" transform="matrix(1.00, 0.00, -0.00, -1.00, 204.3, 3.0)">T</text><text xml:space="preserve" font-family="DINCondensed-Bold" font-weight="bold" font-size="290.9" fill="#34A4DA" transform="matrix(1.00, 0.00, -0.00, -1.00, 300.8, 3.0)">’</text><text xml:space="preserve" font-family="DINCondensed-Bold" font-weight="bold" font-size="290.9" fill="#34A4DA" transform="matrix(1.00, 0.00, -0.00, -1.00, 354.9, 3.0)">S</text><text xml:space="preserve" font-family="DINCondensed-Bold" font-weight="bold" font-size="290.9" fill="#34A4DA" transform="matrix(1.00, 0.00, -0.00, -1.00, 473.0, 3.0)"> </text><text xml:space="preserve" font-family="DINCondensed-Bold" font-weight="bold" font-size="290.9" fill="#34A4DA" transform="matrix(1.00, 0.00, -0.00, -1.00, 527.1, 3.0)">T</text><text xml:space="preserve" font-family="DINCondensed-Bold" font-weight="bold" font-size="290.9" fill="#34A4DA" transform="matrix(1.00, 0.00, -0.00, -1.00, 623.7, 3.0)">R</text><text xml:space="preserve" font-family="DINCondensed-Bold" font-weight="bold" font-size="290.9" fill="#34A4DA" transform="matrix(1.00, 0.00, -0.00, -1.00, 742.4, 3.0)">Y</text><text xml:space="preserve" font-family="DINCondensed-Bold" font-weight="bold" font-size="290.9" fill="#34A4DA" transform="matrix(1.00, 0.00, -0.00, -1.00, 855.2, 3.0)"> </text><text xml:space="preserve" font-family="DINCondensed-Bold" font-weight="bold" font-size="290.9" fill="#34A4DA" transform="matrix(1.00, 0.00, -0.00, -1.00, 909.3, 3.0)">I</text><text xml:space="preserve" font-family="DINCondensed-Bold" font-weight="bold" font-size="290.9" fill="#34A4DA" transform="matrix(1.00, 0.00, -0.00, -1.00, 968.7, 3.0)">T</text><text xml:space="preserve" font-family="DINCondensed-Bold" font-weight="bold" font-size="290.9" fill="#34A4DA" transform="matrix(1.00, 0.00, -0.00, -1.00, 1065.3, 3.0)"> </text><text xml:space="preserve" font-family="DINCondensed-Bold" font-weight="bold" font-size="290.9" fill="#34A4DA" transform="matrix(1.00, 0.00, -0.00, -1.00, 1119.4, 3.0)">O</text><text xml:space="preserve" font-family="DINCondensed-Bold" font-weight="bold" font-size="290.9" fill="#34A4DA" transform="matrix(1.00, 0.00, -0.00, -1.00, 1243.3, 3.0)">U</text><text xml:space="preserve" font-family="DINCondensed-Bold" font-weight="bold" font-size="290.9" fill="#34A4DA" transform="matrix(1.00, 0.00, -0.00, -1.00, 1367.2, 3.0)">T</text></g></svg>