<?xml version="1.0" encoding="UTF-8" standalone="no"?><svg xmlns="http://www.w3.org/2000/svg" xmlns:xlink="http://www.w3.org/1999/xlink" clip-rule="evenodd" stroke-miterlimit="4.00" viewBox="0 0 1920 1080"><desc>SVG generated by Keynote</desc><defs></defs><g transform="matrix(1.00, 0.00, -0.00, -1.00, 0.0, 1080.0)"><path d="M 0.0 1080.0 L 1920.0 1080.0 L 1920.0 0.0 L 0.0 0.0 Z M 0.0 1080.0 " fill="#FFFFFF"></path><path d="M 0.0 0.0 L 1800.0 0.0 " fill="none" stroke="#A6AAA9" stroke-width="2.00" transform="matrix(1.00, 0.00, 0.00, -1.00, 60.0, 970.0)"></path><text xml:space="preserve" font-family="DINAlternate-Bold" font-weight="bold" font-size="36.0" fill="#838686" transform="matrix(1.00, 0.00, -0.00, -1.00, 64.0, 992.0)">M</text><text xml:space="preserve" font-family="DINAlternate-Bold" font-weight="bold" font-size="36.0" fill="#838686" transform="matrix(1.00, 0.00, -0.00, -1.00, 93.1, 992.0)">A</text><text xml:space="preserve" font-family="DINAlternate-Bold" font-weight="bold" font-size="36.0" fill="#838686" transform="matrix(1.00, 0.00, -0.00, -1.00, 116.8, 992.0)">X</text><text xml:space="preserve" font-family="DINAlternate-Bold" font-weight="bold" font-size="36.0" fill="#838686" transform="matrix(1.00, 0.00, -0.00, -1.00, 137.9, 992.0)">I</text><text xml:space="preserve" font-family="DINAlternate-Bold" font-weight="bold" font-size="36.0" fill="#838686" transform="matrix(1.00, 0.00, -0.00, -1.00, 149.0, 992.0)">M</text><text xml:space="preserve" font-family="DINAlternate-Bold" font-weight="bold" font-size="36.0" fill="#838686" transform="matrix(1.00, 0.00, -0.00, -1.00, 178.1, 992.0)">I</text><text xml:space="preserve" font-family="DINAlternate-Bold" font-weight="bold" font-size="36.0" fill="#838686" transform="matrix(1.00, 0.00, -0.00, -1.00, 189.1, 992.0)">Z</text><text xml:space="preserve" font-family="DINAlternate-Bold" font-weight="bold" font-size="36.0" fill="#838686" transform="matrix(1.00, 0.00, -0.00, -1.00, 209.6, 992.0)">E</text><text xml:space="preserve" font-family="DINAlternate-Bold" font-weight="bold" font-size="36.0" fill="#838686" transform="matrix(1.00, 0.00, -0.00, -1.00, 231.4, 992.0)"> </text><text xml:space="preserve" font-family="DINAlternate-Bold" font-weight="bold" font-size="36.0" fill="#838686" transform="matrix(1.00, 0.00, -0.00, -1.00, 241.9, 992.0)">Y</text><text xml:space="preserve" font-family="DINAlternate-Bold" font-weight="bold" font-size="36.0" fill="#838686" transform="matrix(1.00, 0.00, -0.00, -1.00, 260.7, 992.0)">O</text><text xml:space="preserve" font-family="DINAlternate-Bold" font-weight="bold" font-size="36.0" fill="#838686" transform="matrix(1.00, 0.00, -0.00, -1.00, 284.5, 992.0)">U</text><text xml:space="preserve" font-family="DINAlternate-Bold" font-weight="bold" font-size="36.0" fill="#838686" transform="matrix(1.00, 0.00, -0.00, -1.00, 309.0, 992.0)">R</text><text xml:space="preserve" font-family="DINAlternate-Bold" font-weight="bold" font-size="36.0" fill="#838686" transform="matrix(1.00, 0.00, -0.00, -1.00, 332.7, 992.0)"> </text><text xml:space="preserve" font-family="DINAlternate-Bold" font-weight="bold" font-size="36.0" fill="#838686" transform="matrix(1.00, 0.00, -0.00, -1.00, 343.1, 992.0)">A</text><text xml:space="preserve" font-family="DINAlternate-Bold" font-weight="bold" font-size="36.0" fill="#838686" transform="matrix(1.00, 0.00, -0.00, -1.00, 366.9, 992.0)">B</text><text xml:space="preserve" font-family="DINAlternate-Bold" font-weight="bold" font-size="36.0" fill="#838686" transform="matrix(1.00, 0.00, -0.00, -1.00, 390.6, 992.0)">I</text><text xml:space="preserve" font-family="DINAlternate-Bold" font-weight="bold" font-size="36.0" fill="#838686" transform="matrix(1.00, 0.00, -0.00, -1.00, 401.7, 992.0)">L</text><text xml:space="preserve" font-family="DINAlternate-Bold" font-weight="bold" font-size="36.0" fill="#838686" transform="matrix(1.00, 0.00, -0.00, -1.00, 423.5, 992.0)">I</text><text xml:space="preserve" font-family="DINAlternate-Bold" font-weight="bold" font-size="36.0" fill="#838686" transform="matrix(1.00, 0.00, -0.00, -1.00, 434.6, 992.0)">T</text><text xml:space="preserve" font-family="DINAlternate-Bold" font-weight="bold" font-size="36.0" fill="#838686" transform="matrix(1.00, 0.00, -0.00, -1.00, 454.4, 992.0)">Y</text><text xml:space="preserve" font-family="DINAlternate-Bold" font-weight="bold" font-size="36.0" fill="#838686" transform="matrix(1.00, 0.00, -0.00, -1.00, 474.2, 992.0)"> </text><text xml:space="preserve" font-family="DINAlternate-Bold" font-weight="bold" font-size="36.0" fill="#838686" transform="matrix(1.00, 0.00, -0.00, -1.00, 484.6, 992.0)">T</text><text xml:space="preserve" font-family="DINAlternate-Bold" font-weight="bold" font-size="36.0" fill="#838686" transform="matrix(1.00, 0.00, -0.00, -1.00, 503.7, 992.0)">O</text><text xml:space="preserve" font-family="DINAlternate-Bold" font-weight="bold" font-size="36.0" fill="#838686" transform="matrix(1.00, 0.00, -0.00, -1.00, 527.5, 992.0)"> </text><text xml:space="preserve" font-family="DINAlternate-Bold" font-weight="bold" font-size="36.0" fill="#838686" transform="matrix(1.00, 0.00, -0.00, -1.00, 537.9, 992.0)">L</text><text xml:space="preserve" font-family="DINAlternate-Bold" font-weight="bold" font-size="36.0" fill="#838686" transform="matrix(1.00, 0.00, -0.00, -1.00, 559.7, 992.0)">E</text><text xml:space="preserve" font-family="DINAlternate-Bold" font-weight="bold" font-size="36.0" fill="#838686" transform="matrix(1.00, 0.00, -0.00, -1.00, 581.5, 992.0)">A</text><text xml:space="preserve" font-family="DINAlternate-Bold" font-weight="bold" font-size="36.0" fill="#838686" transform="matrix(1.00, 0.00, -0.00, -1.00, 605.3, 992.0)">R</text><text xml:space="preserve" font-family="DINAlternate-Bold" font-weight="bold" font-size="36.0" fill="#838686" transform="matrix(1.00, 0.00, -0.00, -1.00, 629.0, 992.0)">N</text><text xml:space="preserve" font-family="AvenirNext-Medium" font-size="64.0" fill="#838686" transform="matrix(1.00, 0.00, -0.00, -1.00, 227.0, 563.0)">A</text><text xml:space="preserve" font-family="AvenirNext-Medium" font-size="64.0" fill="#838686" transform="matrix(1.00, 0.00, -0.00, -1.00, 272.5, 563.0)">d</text><text xml:space="preserve" font-family="AvenirNext-Medium" font-size="64.0" fill="#838686" transform="matrix(1.00, 0.00, -0.00, -1.00, 313.1, 563.0)">u</text><text xml:space="preserve" font-family="AvenirNext-Medium" font-size="64.0" fill="#838686" transform="matrix(1.00, 0.00, -0.00, -1.00, 350.4, 563.0)">l</text><text xml:space="preserve" font-family="AvenirNext-Medium" font-size="64.0" fill="#838686" transform="matrix(1.00, 0.00, -0.00, -1.00, 367.0, 563.0)">t</text><text xml:space="preserve" font-family="AvenirNext-Medium" font-size="64.0" fill="#838686" transform="matrix(1.00, 0.00, -0.00, -1.00, 388.1, 563.0)">s</text><text xml:space="preserve" font-family="AvenirNext-Medium" font-size="64.0" fill="#838686" transform="matrix(1.00, 0.00, -0.00, -1.00, 416.5, 563.0)"> </text><text xml:space="preserve" font-family="AvenirNext-Medium" font-size="64.0" fill="#838686" transform="matrix(1.00, 0.00, -0.00, -1.00, 432.5, 563.0)">c</text><text xml:space="preserve" font-family="AvenirNext-Medium" font-size="64.0" fill="#838686" transform="matrix(1.00, 0.00, -0.00, -1.00, 464.1, 563.0)">a</text><text xml:space="preserve" font-family="AvenirNext-Medium" font-size="64.0" fill="#838686" transform="matrix(1.00, 0.00, -0.00, -1.00, 498.8, 563.0)">n</text><text xml:space="preserve" font-family="AvenirNext-Medium" font-size="64.0" fill="#838686" transform="matrix(1.00, 0.00, -0.00, -1.00, 536.1, 563.0)">n</text><text xml:space="preserve" font-family="AvenirNext-Medium" font-size="64.0" fill="#838686" transform="matrix(1.00, 0.00, -0.00, -1.00, 573.3, 563.0)">o</text><text xml:space="preserve" font-family="AvenirNext-Medium" font-size="64.0" fill="#838686" transform="matrix(1.00, 0.00, -0.00, -1.00, 612.3, 563.0)">t</text><text xml:space="preserve" font-family="AvenirNext-Medium" font-size="64.0" fill="#838686" transform="matrix(1.00, 0.00, -0.00, -1.00, 633.4, 563.0)"> </text><text xml:space="preserve" font-family="AvenirNext-Medium" font-size="64.0" fill="#838686" transform="matrix(1.00, 0.00, -0.00, -1.00, 649.4, 563.0)">b</text><text xml:space="preserve" font-family="AvenirNext-Medium" font-size="64.0" fill="#838686" transform="matrix(1.00, 0.00, -0.00, -1.00, 690.1, 563.0)">e</text><text xml:space="preserve" font-family="AvenirNext-Medium" font-size="64.0" fill="#838686" transform="matrix(1.00, 0.00, -0.00, -1.00, 726.8, 563.0)"> </text><text xml:space="preserve" font-family="AvenirNext-Medium" font-size="64.0" fill="#838686" transform="matrix(1.00, 0.00, -0.00, -1.00, 742.8, 563.0)">m</text><text xml:space="preserve" font-family="AvenirNext-Medium" font-size="64.0" fill="#838686" transform="matrix(1.00, 0.00, -0.00, -1.00, 799.5, 563.0)">a</text><text xml:space="preserve" font-family="AvenirNext-Medium" font-size="64.0" fill="#838686" transform="matrix(1.00, 0.00, -0.00, -1.00, 834.2, 563.0)">d</text><text xml:space="preserve" font-family="AvenirNext-Medium" font-size="64.0" fill="#838686" transform="matrix(1.00, 0.00, -0.00, -1.00, 874.9, 563.0)">e</text><text xml:space="preserve" font-family="AvenirNext-Medium" font-size="64.0" fill="#838686" transform="matrix(1.00, 0.00, -0.00, -1.00, 911.5, 563.0)"> </text><text xml:space="preserve" font-family="AvenirNext-Medium" font-size="64.0" fill="#838686" transform="matrix(1.00, 0.00, -0.00, -1.00, 927.5, 563.0)">t</text><text xml:space="preserve" font-family="AvenirNext-Medium" font-size="64.0" fill="#838686" transform="matrix(1.00, 0.00, -0.00, -1.00, 948.6, 563.0)">o</text><text xml:space="preserve" font-family="AvenirNext-Medium" font-size="64.0" fill="#838686" transform="matrix(1.00, 0.00, -0.00, -1.00, 987.6, 563.0)"> </text><text xml:space="preserve" font-family="AvenirNext-Medium" font-size="64.0" fill="#838686" transform="matrix(1.00, 0.00, -0.00, -1.00, 1003.6, 563.0)">l</text><text xml:space="preserve" font-family="AvenirNext-Medium" font-size="64.0" fill="#838686" transform="matrix(1.00, 0.00, -0.00, -1.00, 1020.3, 563.0)">e</text><text xml:space="preserve" font-family="AvenirNext-Medium" font-size="64.0" fill="#838686" transform="matrix(1.00, 0.00, -0.00, -1.00, 1056.6, 563.0)">a</text><text xml:space="preserve" font-family="AvenirNext-Medium" font-size="64.0" fill="#838686" transform="matrix(1.00, 0.00, -0.00, -1.00, 1091.3, 563.0)">r</text><text xml:space="preserve" font-family="AvenirNext-Medium" font-size="64.0" fill="#838686" transform="matrix(1.00, 0.00, -0.00, -1.00, 1114.4, 563.0)">n</text><text xml:space="preserve" font-family="AvenirNext-Medium" font-size="64.0" fill="#838686" transform="matrix(1.00, 0.00, -0.00, -1.00, 1151.7, 563.0)">.</text><text xml:space="preserve" font-family="AvenirNext-Medium" font-size="64.0" fill="#838686" transform="matrix(1.00, 0.00, -0.00, -1.00, 1166.4, 563.0)"> </text><text xml:space="preserve" font-family="AvenirNext-Medium" font-size="64.0" fill="#838686" transform="matrix(1.00, 0.00, -0.00, -1.00, 1180.9, 563.0)">T</text><text xml:space="preserve" font-family="AvenirNext-Medium" font-size="64.0" fill="#838686" transform="matrix(1.00, 0.00, -0.00, -1.00, 1216.1, 563.0)">h</text><text xml:space="preserve" font-family="AvenirNext-Medium" font-size="64.0" fill="#838686" transform="matrix(1.00, 0.00, -0.00, -1.00, 1253.5, 563.0)">e</text><text xml:space="preserve" font-family="AvenirNext-Medium" font-size="64.0" fill="#838686" transform="matrix(1.00, 0.00, -0.00, -1.00, 1290.2, 563.0)">y</text><text xml:space="preserve" font-family="AvenirNext-Medium" font-size="64.0" fill="#838686" transform="matrix(1.00, 0.00, -0.00, -1.00, 1322.4, 563.0)"> </text><text xml:space="preserve" font-family="AvenirNext-Medium" font-size="64.0" fill="#838686" transform="matrix(1.00, 0.00, -0.00, -1.00, 1338.4, 563.0)">w</text><text xml:space="preserve" font-family="AvenirNext-Medium" font-size="64.0" fill="#838686" transform="matrix(1.00, 0.00, -0.00, -1.00, 1387.9, 563.0)">i</text><text xml:space="preserve" font-family="AvenirNext-Medium" font-size="64.0" fill="#838686" transform="matrix(1.00, 0.00, -0.00, -1.00, 1404.5, 563.0)">l</text><text xml:space="preserve" font-family="AvenirNext-Medium" font-size="64.0" fill="#838686" transform="matrix(1.00, 0.00, -0.00, -1.00, 1421.1, 563.0)">l</text><text xml:space="preserve" font-family="AvenirNext-Medium" font-size="64.0" fill="#838686" transform="matrix(1.00, 0.00, -0.00, -1.00, 1437.8, 563.0)"> </text><text xml:space="preserve" font-family="AvenirNext-Medium" font-size="64.0" fill="#838686" transform="matrix(1.00, 0.00, -0.00, -1.00, 1453.8, 563.0)">o</text><text xml:space="preserve" font-family="AvenirNext-Medium" font-size="64.0" fill="#838686" transform="matrix(1.00, 0.00, -0.00, -1.00, 1492.8, 563.0)">n</text><text xml:space="preserve" font-family="AvenirNext-Medium" font-size="64.0" fill="#838686" transform="matrix(1.00, 0.00, -0.00, -1.00, 1530.0, 563.0)">l</text><text xml:space="preserve" font-family="AvenirNext-Medium" font-size="64.0" fill="#838686" transform="matrix(1.00, 0.00, -0.00, -1.00, 1546.7, 563.0)">y</text><text xml:space="preserve" font-family="AvenirNext-Medium" font-size="64.0" fill="#838686" transform="matrix(1.00, 0.00, -0.00, -1.00, 1578.9, 563.0)"> </text><text xml:space="preserve" font-family="AvenirNext-Medium" font-size="64.0" fill="#838686" transform="matrix(1.00, 0.00, -0.00, -1.00, 227.0, 476.0)">l</text><text xml:space="preserve" font-family="AvenirNext-Medium" font-size="64.0" fill="#838686" transform="matrix(1.00, 0.00, -0.00, -1.00, 243.6, 476.0)">e</text><text xml:space="preserve" font-family="AvenirNext-Medium" font-size="64.0" fill="#838686" transform="matrix(1.00, 0.00, -0.00, -1.00, 279.9, 476.0)">a</text><text xml:space="preserve" font-family="AvenirNext-Medium" font-size="64.0" fill="#838686" transform="matrix(1.00, 0.00, -0.00, -1.00, 314.6, 476.0)">r</text><text xml:space="preserve" font-family="AvenirNext-Medium" font-size="64.0" fill="#838686" transform="matrix(1.00, 0.00, -0.00, -1.00, 337.8, 476.0)">n</text><text xml:space="preserve" font-family="AvenirNext-Medium" font-size="64.0" fill="#838686" transform="matrix(1.00, 0.00, -0.00, -1.00, 375.0, 476.0)"> </text><text xml:space="preserve" font-family="AvenirNext-Medium" font-size="64.0" fill="#838686" transform="matrix(1.00, 0.00, -0.00, -1.00, 391.0, 476.0)">w</text><text xml:space="preserve" font-family="AvenirNext-Medium" font-size="64.0" fill="#838686" transform="matrix(1.00, 0.00, -0.00, -1.00, 440.5, 476.0)">h</text><text xml:space="preserve" font-family="AvenirNext-Medium" font-size="64.0" fill="#838686" transform="matrix(1.00, 0.00, -0.00, -1.00, 477.9, 476.0)">e</text><text xml:space="preserve" font-family="AvenirNext-Medium" font-size="64.0" fill="#838686" transform="matrix(1.00, 0.00, -0.00, -1.00, 514.6, 476.0)">n</text><text xml:space="preserve" font-family="AvenirNext-Medium" font-size="64.0" fill="#838686" transform="matrix(1.00, 0.00, -0.00, -1.00, 551.8, 476.0)"> </text><text xml:space="preserve" font-family="AvenirNext-Medium" font-size="64.0" fill="#838686" transform="matrix(1.00, 0.00, -0.00, -1.00, 567.8, 476.0)">t</text><text xml:space="preserve" font-family="AvenirNext-Medium" font-size="64.0" fill="#838686" transform="matrix(1.00, 0.00, -0.00, -1.00, 588.9, 476.0)">h</text><text xml:space="preserve" font-family="AvenirNext-Medium" font-size="64.0" fill="#838686" transform="matrix(1.00, 0.00, -0.00, -1.00, 626.2, 476.0)">e</text><text xml:space="preserve" font-family="AvenirNext-Medium" font-size="64.0" fill="#838686" transform="matrix(1.00, 0.00, -0.00, -1.00, 662.9, 476.0)">y</text><text xml:space="preserve" font-family="AvenirNext-Medium" font-size="64.0" fill="#838686" transform="matrix(1.00, 0.00, -0.00, -1.00, 695.2, 476.0)"> </text><text xml:space="preserve" font-family="AvenirNext-Medium" font-size="64.0" fill="#838686" transform="matrix(1.00, 0.00, -0.00, -1.00, 711.2, 476.0)">a</text><text xml:space="preserve" font-family="AvenirNext-Medium" font-size="64.0" fill="#838686" transform="matrix(1.00, 0.00, -0.00, -1.00, 745.8, 476.0)">r</text><text xml:space="preserve" font-family="AvenirNext-Medium" font-size="64.0" fill="#838686" transform="matrix(1.00, 0.00, -0.00, -1.00, 767.9, 476.0)">e</text><text xml:space="preserve" font-family="AvenirNext-Medium" font-size="64.0" fill="#838686" transform="matrix(1.00, 0.00, -0.00, -1.00, 804.5, 476.0)"> </text><text xml:space="preserve" font-family="AvenirNext-Medium" font-size="64.0" fill="#838686" transform="matrix(1.00, 0.00, -0.00, -1.00, 820.5, 476.0)">i</text><text xml:space="preserve" font-family="AvenirNext-Medium" font-size="64.0" fill="#838686" transform="matrix(1.00, 0.00, -0.00, -1.00, 837.1, 476.0)">n</text><text xml:space="preserve" font-family="AvenirNext-Medium" font-size="64.0" fill="#838686" transform="matrix(1.00, 0.00, -0.00, -1.00, 874.4, 476.0)">t</text><text xml:space="preserve" font-family="AvenirNext-Medium" font-size="64.0" fill="#838686" transform="matrix(1.00, 0.00, -0.00, -1.00, 895.4, 476.0)">e</text><text xml:space="preserve" font-family="AvenirNext-Medium" font-size="64.0" fill="#838686" transform="matrix(1.00, 0.00, -0.00, -1.00, 932.1, 476.0)">r</text><text xml:space="preserve" font-family="AvenirNext-Medium" font-size="64.0" fill="#838686" transform="matrix(1.00, 0.00, -0.00, -1.00, 955.3, 476.0)">n</text><text xml:space="preserve" font-family="AvenirNext-Medium" font-size="64.0" fill="#838686" transform="matrix(1.00, 0.00, -0.00, -1.00, 992.5, 476.0)">a</text><text xml:space="preserve" font-family="AvenirNext-Medium" font-size="64.0" fill="#838686" transform="matrix(1.00, 0.00, -0.00, -1.00, 1027.2, 476.0)">l</text><text xml:space="preserve" font-family="AvenirNext-Medium" font-size="64.0" fill="#838686" transform="matrix(1.00, 0.00, -0.00, -1.00, 1043.8, 476.0)">l</text><text xml:space="preserve" font-family="AvenirNext-Medium" font-size="64.0" fill="#838686" transform="matrix(1.00, 0.00, -0.00, -1.00, 1060.5, 476.0)">y</text><text xml:space="preserve" font-family="AvenirNext-Medium" font-size="64.0" fill="#838686" transform="matrix(1.00, 0.00, -0.00, -1.00, 1092.7, 476.0)"> </text><text xml:space="preserve" font-family="AvenirNext-Medium" font-size="64.0" fill="#838686" transform="matrix(1.00, 0.00, -0.00, -1.00, 1108.7, 476.0)">m</text><text xml:space="preserve" font-family="AvenirNext-Medium" font-size="64.0" fill="#838686" transform="matrix(1.00, 0.00, -0.00, -1.00, 1165.5, 476.0)">o</text><text xml:space="preserve" font-family="AvenirNext-Medium" font-size="64.0" fill="#838686" transform="matrix(1.00, 0.00, -0.00, -1.00, 1204.5, 476.0)">t</text><text xml:space="preserve" font-family="AvenirNext-Medium" font-size="64.0" fill="#838686" transform="matrix(1.00, 0.00, -0.00, -1.00, 1225.6, 476.0)">i</text><text xml:space="preserve" font-family="AvenirNext-Medium" font-size="64.0" fill="#838686" transform="matrix(1.00, 0.00, -0.00, -1.00, 1242.2, 476.0)">v</text><text xml:space="preserve" font-family="AvenirNext-Medium" font-size="64.0" fill="#838686" transform="matrix(1.00, 0.00, -0.00, -1.00, 1274.4, 476.0)">a</text><text xml:space="preserve" font-family="AvenirNext-Medium" font-size="64.0" fill="#838686" transform="matrix(1.00, 0.00, -0.00, -1.00, 1308.5, 476.0)">t</text><text xml:space="preserve" font-family="AvenirNext-Medium" font-size="64.0" fill="#838686" transform="matrix(1.00, 0.00, -0.00, -1.00, 1329.5, 476.0)">e</text><text xml:space="preserve" font-family="AvenirNext-Medium" font-size="64.0" fill="#838686" transform="matrix(1.00, 0.00, -0.00, -1.00, 1366.2, 476.0)">d</text><text xml:space="preserve" font-family="AvenirNext-Medium" font-size="64.0" fill="#838686" transform="matrix(1.00, 0.00, -0.00, -1.00, 1406.8, 476.0)"> </text><text xml:space="preserve" font-family="AvenirNext-Medium" font-size="64.0" fill="#838686" transform="matrix(1.00, 0.00, -0.00, -1.00, 1422.8, 476.0)">t</text><text xml:space="preserve" font-family="AvenirNext-Medium" font-size="64.0" fill="#838686" transform="matrix(1.00, 0.00, -0.00, -1.00, 1443.9, 476.0)">o</text><text xml:space="preserve" font-family="AvenirNext-Medium" font-size="64.0" fill="#838686" transform="matrix(1.00, 0.00, -0.00, -1.00, 1482.9, 476.0)"> </text><text xml:space="preserve" font-family="AvenirNext-Medium" font-size="64.0" fill="#838686" transform="matrix(1.00, 0.00, -0.00, -1.00, 1498.9, 476.0)">d</text><text xml:space="preserve" font-family="AvenirNext-Medium" font-size="64.0" fill="#838686" transform="matrix(1.00, 0.00, -0.00, -1.00, 1539.6, 476.0)">o</text><text xml:space="preserve" font-family="AvenirNext-Medium" font-size="64.0" fill="#838686" transform="matrix(1.00, 0.00, -0.00, -1.00, 1578.6, 476.0)"> </text><text xml:space="preserve" font-family="AvenirNext-Medium" font-size="64.0" fill="#838686" transform="matrix(1.00, 0.00, -0.00, -1.00, 1594.6, 476.0)">s</text><text xml:space="preserve" font-family="AvenirNext-Medium" font-size="64.0" fill="#838686" transform="matrix(1.00, 0.00, -0.00, -1.00, 1623.0, 476.0)">o</text><text xml:space="preserve" font-family="AvenirNext-Medium" font-size="64.0" fill="#838686" transform="matrix(1.00, 0.00, -0.00, -1.00, 1661.3, 476.0)">.</text><text xml:space="preserve" font-family="DINCondensed-Bold" font-weight="bold" font-size="72.0" fill="#34A4DA" transform="matrix(1.00, 0.00, -0.00, -1.00, 64.0, 855.0)">A</text><text xml:space="preserve" font-family="DINCondensed-Bold" font-weight="bold" font-size="72.0" fill="#34A4DA" transform="matrix(1.00, 0.00, -0.00, -1.00, 93.3, 855.0)">D</text><text xml:space="preserve" font-family="DINCondensed-Bold" font-weight="bold" font-size="72.0" fill="#34A4DA" transform="matrix(1.00, 0.00, -0.00, -1.00, 124.0, 855.0)">U</text><text xml:space="preserve" font-family="DINCondensed-Bold" font-weight="bold" font-size="72.0" fill="#34A4DA" transform="matrix(1.00, 0.00, -0.00, -1.00, 154.6, 855.0)">L</text><text xml:space="preserve" font-family="DINCondensed-Bold" font-weight="bold" font-size="72.0" fill="#34A4DA" transform="matrix(1.00, 0.00, -0.00, -1.00, 176.0, 855.0)">T</text><text xml:space="preserve" font-family="DINCondensed-Bold" font-weight="bold" font-size="72.0" fill="#34A4DA" transform="matrix(1.00, 0.00, -0.00, -1.00, 199.9, 855.0)"> </text><text xml:space="preserve" font-family="DINCondensed-Bold" font-weight="bold" font-size="72.0" fill="#34A4DA" transform="matrix(1.00, 0.00, -0.00, -1.00, 213.3, 855.0)">L</text><text xml:space="preserve" font-family="DINCondensed-Bold" font-weight="bold" font-size="72.0" fill="#34A4DA" transform="matrix(1.00, 0.00, -0.00, -1.00, 239.9, 855.0)">E</text><text xml:space="preserve" font-family="DINCondensed-Bold" font-weight="bold" font-size="72.0" fill="#34A4DA" transform="matrix(1.00, 0.00, -0.00, -1.00, 266.5, 855.0)">A</text><text xml:space="preserve" font-family="DINCondensed-Bold" font-weight="bold" font-size="72.0" fill="#34A4DA" transform="matrix(1.00, 0.00, -0.00, -1.00, 295.8, 855.0)">R</text><text xml:space="preserve" font-family="DINCondensed-Bold" font-weight="bold" font-size="72.0" fill="#34A4DA" transform="matrix(1.00, 0.00, -0.00, -1.00, 326.5, 855.0)">N</text><text xml:space="preserve" font-family="DINCondensed-Bold" font-weight="bold" font-size="72.0" fill="#34A4DA" transform="matrix(1.00, 0.00, -0.00, -1.00, 358.5, 855.0)">I</text><text xml:space="preserve" font-family="DINCondensed-Bold" font-weight="bold" font-size="72.0" fill="#34A4DA" transform="matrix(1.00, 0.00, -0.00, -1.00, 373.2, 855.0)">N</text><text xml:space="preserve" font-family="DINCondensed-Bold" font-weight="bold" font-size="72.0" fill="#34A4DA" transform="matrix(1.00, 0.00, -0.00, -1.00, 405.1, 855.0)">G</text><text xml:space="preserve" font-family="DINCondensed-Bold" font-weight="bold" font-size="72.0" fill="#34A4DA" transform="matrix(1.00, 0.00, -0.00, -1.00, 435.8, 855.0)"> </text><text xml:space="preserve" font-family="DINCondensed-Bold" font-weight="bold" font-size="72.0" fill="#34A4DA" transform="matrix(1.00, 0.00, -0.00, -1.00, 449.2, 855.0)">P</text><text xml:space="preserve" font-family="DINCondensed-Bold" font-weight="bold" font-size="72.0" fill="#34A4DA" transform="matrix(1.00, 0.00, -0.00, -1.00, 478.5, 855.0)">R</text><text xml:space="preserve" font-family="DINCondensed-Bold" font-weight="bold" font-size="72.0" fill="#34A4DA" transform="matrix(1.00, 0.00, -0.00, -1.00, 509.2, 855.0)">I</text><text xml:space="preserve" font-family="DINCondensed-Bold" font-weight="bold" font-size="72.0" fill="#34A4DA" transform="matrix(1.00, 0.00, -0.00, -1.00, 523.9, 855.0)">N</text><text xml:space="preserve" font-family="DINCondensed-Bold" font-weight="bold" font-size="72.0" fill="#34A4DA" transform="matrix(1.00, 0.00, -0.00, -1.00, 555.8, 855.0)">C</text><text xml:space="preserve" font-family="DINCondensed-Bold" font-weight="bold" font-size="72.0" fill="#34A4DA" transform="matrix(1.00, 0.00, -0.00, -1.00, 585.1, 855.0)">I</text><text xml:space="preserve" font-family="DINCondensed-Bold" font-weight="bold" font-size="72.0" fill="#34A4DA" transform="matrix(1.00, 0.00, -0.00, -1.00, 599.8, 855.0)">P</text><text xml:space="preserve" font-family="DINCondensed-Bold" font-weight="bold" font-size="72.0" fill="#34A4DA" transform="matrix(1.00, 0.00, -0.00, -1.00, 629.1, 855.0)">L</text><text xml:space="preserve" font-family="DINCondensed-Bold" font-weight="bold" font-size="72.0" fill="#34A4DA" transform="matrix(1.00, 0.00, -0.00, -1.00, 655.8, 855.0)">E</text><text xml:space="preserve" font-family="DINCondensed-Bold" font-weight="bold" font-size="72.0" fill="#34A4DA" transform="matrix(1.00, 0.00, -0.00, -1.00, 682.4, 855.0)">S</text></g></svg>