<?xml version="1.0" encoding="UTF-8" standalone="no"?><svg xmlns="http://www.w3.org/2000/svg" xmlns:xlink="http://www.w3.org/1999/xlink" clip-rule="evenodd" stroke-miterlimit="4.00" viewBox="0 0 1920 1080"><desc>SVG generated by Keynote</desc><defs></defs><g transform="matrix(1.00, 0.00, -0.00, -1.00, 0.0, 1080.0)"><path d="M 0.0 1080.0 L 1920.0 1080.0 L 1920.0 0.0 L 0.0 0.0 Z M 0.0 1080.0 " fill="#FFFFFF"></path><path d="M 0.0 0.0 L 1800.0 0.0 " fill="none" stroke="#A6AAA9" stroke-width="4.00" transform="matrix(1.00, 0.00, 0.00, -1.00, 60.0, 978.7)"></path><text xml:space="preserve" font-family="DINCondensed-Bold" font-weight="bold" font-size="291.0" fill="#34A4DA" transform="matrix(1.00, 0.00, -0.00, -1.00, 47.0, 482.0)">A</text><text xml:space="preserve" font-family="DINCondensed-Bold" font-weight="bold" font-size="291.0" fill="#34A4DA" transform="matrix(1.00, 0.00, -0.00, -1.00, 165.4, 482.0)">D</text><text xml:space="preserve" font-family="DINCondensed-Bold" font-weight="bold" font-size="291.0" fill="#34A4DA" transform="matrix(1.00, 0.00, -0.00, -1.00, 289.4, 482.0)">U</text><text xml:space="preserve" font-family="DINCondensed-Bold" font-weight="bold" font-size="291.0" fill="#34A4DA" transform="matrix(1.00, 0.00, -0.00, -1.00, 413.4, 482.0)">L</text><text xml:space="preserve" font-family="DINCondensed-Bold" font-weight="bold" font-size="291.0" fill="#34A4DA" transform="matrix(1.00, 0.00, -0.00, -1.00, 499.5, 482.0)">T</text><text xml:space="preserve" font-family="DINCondensed-Bold" font-weight="bold" font-size="291.0" fill="#34A4DA" transform="matrix(1.00, 0.00, -0.00, -1.00, 650.2, 482.0)">L</text><text xml:space="preserve" font-family="DINCondensed-Bold" font-weight="bold" font-size="291.0" fill="#34A4DA" transform="matrix(1.00, 0.00, -0.00, -1.00, 757.9, 482.0)">E</text><text xml:space="preserve" font-family="DINCondensed-Bold" font-weight="bold" font-size="291.0" fill="#34A4DA" transform="matrix(1.00, 0.00, -0.00, -1.00, 865.6, 482.0)">A</text><text xml:space="preserve" font-family="DINCondensed-Bold" font-weight="bold" font-size="291.0" fill="#34A4DA" transform="matrix(1.00, 0.00, -0.00, -1.00, 984.0, 482.0)">R</text><text xml:space="preserve" font-family="DINCondensed-Bold" font-weight="bold" font-size="291.0" fill="#34A4DA" transform="matrix(1.00, 0.00, -0.00, -1.00, 1108.0, 482.0)">N</text><text xml:space="preserve" font-family="DINCondensed-Bold" font-weight="bold" font-size="291.0" fill="#34A4DA" transform="matrix(1.00, 0.00, -0.00, -1.00, 1237.2, 482.0)">E</text><text xml:space="preserve" font-family="DINCondensed-Bold" font-weight="bold" font-size="291.0" fill="#34A4DA" transform="matrix(1.00, 0.00, -0.00, -1.00, 1344.9, 482.0)">R</text><text xml:space="preserve" font-family="DINCondensed-Bold" font-weight="bold" font-size="291.0" fill="#34A4DA" transform="matrix(1.00, 0.00, -0.00, -1.00, 1468.8, 482.0)">S</text><path d="M 60.0 422.3 L 1860.0 422.3 L 1860.0 222.3 L 60.0 222.3 Z M 60.0 422.3 " fill="#FDCA55"></path><g><clipPath id="clip-103"><path d="M 49.5 199.8 L 1870.5 199.8 L 1870.5 422.3 L 49.5 422.3 Z M 49.5 199.8 "></path></clipPath><g clip-path="url(#clip-103)"><text xml:space="preserve" font-family="DINCondensed-Bold" font-weight="bold" font-size="58.0" fill="#222222" transform="matrix(1.00, 0.00, -0.00, -1.00, 518.0, 243.0)">A</text><text xml:space="preserve" font-family="DINCondensed-Bold" font-weight="bold" font-size="58.0" fill="#222222" transform="matrix(1.00, 0.00, -0.00, -1.00, 541.6, 243.0)">N</text><text xml:space="preserve" font-family="DINCondensed-Bold" font-weight="bold" font-size="58.0" fill="#222222" transform="matrix(1.00, 0.00, -0.00, -1.00, 567.4, 243.0)">D</text><text xml:space="preserve" font-family="DINCondensed-Bold" font-weight="bold" font-size="58.0" fill="#222222" transform="matrix(1.00, 0.00, -0.00, -1.00, 592.1, 243.0)">R</text><text xml:space="preserve" font-family="DINCondensed-Bold" font-weight="bold" font-size="58.0" fill="#222222" transform="matrix(1.00, 0.00, -0.00, -1.00, 616.8, 243.0)">A</text><text xml:space="preserve" font-family="DINCondensed-Bold" font-weight="bold" font-size="58.0" fill="#222222" transform="matrix(1.00, 0.00, -0.00, -1.00, 640.4, 243.0)">G</text><text xml:space="preserve" font-family="DINCondensed-Bold" font-weight="bold" font-size="58.0" fill="#222222" transform="matrix(1.00, 0.00, -0.00, -1.00, 665.1, 243.0)">O</text><text xml:space="preserve" font-family="DINCondensed-Bold" font-weight="bold" font-size="58.0" fill="#222222" transform="matrix(1.00, 0.00, -0.00, -1.00, 689.8, 243.0)">G</text><text xml:space="preserve" font-family="DINCondensed-Bold" font-weight="bold" font-size="58.0" fill="#222222" transform="matrix(1.00, 0.00, -0.00, -1.00, 714.5, 243.0)">Y</text><text xml:space="preserve" font-family="DINCondensed-Bold" font-weight="bold" font-size="58.0" fill="#222222" transform="matrix(1.00, 0.00, -0.00, -1.00, 737.0, 243.0)"> </text><text xml:space="preserve" font-family="DINCondensed-Bold" font-weight="bold" font-size="58.0" fill="#222222" transform="matrix(1.00, 0.00, -0.00, -1.00, 747.8, 243.0)">I</text><text xml:space="preserve" font-family="DINCondensed-Bold" font-weight="bold" font-size="58.0" fill="#222222" transform="matrix(1.00, 0.00, -0.00, -1.00, 759.6, 243.0)">S</text><text xml:space="preserve" font-family="DINCondensed-Bold" font-weight="bold" font-size="58.0" fill="#222222" transform="matrix(1.00, 0.00, -0.00, -1.00, 783.2, 243.0)"> </text><text xml:space="preserve" font-family="DINCondensed-Bold" font-weight="bold" font-size="58.0" fill="#222222" transform="matrix(1.00, 0.00, -0.00, -1.00, 794.0, 243.0)">V</text><text xml:space="preserve" font-family="DINCondensed-Bold" font-weight="bold" font-size="58.0" fill="#222222" transform="matrix(1.00, 0.00, -0.00, -1.00, 817.6, 243.0)">E</text><text xml:space="preserve" font-family="DINCondensed-Bold" font-weight="bold" font-size="58.0" fill="#222222" transform="matrix(1.00, 0.00, -0.00, -1.00, 839.0, 243.0)">R</text><text xml:space="preserve" font-family="DINCondensed-Bold" font-weight="bold" font-size="58.0" fill="#222222" transform="matrix(1.00, 0.00, -0.00, -1.00, 862.7, 243.0)">Y</text><text xml:space="preserve" font-family="DINCondensed-Bold" font-weight="bold" font-size="58.0" fill="#222222" transform="matrix(1.00, 0.00, -0.00, -1.00, 885.2, 243.0)"> </text><text xml:space="preserve" font-family="DINCondensed-Bold" font-weight="bold" font-size="58.0" fill="#222222" transform="matrix(1.00, 0.00, -0.00, -1.00, 896.0, 243.0)">D</text><text xml:space="preserve" font-family="DINCondensed-Bold" font-weight="bold" font-size="58.0" fill="#222222" transform="matrix(1.00, 0.00, -0.00, -1.00, 920.7, 243.0)">I</text><text xml:space="preserve" font-family="DINCondensed-Bold" font-weight="bold" font-size="58.0" fill="#222222" transform="matrix(1.00, 0.00, -0.00, -1.00, 932.5, 243.0)">F</text><text xml:space="preserve" font-family="DINCondensed-Bold" font-weight="bold" font-size="58.0" fill="#222222" transform="matrix(1.00, 0.00, -0.00, -1.00, 954.0, 243.0)">F</text><text xml:space="preserve" font-family="DINCondensed-Bold" font-weight="bold" font-size="58.0" fill="#222222" transform="matrix(1.00, 0.00, -0.00, -1.00, 975.4, 243.0)">E</text><text xml:space="preserve" font-family="DINCondensed-Bold" font-weight="bold" font-size="58.0" fill="#222222" transform="matrix(1.00, 0.00, -0.00, -1.00, 996.9, 243.0)">R</text><text xml:space="preserve" font-family="DINCondensed-Bold" font-weight="bold" font-size="58.0" fill="#222222" transform="matrix(1.00, 0.00, -0.00, -1.00, 1021.6, 243.0)">E</text><text xml:space="preserve" font-family="DINCondensed-Bold" font-weight="bold" font-size="58.0" fill="#222222" transform="matrix(1.00, 0.00, -0.00, -1.00, 1043.1, 243.0)">N</text><text xml:space="preserve" font-family="DINCondensed-Bold" font-weight="bold" font-size="58.0" fill="#222222" transform="matrix(1.00, 0.00, -0.00, -1.00, 1068.8, 243.0)">T</text><text xml:space="preserve" font-family="DINCondensed-Bold" font-weight="bold" font-size="58.0" fill="#222222" transform="matrix(1.00, 0.00, -0.00, -1.00, 1088.1, 243.0)"> </text><text xml:space="preserve" font-family="DINCondensed-Bold" font-weight="bold" font-size="58.0" fill="#222222" transform="matrix(1.00, 0.00, -0.00, -1.00, 1098.9, 243.0)">F</text><text xml:space="preserve" font-family="DINCondensed-Bold" font-weight="bold" font-size="58.0" fill="#222222" transform="matrix(1.00, 0.00, -0.00, -1.00, 1120.3, 243.0)">R</text><text xml:space="preserve" font-family="DINCondensed-Bold" font-weight="bold" font-size="58.0" fill="#222222" transform="matrix(1.00, 0.00, -0.00, -1.00, 1145.0, 243.0)">O</text><text xml:space="preserve" font-family="DINCondensed-Bold" font-weight="bold" font-size="58.0" fill="#222222" transform="matrix(1.00, 0.00, -0.00, -1.00, 1169.7, 243.0)">M</text><text xml:space="preserve" font-family="DINCondensed-Bold" font-weight="bold" font-size="58.0" fill="#222222" transform="matrix(1.00, 0.00, -0.00, -1.00, 1202.0, 243.0)"> </text><text xml:space="preserve" font-family="DINCondensed-Bold" font-weight="bold" font-size="58.0" fill="#222222" transform="matrix(1.00, 0.00, -0.00, -1.00, 1212.8, 243.0)">P</text><text xml:space="preserve" font-family="DINCondensed-Bold" font-weight="bold" font-size="58.0" fill="#222222" transform="matrix(1.00, 0.00, -0.00, -1.00, 1236.4, 243.0)">E</text><text xml:space="preserve" font-family="DINCondensed-Bold" font-weight="bold" font-size="58.0" fill="#222222" transform="matrix(1.00, 0.00, -0.00, -1.00, 1257.8, 243.0)">D</text><text xml:space="preserve" font-family="DINCondensed-Bold" font-weight="bold" font-size="58.0" fill="#222222" transform="matrix(1.00, 0.00, -0.00, -1.00, 1281.9, 243.0)">A</text><text xml:space="preserve" font-family="DINCondensed-Bold" font-weight="bold" font-size="58.0" fill="#222222" transform="matrix(1.00, 0.00, -0.00, -1.00, 1305.5, 243.0)">G</text><text xml:space="preserve" font-family="DINCondensed-Bold" font-weight="bold" font-size="58.0" fill="#222222" transform="matrix(1.00, 0.00, -0.00, -1.00, 1330.2, 243.0)">O</text><text xml:space="preserve" font-family="DINCondensed-Bold" font-weight="bold" font-size="58.0" fill="#222222" transform="matrix(1.00, 0.00, -0.00, -1.00, 1354.9, 243.0)">G</text><text xml:space="preserve" font-family="DINCondensed-Bold" font-weight="bold" font-size="58.0" fill="#222222" transform="matrix(1.00, 0.00, -0.00, -1.00, 1379.6, 243.0)">Y</text></g></g><text xml:space="preserve" font-family="DINAlternate-Bold" font-weight="bold" font-size="36.0" fill="#838686" transform="matrix(1.00, 0.00, -0.00, -1.00, 64.0, 992.0)">M</text><text xml:space="preserve" font-family="DINAlternate-Bold" font-weight="bold" font-size="36.0" fill="#838686" transform="matrix(1.00, 0.00, -0.00, -1.00, 93.1, 992.0)">A</text><text xml:space="preserve" font-family="DINAlternate-Bold" font-weight="bold" font-size="36.0" fill="#838686" transform="matrix(1.00, 0.00, -0.00, -1.00, 116.8, 992.0)">X</text><text xml:space="preserve" font-family="DINAlternate-Bold" font-weight="bold" font-size="36.0" fill="#838686" transform="matrix(1.00, 0.00, -0.00, -1.00, 137.9, 992.0)">I</text><text xml:space="preserve" font-family="DINAlternate-Bold" font-weight="bold" font-size="36.0" fill="#838686" transform="matrix(1.00, 0.00, -0.00, -1.00, 149.0, 992.0)">M</text><text xml:space="preserve" font-family="DINAlternate-Bold" font-weight="bold" font-size="36.0" fill="#838686" transform="matrix(1.00, 0.00, -0.00, -1.00, 178.1, 992.0)">I</text><text xml:space="preserve" font-family="DINAlternate-Bold" font-weight="bold" font-size="36.0" fill="#838686" transform="matrix(1.00, 0.00, -0.00, -1.00, 189.1, 992.0)">Z</text><text xml:space="preserve" font-family="DINAlternate-Bold" font-weight="bold" font-size="36.0" fill="#838686" transform="matrix(1.00, 0.00, -0.00, -1.00, 209.6, 992.0)">E</text><text xml:space="preserve" font-family="DINAlternate-Bold" font-weight="bold" font-size="36.0" fill="#838686" transform="matrix(1.00, 0.00, -0.00, -1.00, 231.4, 992.0)"> </text><text xml:space="preserve" font-family="DINAlternate-Bold" font-weight="bold" font-size="36.0" fill="#838686" transform="matrix(1.00, 0.00, -0.00, -1.00, 241.9, 992.0)">Y</text><text xml:space="preserve" font-family="DINAlternate-Bold" font-weight="bold" font-size="36.0" fill="#838686" transform="matrix(1.00, 0.00, -0.00, -1.00, 260.7, 992.0)">O</text><text xml:space="preserve" font-family="DINAlternate-Bold" font-weight="bold" font-size="36.0" fill="#838686" transform="matrix(1.00, 0.00, -0.00, -1.00, 284.5, 992.0)">U</text><text xml:space="preserve" font-family="DINAlternate-Bold" font-weight="bold" font-size="36.0" fill="#838686" transform="matrix(1.00, 0.00, -0.00, -1.00, 309.0, 992.0)">R</text><text xml:space="preserve" font-family="DINAlternate-Bold" font-weight="bold" font-size="36.0" fill="#838686" transform="matrix(1.00, 0.00, -0.00, -1.00, 332.7, 992.0)"> </text><text xml:space="preserve" font-family="DINAlternate-Bold" font-weight="bold" font-size="36.0" fill="#838686" transform="matrix(1.00, 0.00, -0.00, -1.00, 343.1, 992.0)">A</text><text xml:space="preserve" font-family="DINAlternate-Bold" font-weight="bold" font-size="36.0" fill="#838686" transform="matrix(1.00, 0.00, -0.00, -1.00, 366.9, 992.0)">B</text><text xml:space="preserve" font-family="DINAlternate-Bold" font-weight="bold" font-size="36.0" fill="#838686" transform="matrix(1.00, 0.00, -0.00, -1.00, 390.6, 992.0)">I</text><text xml:space="preserve" font-family="DINAlternate-Bold" font-weight="bold" font-size="36.0" fill="#838686" transform="matrix(1.00, 0.00, -0.00, -1.00, 401.7, 992.0)">L</text><text xml:space="preserve" font-family="DINAlternate-Bold" font-weight="bold" font-size="36.0" fill="#838686" transform="matrix(1.00, 0.00, -0.00, -1.00, 423.5, 992.0)">I</text><text xml:space="preserve" font-family="DINAlternate-Bold" font-weight="bold" font-size="36.0" fill="#838686" transform="matrix(1.00, 0.00, -0.00, -1.00, 434.6, 992.0)">T</text><text xml:space="preserve" font-family="DINAlternate-Bold" font-weight="bold" font-size="36.0" fill="#838686" transform="matrix(1.00, 0.00, -0.00, -1.00, 454.4, 992.0)">Y</text><text xml:space="preserve" font-family="DINAlternate-Bold" font-weight="bold" font-size="36.0" fill="#838686" transform="matrix(1.00, 0.00, -0.00, -1.00, 474.2, 992.0)"> </text><text xml:space="preserve" font-family="DINAlternate-Bold" font-weight="bold" font-size="36.0" fill="#838686" transform="matrix(1.00, 0.00, -0.00, -1.00, 484.6, 992.0)">T</text><text xml:space="preserve" font-family="DINAlternate-Bold" font-weight="bold" font-size="36.0" fill="#838686" transform="matrix(1.00, 0.00, -0.00, -1.00, 503.7, 992.0)">O</text><text xml:space="preserve" font-family="DINAlternate-Bold" font-weight="bold" font-size="36.0" fill="#838686" transform="matrix(1.00, 0.00, -0.00, -1.00, 527.5, 992.0)"> </text><text xml:space="preserve" font-family="DINAlternate-Bold" font-weight="bold" font-size="36.0" fill="#838686" transform="matrix(1.00, 0.00, -0.00, -1.00, 537.9, 992.0)">L</text><text xml:space="preserve" font-family="DINAlternate-Bold" font-weight="bold" font-size="36.0" fill="#838686" transform="matrix(1.00, 0.00, -0.00, -1.00, 559.7, 992.0)">E</text><text xml:space="preserve" font-family="DINAlternate-Bold" font-weight="bold" font-size="36.0" fill="#838686" transform="matrix(1.00, 0.00, -0.00, -1.00, 581.5, 992.0)">A</text><text xml:space="preserve" font-family="DINAlternate-Bold" font-weight="bold" font-size="36.0" fill="#838686" transform="matrix(1.00, 0.00, -0.00, -1.00, 605.3, 992.0)">R</text><text xml:space="preserve" font-family="DINAlternate-Bold" font-weight="bold" font-size="36.0" fill="#838686" transform="matrix(1.00, 0.00, -0.00, -1.00, 629.0, 992.0)">N</text></g></svg>