<?xml version="1.0" encoding="UTF-8" standalone="no"?><svg xmlns="http://www.w3.org/2000/svg" xmlns:xlink="http://www.w3.org/1999/xlink" clip-rule="evenodd" stroke-miterlimit="4.00" viewBox="0 0 1920 1080"><desc>SVG generated by Keynote</desc><defs></defs><g transform="matrix(1.00, 0.00, -0.00, -1.00, 0.0, 1080.0)"><path d="M 0.0 1080.0 L 1920.0 1080.0 L 1920.0 0.0 L 0.0 0.0 Z M 0.0 1080.0 " fill="#FFFFFF"></path><path d="M 0.0 0.0 L 1800.0 0.0 " fill="none" stroke="#A6AAA9" stroke-width="2.00" transform="matrix(1.00, 0.00, 0.00, -1.00, 60.0, 970.0)"></path><text xml:space="preserve" font-family="DINAlternate-Bold" font-weight="bold" font-size="36.0" fill="#838686" transform="matrix(1.00, 0.00, -0.00, -1.00, 64.0, 992.0)">M</text><text xml:space="preserve" font-family="DINAlternate-Bold" font-weight="bold" font-size="36.0" fill="#838686" transform="matrix(1.00, 0.00, -0.00, -1.00, 93.1, 992.0)">A</text><text xml:space="preserve" font-family="DINAlternate-Bold" font-weight="bold" font-size="36.0" fill="#838686" transform="matrix(1.00, 0.00, -0.00, -1.00, 116.8, 992.0)">X</text><text xml:space="preserve" font-family="DINAlternate-Bold" font-weight="bold" font-size="36.0" fill="#838686" transform="matrix(1.00, 0.00, -0.00, -1.00, 137.9, 992.0)">I</text><text xml:space="preserve" font-family="DINAlternate-Bold" font-weight="bold" font-size="36.0" fill="#838686" transform="matrix(1.00, 0.00, -0.00, -1.00, 149.0, 992.0)">M</text><text xml:space="preserve" font-family="DINAlternate-Bold" font-weight="bold" font-size="36.0" fill="#838686" transform="matrix(1.00, 0.00, -0.00, -1.00, 178.1, 992.0)">I</text><text xml:space="preserve" font-family="DINAlternate-Bold" font-weight="bold" font-size="36.0" fill="#838686" transform="matrix(1.00, 0.00, -0.00, -1.00, 189.1, 992.0)">Z</text><text xml:space="preserve" font-family="DINAlternate-Bold" font-weight="bold" font-size="36.0" fill="#838686" transform="matrix(1.00, 0.00, -0.00, -1.00, 209.6, 992.0)">E</text><text xml:space="preserve" font-family="DINAlternate-Bold" font-weight="bold" font-size="36.0" fill="#838686" transform="matrix(1.00, 0.00, -0.00, -1.00, 231.4, 992.0)"> </text><text xml:space="preserve" font-family="DINAlternate-Bold" font-weight="bold" font-size="36.0" fill="#838686" transform="matrix(1.00, 0.00, -0.00, -1.00, 241.9, 992.0)">Y</text><text xml:space="preserve" font-family="DINAlternate-Bold" font-weight="bold" font-size="36.0" fill="#838686" transform="matrix(1.00, 0.00, -0.00, -1.00, 260.7, 992.0)">O</text><text xml:space="preserve" font-family="DINAlternate-Bold" font-weight="bold" font-size="36.0" fill="#838686" transform="matrix(1.00, 0.00, -0.00, -1.00, 284.5, 992.0)">U</text><text xml:space="preserve" font-family="DINAlternate-Bold" font-weight="bold" font-size="36.0" fill="#838686" transform="matrix(1.00, 0.00, -0.00, -1.00, 309.0, 992.0)">R</text><text xml:space="preserve" font-family="DINAlternate-Bold" font-weight="bold" font-size="36.0" fill="#838686" transform="matrix(1.00, 0.00, -0.00, -1.00, 332.7, 992.0)"> </text><text xml:space="preserve" font-family="DINAlternate-Bold" font-weight="bold" font-size="36.0" fill="#838686" transform="matrix(1.00, 0.00, -0.00, -1.00, 343.1, 992.0)">A</text><text xml:space="preserve" font-family="DINAlternate-Bold" font-weight="bold" font-size="36.0" fill="#838686" transform="matrix(1.00, 0.00, -0.00, -1.00, 366.9, 992.0)">B</text><text xml:space="preserve" font-family="DINAlternate-Bold" font-weight="bold" font-size="36.0" fill="#838686" transform="matrix(1.00, 0.00, -0.00, -1.00, 390.6, 992.0)">I</text><text xml:space="preserve" font-family="DINAlternate-Bold" font-weight="bold" font-size="36.0" fill="#838686" transform="matrix(1.00, 0.00, -0.00, -1.00, 401.7, 992.0)">L</text><text xml:space="preserve" font-family="DINAlternate-Bold" font-weight="bold" font-size="36.0" fill="#838686" transform="matrix(1.00, 0.00, -0.00, -1.00, 423.5, 992.0)">I</text><text xml:space="preserve" font-family="DINAlternate-Bold" font-weight="bold" font-size="36.0" fill="#838686" transform="matrix(1.00, 0.00, -0.00, -1.00, 434.6, 992.0)">T</text><text xml:space="preserve" font-family="DINAlternate-Bold" font-weight="bold" font-size="36.0" fill="#838686" transform="matrix(1.00, 0.00, -0.00, -1.00, 454.4, 992.0)">Y</text><text xml:space="preserve" font-family="DINAlternate-Bold" font-weight="bold" font-size="36.0" fill="#838686" transform="matrix(1.00, 0.00, -0.00, -1.00, 474.2, 992.0)"> </text><text xml:space="preserve" font-family="DINAlternate-Bold" font-weight="bold" font-size="36.0" fill="#838686" transform="matrix(1.00, 0.00, -0.00, -1.00, 484.6, 992.0)">T</text><text xml:space="preserve" font-family="DINAlternate-Bold" font-weight="bold" font-size="36.0" fill="#838686" transform="matrix(1.00, 0.00, -0.00, -1.00, 503.7, 992.0)">O</text><text xml:space="preserve" font-family="DINAlternate-Bold" font-weight="bold" font-size="36.0" fill="#838686" transform="matrix(1.00, 0.00, -0.00, -1.00, 527.5, 992.0)"> </text><text xml:space="preserve" font-family="DINAlternate-Bold" font-weight="bold" font-size="36.0" fill="#838686" transform="matrix(1.00, 0.00, -0.00, -1.00, 537.9, 992.0)">L</text><text xml:space="preserve" font-family="DINAlternate-Bold" font-weight="bold" font-size="36.0" fill="#838686" transform="matrix(1.00, 0.00, -0.00, -1.00, 559.7, 992.0)">E</text><text xml:space="preserve" font-family="DINAlternate-Bold" font-weight="bold" font-size="36.0" fill="#838686" transform="matrix(1.00, 0.00, -0.00, -1.00, 581.5, 992.0)">A</text><text xml:space="preserve" font-family="DINAlternate-Bold" font-weight="bold" font-size="36.0" fill="#838686" transform="matrix(1.00, 0.00, -0.00, -1.00, 605.3, 992.0)">R</text><text xml:space="preserve" font-family="DINAlternate-Bold" font-weight="bold" font-size="36.0" fill="#838686" transform="matrix(1.00, 0.00, -0.00, -1.00, 629.0, 992.0)">N</text><g><clipPath id="clip-81"><path d="M 33.7 802.0 L 1886.3 802.0 L 1886.3 906.0 L 33.7 906.0 Z M 33.7 802.0 "></path></clipPath><g clip-path="url(#clip-81)"><text xml:space="preserve" font-family="DINCondensed-Bold" font-weight="bold" font-size="121.2" fill="#34A4DA" transform="matrix(1.00, 0.00, -0.00, -1.00, 64.0, 820.0)">A</text><text xml:space="preserve" font-family="DINCondensed-Bold" font-weight="bold" font-size="121.2" fill="#34A4DA" transform="matrix(1.00, 0.00, -0.00, -1.00, 113.3, 820.0)">S</text><text xml:space="preserve" font-family="DINCondensed-Bold" font-weight="bold" font-size="121.2" fill="#34A4DA" transform="matrix(1.00, 0.00, -0.00, -1.00, 162.5, 820.0)">L</text><text xml:space="preserve" font-family="DINCondensed-Bold" font-weight="bold" font-size="121.2" fill="#34A4DA" transform="matrix(1.00, 0.00, -0.00, -1.00, 207.4, 820.0)">E</text><text xml:space="preserve" font-family="DINCondensed-Bold" font-weight="bold" font-size="121.2" fill="#34A4DA" transform="matrix(1.00, 0.00, -0.00, -1.00, 252.2, 820.0)">E</text><text xml:space="preserve" font-family="DINCondensed-Bold" font-weight="bold" font-size="121.2" fill="#34A4DA" transform="matrix(1.00, 0.00, -0.00, -1.00, 297.1, 820.0)">P</text><text xml:space="preserve" font-family="DINCondensed-Bold" font-weight="bold" font-size="121.2" fill="#34A4DA" transform="matrix(1.00, 0.00, -0.00, -1.00, 346.4, 820.0)"> </text><text xml:space="preserve" font-family="DINCondensed-Bold" font-weight="bold" font-size="121.2" fill="#34A4DA" transform="matrix(1.00, 0.00, -0.00, -1.00, 368.9, 820.0)">(</text><text xml:space="preserve" font-family="DINCondensed-Bold" font-weight="bold" font-size="121.2" fill="#34A4DA" transform="matrix(1.00, 0.00, -0.00, -1.00, 395.8, 820.0)">K</text><text xml:space="preserve" font-family="DINCondensed-Bold" font-weight="bold" font-size="121.2" fill="#34A4DA" transform="matrix(1.00, 0.00, -0.00, -1.00, 447.5, 820.0)">)</text><text xml:space="preserve" font-family="DINCondensed-Bold" font-weight="bold" font-size="121.2" fill="#34A4DA" transform="matrix(1.00, 0.00, -0.00, -1.00, 474.4, 820.0)"> </text><text xml:space="preserve" font-family="DINCondensed-Bold" font-weight="bold" font-size="121.2" fill="#34A4DA" transform="matrix(1.00, 0.00, -0.00, -1.00, 496.9, 820.0)"> </text><text xml:space="preserve" font-family="DINCondensed-Bold" font-weight="bold" font-size="121.2" fill="#34A4DA" transform="matrix(1.00, 0.00, -0.00, -1.00, 519.5, 820.0)"> </text><text xml:space="preserve" font-family="DINCondensed-Bold" font-weight="bold" font-size="121.2" fill="#34A4DA" transform="matrix(1.00, 0.00, -0.00, -1.00, 542.0, 820.0)"> </text><text xml:space="preserve" font-family="DINCondensed-Bold" font-weight="bold" font-size="121.2" fill="#34A4DA" transform="matrix(1.00, 0.00, -0.00, -1.00, 564.6, 820.0)"> </text><text xml:space="preserve" font-family="DINCondensed-Bold" font-weight="bold" font-size="121.2" fill="#34A4DA" transform="matrix(1.00, 0.00, -0.00, -1.00, 587.1, 820.0)"> </text><text xml:space="preserve" font-family="DINCondensed-Bold" font-weight="bold" font-size="121.2" fill="#34A4DA" transform="matrix(1.00, 0.00, -0.00, -1.00, 609.6, 820.0)"> </text><text xml:space="preserve" font-family="DINCondensed-Bold" font-weight="bold" font-size="121.2" fill="#34A4DA" transform="matrix(1.00, 0.00, -0.00, -1.00, 632.2, 820.0)"> </text><text xml:space="preserve" font-family="DINCondensed-Bold" font-weight="bold" font-size="121.2" fill="#34A4DA" transform="matrix(1.00, 0.00, -0.00, -1.00, 654.7, 820.0)"> </text><text xml:space="preserve" font-family="DINCondensed-Bold" font-weight="bold" font-size="121.2" fill="#34A4DA" transform="matrix(1.00, 0.00, -0.00, -1.00, 677.3, 820.0)"> </text><text xml:space="preserve" font-family="DINCondensed-Bold" font-weight="bold" font-size="121.2" fill="#34A4DA" transform="matrix(1.00, 0.00, -0.00, -1.00, 699.8, 820.0)"> </text><text xml:space="preserve" font-family="DINCondensed-Bold" font-weight="bold" font-size="121.2" fill="#34A4DA" transform="matrix(1.00, 0.00, -0.00, -1.00, 722.4, 820.0)"> </text><text xml:space="preserve" font-family="DINCondensed-Bold" font-weight="bold" font-size="121.2" fill="#34A4DA" transform="matrix(1.00, 0.00, -0.00, -1.00, 744.9, 820.0)"> </text><text xml:space="preserve" font-family="DINCondensed-Bold" font-weight="bold" font-size="121.2" fill="#34A4DA" transform="matrix(1.00, 0.00, -0.00, -1.00, 767.4, 820.0)"> </text><text xml:space="preserve" font-family="DINCondensed-Bold" font-weight="bold" font-size="121.2" fill="#34A4DA" transform="matrix(1.00, 0.00, -0.00, -1.00, 790.0, 820.0)"> </text><text xml:space="preserve" font-family="DINCondensed-Bold" font-weight="bold" font-size="121.2" fill="#34A4DA" transform="matrix(1.00, 0.00, -0.00, -1.00, 812.5, 820.0)"> </text><text xml:space="preserve" font-family="DINCondensed-Bold" font-weight="bold" font-size="121.2" fill="#34A4DA" transform="matrix(1.00, 0.00, -0.00, -1.00, 835.1, 820.0)"> </text><text xml:space="preserve" font-family="DINCondensed-Bold" font-weight="bold" font-size="121.2" fill="#34A4DA" transform="matrix(1.00, 0.00, -0.00, -1.00, 857.6, 820.0)"> </text><text xml:space="preserve" font-family="DINCondensed-Bold" font-weight="bold" font-size="121.2" fill="#34A4DA" transform="matrix(1.00, 0.00, -0.00, -1.00, 880.2, 820.0)"> </text><text xml:space="preserve" font-family="DINCondensed-Bold" font-weight="bold" font-size="121.2" fill="#34A4DA" transform="matrix(1.00, 0.00, -0.00, -1.00, 902.7, 820.0)"> </text><text xml:space="preserve" font-family="DINCondensed-Bold" font-weight="bold" font-size="121.2" fill="#34A4DA" transform="matrix(1.00, 0.00, -0.00, -1.00, 925.2, 820.0)"> </text><text xml:space="preserve" font-family="DINCondensed-Bold" font-weight="bold" font-size="121.2" fill="#34A4DA" transform="matrix(1.00, 0.00, -0.00, -1.00, 947.8, 820.0)"> </text><text xml:space="preserve" font-family="DINCondensed-Bold" font-weight="bold" font-size="121.2" fill="#34A4DA" transform="matrix(1.00, 0.00, -0.00, -1.00, 970.3, 820.0)"> </text><text xml:space="preserve" font-family="DINCondensed-Bold" font-weight="bold" font-size="121.2" fill="#34A4DA" transform="matrix(1.00, 0.00, -0.00, -1.00, 992.9, 820.0)"> </text><text xml:space="preserve" font-family="DINCondensed-Bold" font-weight="bold" font-size="121.2" fill="#34A4DA" transform="matrix(1.00, 0.00, -0.00, -1.00, 1015.4, 820.0)"> </text><text xml:space="preserve" font-family="DINCondensed-Bold" font-weight="bold" font-size="121.2" fill="#34A4DA" transform="matrix(1.00, 0.00, -0.00, -1.00, 1038.0, 820.0)"> </text><text xml:space="preserve" font-family="DINCondensed-Bold" font-weight="bold" font-size="121.2" fill="#34A4DA" transform="matrix(1.00, 0.00, -0.00, -1.00, 1060.5, 820.0)"> </text><text xml:space="preserve" font-family="DINCondensed-Bold" font-weight="bold" font-size="121.2" fill="#34A4DA" transform="matrix(1.00, 0.00, -0.00, -1.00, 1083.0, 820.0)"> </text><text xml:space="preserve" font-family="DINCondensed-Bold" font-weight="bold" font-size="121.2" fill="#34A4DA" transform="matrix(1.00, 0.00, -0.00, -1.00, 1105.6, 820.0)"> </text><text xml:space="preserve" font-family="DINCondensed-Bold" font-weight="bold" font-size="121.2" fill="#34A4DA" transform="matrix(1.00, 0.00, -0.00, -1.00, 1128.1, 820.0)"> </text><text xml:space="preserve" font-family="DINCondensed-Bold" font-weight="bold" font-size="121.2" fill="#34A4DA" transform="matrix(1.00, 0.00, -0.00, -1.00, 1150.7, 820.0)"> </text><text xml:space="preserve" font-family="DINCondensed-Bold" font-weight="bold" font-size="121.2" fill="#34A4DA" transform="matrix(1.00, 0.00, -0.00, -1.00, 1173.2, 820.0)"> </text><text xml:space="preserve" font-family="DINCondensed-Bold" font-weight="bold" font-size="121.2" fill="#34A4DA" transform="matrix(1.00, 0.00, -0.00, -1.00, 1195.8, 820.0)"> </text><text xml:space="preserve" font-family="DINCondensed-Bold" font-weight="bold" font-size="121.2" fill="#34A4DA" transform="matrix(1.00, 0.00, -0.00, -1.00, 1218.3, 820.0)"> </text><text xml:space="preserve" font-family="DINCondensed-Bold" font-weight="bold" font-size="121.2" fill="#34A4DA" transform="matrix(1.00, 0.00, -0.00, -1.00, 1240.9, 820.0)"> </text><text xml:space="preserve" font-family="DINCondensed-Bold" font-weight="bold" font-size="121.2" fill="#34A4DA" transform="matrix(1.00, 0.00, -0.00, -1.00, 1263.4, 820.0)"> </text><text xml:space="preserve" font-family="DINCondensed-Bold" font-weight="bold" font-size="121.2" fill="#34A4DA" transform="matrix(1.00, 0.00, -0.00, -1.00, 1285.9, 820.0)"> </text><text xml:space="preserve" font-family="DINCondensed-Bold" font-weight="bold" font-size="121.2" fill="#34A4DA" transform="matrix(1.00, 0.00, -0.00, -1.00, 1308.5, 820.0)"> </text><text xml:space="preserve" font-family="DINCondensed-Bold" font-weight="bold" font-size="121.2" fill="#34A4DA" transform="matrix(1.00, 0.00, -0.00, -1.00, 1331.0, 820.0)"> </text><text xml:space="preserve" font-family="DINCondensed-Bold" font-weight="bold" font-size="121.2" fill="#34A4DA" transform="matrix(1.00, 0.00, -0.00, -1.00, 1353.6, 820.0)"> </text><text xml:space="preserve" font-family="DINCondensed-Bold" font-weight="bold" font-size="121.2" fill="#34A4DA" transform="matrix(1.00, 0.00, -0.00, -1.00, 1376.1, 820.0)"> </text><text xml:space="preserve" font-family="DINCondensed-Bold" font-weight="bold" font-size="121.2" fill="#34A4DA" transform="matrix(1.00, 0.00, -0.00, -1.00, 1398.7, 820.0)"> </text><text xml:space="preserve" font-family="DINCondensed-Bold" font-weight="bold" font-size="121.2" fill="#34A4DA" transform="matrix(1.00, 0.00, -0.00, -1.00, 1421.2, 820.0)"> </text><text xml:space="preserve" font-family="DINCondensed-Bold" font-weight="bold" font-size="121.2" fill="#34A4DA" transform="matrix(1.00, 0.00, -0.00, -1.00, 1443.7, 820.0)"> </text><text xml:space="preserve" font-family="DINCondensed-Bold" font-weight="bold" font-size="121.2" fill="#34A4DA" transform="matrix(1.00, 0.00, -0.00, -1.00, 1466.3, 820.0)">H</text><text xml:space="preserve" font-family="DINCondensed-Bold" font-weight="bold" font-size="121.2" fill="#34A4DA" transform="matrix(1.00, 0.00, -0.00, -1.00, 1517.9, 820.0)">A</text><text xml:space="preserve" font-family="DINCondensed-Bold" font-weight="bold" font-size="121.2" fill="#34A4DA" transform="matrix(1.00, 0.00, -0.00, -1.00, 1567.2, 820.0)">P</text><text xml:space="preserve" font-family="DINCondensed-Bold" font-weight="bold" font-size="121.2" fill="#34A4DA" transform="matrix(1.00, 0.00, -0.00, -1.00, 1616.6, 820.0)">P</text><text xml:space="preserve" font-family="DINCondensed-Bold" font-weight="bold" font-size="121.2" fill="#34A4DA" transform="matrix(1.00, 0.00, -0.00, -1.00, 1665.9, 820.0)">Y</text><text xml:space="preserve" font-family="DINCondensed-Bold" font-weight="bold" font-size="121.2" fill="#34A4DA" transform="matrix(1.00, 0.00, -0.00, -1.00, 1712.9, 820.0)"> </text><text xml:space="preserve" font-family="DINCondensed-Bold" font-weight="bold" font-size="121.2" fill="#34A4DA" transform="matrix(1.00, 0.00, -0.00, -1.00, 1735.5, 820.0)">(</text><text xml:space="preserve" font-family="DINCondensed-Bold" font-weight="bold" font-size="121.2" fill="#34A4DA" transform="matrix(1.00, 0.00, -0.00, -1.00, 1762.4, 820.0)">A</text><text xml:space="preserve" font-family="DINCondensed-Bold" font-weight="bold" font-size="121.2" fill="#34A4DA" transform="matrix(1.00, 0.00, -0.00, -1.00, 1811.7, 820.0)">)</text></g></g><image xlink:href="../../C1E25407-5DBF-4242-AF6B-535981EE9E1B/assets/22D12069DF077901F1D6AA5A8B0AFC01.png" width="251.00" height="93.00" transform="matrix(5.79, 0.00, -0.00, -5.80, 258.0, 717.0)"></image></g></svg>