<?xml version="1.0" encoding="UTF-8" standalone="no"?><svg xmlns="http://www.w3.org/2000/svg" xmlns:xlink="http://www.w3.org/1999/xlink" clip-rule="evenodd" stroke-miterlimit="4.00" viewBox="0 0 1920 1080"><desc>SVG generated by Keynote</desc><defs></defs><g transform="matrix(1.00, 0.00, -0.00, -1.00, 0.0, 1080.0)"><path d="M 0.0 1080.0 L 1920.0 1080.0 L 1920.0 0.0 L 0.0 0.0 Z M 0.0 1080.0 " fill="#FFFFFF"></path><path d="M 0.0 0.0 L 1800.0 0.0 " fill="none" stroke="#A6AAA9" stroke-width="4.00" transform="matrix(1.00, 0.00, 0.00, -1.00, 60.0, 978.7)"></path><text xml:space="preserve" font-family="DINCondensed-Bold" font-weight="bold" font-size="290.9" fill="#34A4DA" transform="matrix(1.00, 0.00, -0.00, -1.00, 47.0, 482.0)">I</text><text xml:space="preserve" font-family="DINCondensed-Bold" font-weight="bold" font-size="290.9" fill="#34A4DA" transform="matrix(1.00, 0.00, -0.00, -1.00, 106.3, 482.0)">M</text><text xml:space="preserve" font-family="DINCondensed-Bold" font-weight="bold" font-size="290.9" fill="#34A4DA" transform="matrix(1.00, 0.00, -0.00, -1.00, 268.1, 482.0)">P</text><text xml:space="preserve" font-family="DINCondensed-Bold" font-weight="bold" font-size="290.9" fill="#34A4DA" transform="matrix(1.00, 0.00, -0.00, -1.00, 386.5, 482.0)">L</text><text xml:space="preserve" font-family="DINCondensed-Bold" font-weight="bold" font-size="290.9" fill="#34A4DA" transform="matrix(1.00, 0.00, -0.00, -1.00, 494.1, 482.0)">E</text><text xml:space="preserve" font-family="DINCondensed-Bold" font-weight="bold" font-size="290.9" fill="#34A4DA" transform="matrix(1.00, 0.00, -0.00, -1.00, 601.7, 482.0)">M</text><text xml:space="preserve" font-family="DINCondensed-Bold" font-weight="bold" font-size="290.9" fill="#34A4DA" transform="matrix(1.00, 0.00, -0.00, -1.00, 763.4, 482.0)">E</text><text xml:space="preserve" font-family="DINCondensed-Bold" font-weight="bold" font-size="290.9" fill="#34A4DA" transform="matrix(1.00, 0.00, -0.00, -1.00, 871.1, 482.0)">N</text><text xml:space="preserve" font-family="DINCondensed-Bold" font-weight="bold" font-size="290.9" fill="#34A4DA" transform="matrix(1.00, 0.00, -0.00, -1.00, 1000.2, 482.0)">T</text><text xml:space="preserve" font-family="DINCondensed-Bold" font-weight="bold" font-size="290.9" fill="#34A4DA" transform="matrix(1.00, 0.00, -0.00, -1.00, 1080.8, 482.0)">A</text><text xml:space="preserve" font-family="DINCondensed-Bold" font-weight="bold" font-size="290.9" fill="#34A4DA" transform="matrix(1.00, 0.00, -0.00, -1.00, 1183.2, 482.0)">T</text><text xml:space="preserve" font-family="DINCondensed-Bold" font-weight="bold" font-size="290.9" fill="#34A4DA" transform="matrix(1.00, 0.00, -0.00, -1.00, 1279.7, 482.0)">I</text><text xml:space="preserve" font-family="DINCondensed-Bold" font-weight="bold" font-size="290.9" fill="#34A4DA" transform="matrix(1.00, 0.00, -0.00, -1.00, 1339.1, 482.0)">O</text><text xml:space="preserve" font-family="DINCondensed-Bold" font-weight="bold" font-size="290.9" fill="#34A4DA" transform="matrix(1.00, 0.00, -0.00, -1.00, 1463.0, 482.0)">N</text><path d="M 60.0 422.3 L 1860.0 422.3 L 1860.0 222.3 L 60.0 222.3 Z M 60.0 422.3 " fill="#FDCA55"></path><text xml:space="preserve" font-family="DINCondensed-Bold" font-weight="bold" font-size="58.0" fill="#222222" transform="matrix(1.00, 0.00, -0.00, -1.00, 553.0, 243.0)">H</text><text xml:space="preserve" font-family="DINCondensed-Bold" font-weight="bold" font-size="58.0" fill="#222222" transform="matrix(1.00, 0.00, -0.00, -1.00, 577.7, 243.0)">O</text><text xml:space="preserve" font-family="DINCondensed-Bold" font-weight="bold" font-size="58.0" fill="#222222" transform="matrix(1.00, 0.00, -0.00, -1.00, 601.7, 243.0)">W</text><text xml:space="preserve" font-family="DINCondensed-Bold" font-weight="bold" font-size="58.0" fill="#222222" transform="matrix(1.00, 0.00, -0.00, -1.00, 646.9, 243.0)">T</text><text xml:space="preserve" font-family="DINCondensed-Bold" font-weight="bold" font-size="58.0" fill="#222222" transform="matrix(1.00, 0.00, -0.00, -1.00, 665.5, 243.0)">O</text><text xml:space="preserve" font-family="DINCondensed-Bold" font-weight="bold" font-size="58.0" fill="#222222" transform="matrix(1.00, 0.00, -0.00, -1.00, 701.0, 243.0)">U</text><text xml:space="preserve" font-family="DINCondensed-Bold" font-weight="bold" font-size="58.0" fill="#222222" transform="matrix(1.00, 0.00, -0.00, -1.00, 725.7, 243.0)">S</text><text xml:space="preserve" font-family="DINCondensed-Bold" font-weight="bold" font-size="58.0" fill="#222222" transform="matrix(1.00, 0.00, -0.00, -1.00, 749.2, 243.0)">E</text><text xml:space="preserve" font-family="DINCondensed-Bold" font-weight="bold" font-size="58.0" fill="#222222" transform="matrix(1.00, 0.00, -0.00, -1.00, 781.5, 243.0)">T</text><text xml:space="preserve" font-family="DINCondensed-Bold" font-weight="bold" font-size="58.0" fill="#222222" transform="matrix(1.00, 0.00, -0.00, -1.00, 800.7, 243.0)">H</text><text xml:space="preserve" font-family="DINCondensed-Bold" font-weight="bold" font-size="58.0" fill="#222222" transform="matrix(1.00, 0.00, -0.00, -1.00, 825.4, 243.0)">E</text><text xml:space="preserve" font-family="DINCondensed-Bold" font-weight="bold" font-size="58.0" fill="#222222" transform="matrix(1.00, 0.00, -0.00, -1.00, 857.7, 243.0)">P</text><text xml:space="preserve" font-family="DINCondensed-Bold" font-weight="bold" font-size="58.0" fill="#222222" transform="matrix(1.00, 0.00, -0.00, -1.00, 881.3, 243.0)">O</text><text xml:space="preserve" font-family="DINCondensed-Bold" font-weight="bold" font-size="58.0" fill="#222222" transform="matrix(1.00, 0.00, -0.00, -1.00, 905.3, 243.0)">W</text><text xml:space="preserve" font-family="DINCondensed-Bold" font-weight="bold" font-size="58.0" fill="#222222" transform="matrix(1.00, 0.00, -0.00, -1.00, 939.7, 243.0)">E</text><text xml:space="preserve" font-family="DINCondensed-Bold" font-weight="bold" font-size="58.0" fill="#222222" transform="matrix(1.00, 0.00, -0.00, -1.00, 961.1, 243.0)">R</text><text xml:space="preserve" font-family="DINCondensed-Bold" font-weight="bold" font-size="58.0" fill="#222222" transform="matrix(1.00, 0.00, -0.00, -1.00, 996.6, 243.0)">O</text><text xml:space="preserve" font-family="DINCondensed-Bold" font-weight="bold" font-size="58.0" fill="#222222" transform="matrix(1.00, 0.00, -0.00, -1.00, 1021.4, 243.0)">F</text><text xml:space="preserve" font-family="DINCondensed-Bold" font-weight="bold" font-size="58.0" fill="#222222" transform="matrix(1.00, 0.00, -0.00, -1.00, 1053.6, 243.0)">G</text><text xml:space="preserve" font-family="DINCondensed-Bold" font-weight="bold" font-size="58.0" fill="#222222" transform="matrix(1.00, 0.00, -0.00, -1.00, 1078.3, 243.0)">R</text><text xml:space="preserve" font-family="DINCondensed-Bold" font-weight="bold" font-size="58.0" fill="#222222" transform="matrix(1.00, 0.00, -0.00, -1.00, 1103.0, 243.0)">O</text><text xml:space="preserve" font-family="DINCondensed-Bold" font-weight="bold" font-size="58.0" fill="#222222" transform="matrix(1.00, 0.00, -0.00, -1.00, 1127.7, 243.0)">U</text><text xml:space="preserve" font-family="DINCondensed-Bold" font-weight="bold" font-size="58.0" fill="#222222" transform="matrix(1.00, 0.00, -0.00, -1.00, 1152.4, 243.0)">P</text><text xml:space="preserve" font-family="DINCondensed-Bold" font-weight="bold" font-size="58.0" fill="#222222" transform="matrix(1.00, 0.00, -0.00, -1.00, 1186.8, 243.0)">L</text><text xml:space="preserve" font-family="DINCondensed-Bold" font-weight="bold" font-size="58.0" fill="#222222" transform="matrix(1.00, 0.00, -0.00, -1.00, 1208.3, 243.0)">E</text><text xml:space="preserve" font-family="DINCondensed-Bold" font-weight="bold" font-size="58.0" fill="#222222" transform="matrix(1.00, 0.00, -0.00, -1.00, 1229.7, 243.0)">A</text><text xml:space="preserve" font-family="DINCondensed-Bold" font-weight="bold" font-size="58.0" fill="#222222" transform="matrix(1.00, 0.00, -0.00, -1.00, 1253.3, 243.0)">R</text><text xml:space="preserve" font-family="DINCondensed-Bold" font-weight="bold" font-size="58.0" fill="#222222" transform="matrix(1.00, 0.00, -0.00, -1.00, 1278.1, 243.0)">N</text><text xml:space="preserve" font-family="DINCondensed-Bold" font-weight="bold" font-size="58.0" fill="#222222" transform="matrix(1.00, 0.00, -0.00, -1.00, 1303.8, 243.0)">I</text><text xml:space="preserve" font-family="DINCondensed-Bold" font-weight="bold" font-size="58.0" fill="#222222" transform="matrix(1.00, 0.00, -0.00, -1.00, 1315.6, 243.0)">N</text><text xml:space="preserve" font-family="DINCondensed-Bold" font-weight="bold" font-size="58.0" fill="#222222" transform="matrix(1.00, 0.00, -0.00, -1.00, 1341.4, 243.0)">G</text><text xml:space="preserve" font-family="DINAlternate-Bold" font-weight="bold" font-size="36.0" fill="#838686" transform="matrix(1.00, 0.00, -0.00, -1.00, 64.0, 992.0)">M</text><text xml:space="preserve" font-family="DINAlternate-Bold" font-weight="bold" font-size="36.0" fill="#838686" transform="matrix(1.00, 0.00, -0.00, -1.00, 93.1, 992.0)">A</text><text xml:space="preserve" font-family="DINAlternate-Bold" font-weight="bold" font-size="36.0" fill="#838686" transform="matrix(1.00, 0.00, -0.00, -1.00, 116.8, 992.0)">X</text><text xml:space="preserve" font-family="DINAlternate-Bold" font-weight="bold" font-size="36.0" fill="#838686" transform="matrix(1.00, 0.00, -0.00, -1.00, 137.9, 992.0)">I</text><text xml:space="preserve" font-family="DINAlternate-Bold" font-weight="bold" font-size="36.0" fill="#838686" transform="matrix(1.00, 0.00, -0.00, -1.00, 149.0, 992.0)">M</text><text xml:space="preserve" font-family="DINAlternate-Bold" font-weight="bold" font-size="36.0" fill="#838686" transform="matrix(1.00, 0.00, -0.00, -1.00, 178.1, 992.0)">I</text><text xml:space="preserve" font-family="DINAlternate-Bold" font-weight="bold" font-size="36.0" fill="#838686" transform="matrix(1.00, 0.00, -0.00, -1.00, 189.1, 992.0)">Z</text><text xml:space="preserve" font-family="DINAlternate-Bold" font-weight="bold" font-size="36.0" fill="#838686" transform="matrix(1.00, 0.00, -0.00, -1.00, 209.6, 992.0)">E</text><text xml:space="preserve" font-family="DINAlternate-Bold" font-weight="bold" font-size="36.0" fill="#838686" transform="matrix(1.00, 0.00, -0.00, -1.00, 231.4, 992.0)"> </text><text xml:space="preserve" font-family="DINAlternate-Bold" font-weight="bold" font-size="36.0" fill="#838686" transform="matrix(1.00, 0.00, -0.00, -1.00, 241.9, 992.0)">Y</text><text xml:space="preserve" font-family="DINAlternate-Bold" font-weight="bold" font-size="36.0" fill="#838686" transform="matrix(1.00, 0.00, -0.00, -1.00, 260.7, 992.0)">O</text><text xml:space="preserve" font-family="DINAlternate-Bold" font-weight="bold" font-size="36.0" fill="#838686" transform="matrix(1.00, 0.00, -0.00, -1.00, 284.5, 992.0)">U</text><text xml:space="preserve" font-family="DINAlternate-Bold" font-weight="bold" font-size="36.0" fill="#838686" transform="matrix(1.00, 0.00, -0.00, -1.00, 309.0, 992.0)">R</text><text xml:space="preserve" font-family="DINAlternate-Bold" font-weight="bold" font-size="36.0" fill="#838686" transform="matrix(1.00, 0.00, -0.00, -1.00, 332.7, 992.0)"> </text><text xml:space="preserve" font-family="DINAlternate-Bold" font-weight="bold" font-size="36.0" fill="#838686" transform="matrix(1.00, 0.00, -0.00, -1.00, 343.1, 992.0)">A</text><text xml:space="preserve" font-family="DINAlternate-Bold" font-weight="bold" font-size="36.0" fill="#838686" transform="matrix(1.00, 0.00, -0.00, -1.00, 366.9, 992.0)">B</text><text xml:space="preserve" font-family="DINAlternate-Bold" font-weight="bold" font-size="36.0" fill="#838686" transform="matrix(1.00, 0.00, -0.00, -1.00, 390.6, 992.0)">I</text><text xml:space="preserve" font-family="DINAlternate-Bold" font-weight="bold" font-size="36.0" fill="#838686" transform="matrix(1.00, 0.00, -0.00, -1.00, 401.7, 992.0)">L</text><text xml:space="preserve" font-family="DINAlternate-Bold" font-weight="bold" font-size="36.0" fill="#838686" transform="matrix(1.00, 0.00, -0.00, -1.00, 423.5, 992.0)">I</text><text xml:space="preserve" font-family="DINAlternate-Bold" font-weight="bold" font-size="36.0" fill="#838686" transform="matrix(1.00, 0.00, -0.00, -1.00, 434.6, 992.0)">T</text><text xml:space="preserve" font-family="DINAlternate-Bold" font-weight="bold" font-size="36.0" fill="#838686" transform="matrix(1.00, 0.00, -0.00, -1.00, 454.4, 992.0)">Y</text><text xml:space="preserve" font-family="DINAlternate-Bold" font-weight="bold" font-size="36.0" fill="#838686" transform="matrix(1.00, 0.00, -0.00, -1.00, 474.2, 992.0)"> </text><text xml:space="preserve" font-family="DINAlternate-Bold" font-weight="bold" font-size="36.0" fill="#838686" transform="matrix(1.00, 0.00, -0.00, -1.00, 484.6, 992.0)">T</text><text xml:space="preserve" font-family="DINAlternate-Bold" font-weight="bold" font-size="36.0" fill="#838686" transform="matrix(1.00, 0.00, -0.00, -1.00, 503.7, 992.0)">O</text><text xml:space="preserve" font-family="DINAlternate-Bold" font-weight="bold" font-size="36.0" fill="#838686" transform="matrix(1.00, 0.00, -0.00, -1.00, 527.5, 992.0)"> </text><text xml:space="preserve" font-family="DINAlternate-Bold" font-weight="bold" font-size="36.0" fill="#838686" transform="matrix(1.00, 0.00, -0.00, -1.00, 537.9, 992.0)">L</text><text xml:space="preserve" font-family="DINAlternate-Bold" font-weight="bold" font-size="36.0" fill="#838686" transform="matrix(1.00, 0.00, -0.00, -1.00, 559.7, 992.0)">E</text><text xml:space="preserve" font-family="DINAlternate-Bold" font-weight="bold" font-size="36.0" fill="#838686" transform="matrix(1.00, 0.00, -0.00, -1.00, 581.5, 992.0)">A</text><text xml:space="preserve" font-family="DINAlternate-Bold" font-weight="bold" font-size="36.0" fill="#838686" transform="matrix(1.00, 0.00, -0.00, -1.00, 605.3, 992.0)">R</text><text xml:space="preserve" font-family="DINAlternate-Bold" font-weight="bold" font-size="36.0" fill="#838686" transform="matrix(1.00, 0.00, -0.00, -1.00, 629.0, 992.0)">N</text></g></svg>