<?xml version="1.0" encoding="UTF-8" standalone="no"?><svg xmlns="http://www.w3.org/2000/svg" xmlns:xlink="http://www.w3.org/1999/xlink" clip-rule="evenodd" stroke-miterlimit="4.00" viewBox="0 0 1920 1080"><desc>SVG generated by Keynote</desc><defs></defs><g transform="matrix(1.00, 0.00, -0.00, -1.00, 0.0, 1080.0)"><path d="M 0.0 1080.0 L 1920.0 1080.0 L 1920.0 0.0 L 0.0 0.0 Z M 0.0 1080.0 " fill="#FFFFFF"></path><path d="M 0.0 0.0 L 1800.0 0.0 " fill="none" stroke="#A6AAA9" stroke-width="2.00" transform="matrix(1.00, 0.00, 0.00, -1.00, 60.0, 970.0)"></path><text xml:space="preserve" font-family="DINAlternate-Bold" font-weight="bold" font-size="36.0" fill="#838686" transform="matrix(1.00, 0.00, -0.00, -1.00, 64.0, 992.0)">M</text><text xml:space="preserve" font-family="DINAlternate-Bold" font-weight="bold" font-size="36.0" fill="#838686" transform="matrix(1.00, 0.00, -0.00, -1.00, 93.1, 992.0)">A</text><text xml:space="preserve" font-family="DINAlternate-Bold" font-weight="bold" font-size="36.0" fill="#838686" transform="matrix(1.00, 0.00, -0.00, -1.00, 116.8, 992.0)">X</text><text xml:space="preserve" font-family="DINAlternate-Bold" font-weight="bold" font-size="36.0" fill="#838686" transform="matrix(1.00, 0.00, -0.00, -1.00, 137.9, 992.0)">I</text><text xml:space="preserve" font-family="DINAlternate-Bold" font-weight="bold" font-size="36.0" fill="#838686" transform="matrix(1.00, 0.00, -0.00, -1.00, 149.0, 992.0)">M</text><text xml:space="preserve" font-family="DINAlternate-Bold" font-weight="bold" font-size="36.0" fill="#838686" transform="matrix(1.00, 0.00, -0.00, -1.00, 178.1, 992.0)">I</text><text xml:space="preserve" font-family="DINAlternate-Bold" font-weight="bold" font-size="36.0" fill="#838686" transform="matrix(1.00, 0.00, -0.00, -1.00, 189.1, 992.0)">Z</text><text xml:space="preserve" font-family="DINAlternate-Bold" font-weight="bold" font-size="36.0" fill="#838686" transform="matrix(1.00, 0.00, -0.00, -1.00, 209.6, 992.0)">E</text><text xml:space="preserve" font-family="DINAlternate-Bold" font-weight="bold" font-size="36.0" fill="#838686" transform="matrix(1.00, 0.00, -0.00, -1.00, 231.4, 992.0)"> </text><text xml:space="preserve" font-family="DINAlternate-Bold" font-weight="bold" font-size="36.0" fill="#838686" transform="matrix(1.00, 0.00, -0.00, -1.00, 241.9, 992.0)">Y</text><text xml:space="preserve" font-family="DINAlternate-Bold" font-weight="bold" font-size="36.0" fill="#838686" transform="matrix(1.00, 0.00, -0.00, -1.00, 260.7, 992.0)">O</text><text xml:space="preserve" font-family="DINAlternate-Bold" font-weight="bold" font-size="36.0" fill="#838686" transform="matrix(1.00, 0.00, -0.00, -1.00, 284.5, 992.0)">U</text><text xml:space="preserve" font-family="DINAlternate-Bold" font-weight="bold" font-size="36.0" fill="#838686" transform="matrix(1.00, 0.00, -0.00, -1.00, 309.0, 992.0)">R</text><text xml:space="preserve" font-family="DINAlternate-Bold" font-weight="bold" font-size="36.0" fill="#838686" transform="matrix(1.00, 0.00, -0.00, -1.00, 332.7, 992.0)"> </text><text xml:space="preserve" font-family="DINAlternate-Bold" font-weight="bold" font-size="36.0" fill="#838686" transform="matrix(1.00, 0.00, -0.00, -1.00, 343.1, 992.0)">A</text><text xml:space="preserve" font-family="DINAlternate-Bold" font-weight="bold" font-size="36.0" fill="#838686" transform="matrix(1.00, 0.00, -0.00, -1.00, 366.9, 992.0)">B</text><text xml:space="preserve" font-family="DINAlternate-Bold" font-weight="bold" font-size="36.0" fill="#838686" transform="matrix(1.00, 0.00, -0.00, -1.00, 390.6, 992.0)">I</text><text xml:space="preserve" font-family="DINAlternate-Bold" font-weight="bold" font-size="36.0" fill="#838686" transform="matrix(1.00, 0.00, -0.00, -1.00, 401.7, 992.0)">L</text><text xml:space="preserve" font-family="DINAlternate-Bold" font-weight="bold" font-size="36.0" fill="#838686" transform="matrix(1.00, 0.00, -0.00, -1.00, 423.5, 992.0)">I</text><text xml:space="preserve" font-family="DINAlternate-Bold" font-weight="bold" font-size="36.0" fill="#838686" transform="matrix(1.00, 0.00, -0.00, -1.00, 434.6, 992.0)">T</text><text xml:space="preserve" font-family="DINAlternate-Bold" font-weight="bold" font-size="36.0" fill="#838686" transform="matrix(1.00, 0.00, -0.00, -1.00, 454.4, 992.0)">Y</text><text xml:space="preserve" font-family="DINAlternate-Bold" font-weight="bold" font-size="36.0" fill="#838686" transform="matrix(1.00, 0.00, -0.00, -1.00, 474.2, 992.0)"> </text><text xml:space="preserve" font-family="DINAlternate-Bold" font-weight="bold" font-size="36.0" fill="#838686" transform="matrix(1.00, 0.00, -0.00, -1.00, 484.6, 992.0)">T</text><text xml:space="preserve" font-family="DINAlternate-Bold" font-weight="bold" font-size="36.0" fill="#838686" transform="matrix(1.00, 0.00, -0.00, -1.00, 503.7, 992.0)">O</text><text xml:space="preserve" font-family="DINAlternate-Bold" font-weight="bold" font-size="36.0" fill="#838686" transform="matrix(1.00, 0.00, -0.00, -1.00, 527.5, 992.0)"> </text><text xml:space="preserve" font-family="DINAlternate-Bold" font-weight="bold" font-size="36.0" fill="#838686" transform="matrix(1.00, 0.00, -0.00, -1.00, 537.9, 992.0)">L</text><text xml:space="preserve" font-family="DINAlternate-Bold" font-weight="bold" font-size="36.0" fill="#838686" transform="matrix(1.00, 0.00, -0.00, -1.00, 559.7, 992.0)">E</text><text xml:space="preserve" font-family="DINAlternate-Bold" font-weight="bold" font-size="36.0" fill="#838686" transform="matrix(1.00, 0.00, -0.00, -1.00, 581.5, 992.0)">A</text><text xml:space="preserve" font-family="DINAlternate-Bold" font-weight="bold" font-size="36.0" fill="#838686" transform="matrix(1.00, 0.00, -0.00, -1.00, 605.3, 992.0)">R</text><text xml:space="preserve" font-family="DINAlternate-Bold" font-weight="bold" font-size="36.0" fill="#838686" transform="matrix(1.00, 0.00, -0.00, -1.00, 629.0, 992.0)">N</text><g><clipPath id="clip-83"><path d="M 33.7 802.0 L 1886.3 802.0 L 1886.3 906.0 L 33.7 906.0 Z M 33.7 802.0 "></path></clipPath><g clip-path="url(#clip-83)"><text xml:space="preserve" font-family="DINCondensed-Bold" font-weight="bold" font-size="121.2" fill="#34A4DA" transform="matrix(1.00, 0.00, -0.00, -1.00, 64.0, 820.0)">S</text><text xml:space="preserve" font-family="DINCondensed-Bold" font-weight="bold" font-size="121.2" fill="#34A4DA" transform="matrix(1.00, 0.00, -0.00, -1.00, 113.2, 820.0)">U</text><text xml:space="preserve" font-family="DINCondensed-Bold" font-weight="bold" font-size="121.2" fill="#34A4DA" transform="matrix(1.00, 0.00, -0.00, -1.00, 164.8, 820.0)">R</text><text xml:space="preserve" font-family="DINCondensed-Bold" font-weight="bold" font-size="121.2" fill="#34A4DA" transform="matrix(1.00, 0.00, -0.00, -1.00, 216.5, 820.0)">P</text><text xml:space="preserve" font-family="DINCondensed-Bold" font-weight="bold" font-size="121.2" fill="#34A4DA" transform="matrix(1.00, 0.00, -0.00, -1.00, 265.8, 820.0)">R</text><text xml:space="preserve" font-family="DINCondensed-Bold" font-weight="bold" font-size="121.2" fill="#34A4DA" transform="matrix(1.00, 0.00, -0.00, -1.00, 317.4, 820.0)">I</text><text xml:space="preserve" font-family="DINCondensed-Bold" font-weight="bold" font-size="121.2" fill="#34A4DA" transform="matrix(1.00, 0.00, -0.00, -1.00, 342.2, 820.0)">S</text><text xml:space="preserve" font-family="DINCondensed-Bold" font-weight="bold" font-size="121.2" fill="#34A4DA" transform="matrix(1.00, 0.00, -0.00, -1.00, 391.4, 820.0)">E</text><text xml:space="preserve" font-family="DINCondensed-Bold" font-weight="bold" font-size="121.2" fill="#34A4DA" transform="matrix(1.00, 0.00, -0.00, -1.00, 436.2, 820.0)">D</text><text xml:space="preserve" font-family="DINCondensed-Bold" font-weight="bold" font-size="121.2" fill="#34A4DA" transform="matrix(1.00, 0.00, -0.00, -1.00, 487.8, 820.0)"> </text><text xml:space="preserve" font-family="DINCondensed-Bold" font-weight="bold" font-size="121.2" fill="#34A4DA" transform="matrix(1.00, 0.00, -0.00, -1.00, 510.4, 820.0)">(</text><text xml:space="preserve" font-family="DINCondensed-Bold" font-weight="bold" font-size="121.2" fill="#34A4DA" transform="matrix(1.00, 0.00, -0.00, -1.00, 537.3, 820.0)">E</text><text xml:space="preserve" font-family="DINCondensed-Bold" font-weight="bold" font-size="121.2" fill="#34A4DA" transform="matrix(1.00, 0.00, -0.00, -1.00, 582.1, 820.0)">)</text><text xml:space="preserve" font-family="DINCondensed-Bold" font-weight="bold" font-size="121.2" fill="#34A4DA" transform="matrix(1.00, 0.00, -0.00, -1.00, 609.0, 820.0)"> </text><text xml:space="preserve" font-family="DINCondensed-Bold" font-weight="bold" font-size="121.2" fill="#34A4DA" transform="matrix(1.00, 0.00, -0.00, -1.00, 631.6, 820.0)"> </text><text xml:space="preserve" font-family="DINCondensed-Bold" font-weight="bold" font-size="121.2" fill="#34A4DA" transform="matrix(1.00, 0.00, -0.00, -1.00, 654.1, 820.0)"> </text><text xml:space="preserve" font-family="DINCondensed-Bold" font-weight="bold" font-size="121.2" fill="#34A4DA" transform="matrix(1.00, 0.00, -0.00, -1.00, 676.7, 820.0)"> </text><text xml:space="preserve" font-family="DINCondensed-Bold" font-weight="bold" font-size="121.2" fill="#34A4DA" transform="matrix(1.00, 0.00, -0.00, -1.00, 699.2, 820.0)"> </text><text xml:space="preserve" font-family="DINCondensed-Bold" font-weight="bold" font-size="121.2" fill="#34A4DA" transform="matrix(1.00, 0.00, -0.00, -1.00, 721.8, 820.0)"> </text><text xml:space="preserve" font-family="DINCondensed-Bold" font-weight="bold" font-size="121.2" fill="#34A4DA" transform="matrix(1.00, 0.00, -0.00, -1.00, 744.3, 820.0)"> </text><text xml:space="preserve" font-family="DINCondensed-Bold" font-weight="bold" font-size="121.2" fill="#34A4DA" transform="matrix(1.00, 0.00, -0.00, -1.00, 766.8, 820.0)"> </text><text xml:space="preserve" font-family="DINCondensed-Bold" font-weight="bold" font-size="121.2" fill="#34A4DA" transform="matrix(1.00, 0.00, -0.00, -1.00, 789.4, 820.0)"> </text><text xml:space="preserve" font-family="DINCondensed-Bold" font-weight="bold" font-size="121.2" fill="#34A4DA" transform="matrix(1.00, 0.00, -0.00, -1.00, 811.9, 820.0)"> </text><text xml:space="preserve" font-family="DINCondensed-Bold" font-weight="bold" font-size="121.2" fill="#34A4DA" transform="matrix(1.00, 0.00, -0.00, -1.00, 834.5, 820.0)"> </text><text xml:space="preserve" font-family="DINCondensed-Bold" font-weight="bold" font-size="121.2" fill="#34A4DA" transform="matrix(1.00, 0.00, -0.00, -1.00, 857.0, 820.0)"> </text><text xml:space="preserve" font-family="DINCondensed-Bold" font-weight="bold" font-size="121.2" fill="#34A4DA" transform="matrix(1.00, 0.00, -0.00, -1.00, 879.6, 820.0)"> </text><text xml:space="preserve" font-family="DINCondensed-Bold" font-weight="bold" font-size="121.2" fill="#34A4DA" transform="matrix(1.00, 0.00, -0.00, -1.00, 902.1, 820.0)"> </text><text xml:space="preserve" font-family="DINCondensed-Bold" font-weight="bold" font-size="121.2" fill="#34A4DA" transform="matrix(1.00, 0.00, -0.00, -1.00, 924.6, 820.0)"> </text><text xml:space="preserve" font-family="DINCondensed-Bold" font-weight="bold" font-size="121.2" fill="#34A4DA" transform="matrix(1.00, 0.00, -0.00, -1.00, 947.2, 820.0)"> </text><text xml:space="preserve" font-family="DINCondensed-Bold" font-weight="bold" font-size="121.2" fill="#34A4DA" transform="matrix(1.00, 0.00, -0.00, -1.00, 969.7, 820.0)"> </text><text xml:space="preserve" font-family="DINCondensed-Bold" font-weight="bold" font-size="121.2" fill="#34A4DA" transform="matrix(1.00, 0.00, -0.00, -1.00, 992.3, 820.0)"> </text><text xml:space="preserve" font-family="DINCondensed-Bold" font-weight="bold" font-size="121.2" fill="#34A4DA" transform="matrix(1.00, 0.00, -0.00, -1.00, 1014.8, 820.0)"> </text><text xml:space="preserve" font-family="DINCondensed-Bold" font-weight="bold" font-size="121.2" fill="#34A4DA" transform="matrix(1.00, 0.00, -0.00, -1.00, 1037.4, 820.0)"> </text><text xml:space="preserve" font-family="DINCondensed-Bold" font-weight="bold" font-size="121.2" fill="#34A4DA" transform="matrix(1.00, 0.00, -0.00, -1.00, 1059.9, 820.0)"> </text><text xml:space="preserve" font-family="DINCondensed-Bold" font-weight="bold" font-size="121.2" fill="#34A4DA" transform="matrix(1.00, 0.00, -0.00, -1.00, 1082.4, 820.0)"> </text><text xml:space="preserve" font-family="DINCondensed-Bold" font-weight="bold" font-size="121.2" fill="#34A4DA" transform="matrix(1.00, 0.00, -0.00, -1.00, 1105.0, 820.0)"> </text><text xml:space="preserve" font-family="DINCondensed-Bold" font-weight="bold" font-size="121.2" fill="#34A4DA" transform="matrix(1.00, 0.00, -0.00, -1.00, 1127.5, 820.0)"> </text><text xml:space="preserve" font-family="DINCondensed-Bold" font-weight="bold" font-size="121.2" fill="#34A4DA" transform="matrix(1.00, 0.00, -0.00, -1.00, 1150.1, 820.0)"> </text><text xml:space="preserve" font-family="DINCondensed-Bold" font-weight="bold" font-size="121.2" fill="#34A4DA" transform="matrix(1.00, 0.00, -0.00, -1.00, 1172.6, 820.0)"> </text><text xml:space="preserve" font-family="DINCondensed-Bold" font-weight="bold" font-size="121.2" fill="#34A4DA" transform="matrix(1.00, 0.00, -0.00, -1.00, 1195.2, 820.0)"> </text><text xml:space="preserve" font-family="DINCondensed-Bold" font-weight="bold" font-size="121.2" fill="#34A4DA" transform="matrix(1.00, 0.00, -0.00, -1.00, 1217.7, 820.0)"> </text><text xml:space="preserve" font-family="DINCondensed-Bold" font-weight="bold" font-size="121.2" fill="#34A4DA" transform="matrix(1.00, 0.00, -0.00, -1.00, 1240.2, 820.0)"> </text><text xml:space="preserve" font-family="DINCondensed-Bold" font-weight="bold" font-size="121.2" fill="#34A4DA" transform="matrix(1.00, 0.00, -0.00, -1.00, 1262.8, 820.0)"> </text><text xml:space="preserve" font-family="DINCondensed-Bold" font-weight="bold" font-size="121.2" fill="#34A4DA" transform="matrix(1.00, 0.00, -0.00, -1.00, 1285.3, 820.0)"> </text><text xml:space="preserve" font-family="DINCondensed-Bold" font-weight="bold" font-size="121.2" fill="#34A4DA" transform="matrix(1.00, 0.00, -0.00, -1.00, 1307.9, 820.0)"> </text><text xml:space="preserve" font-family="DINCondensed-Bold" font-weight="bold" font-size="121.2" fill="#34A4DA" transform="matrix(1.00, 0.00, -0.00, -1.00, 1330.4, 820.0)"> </text><text xml:space="preserve" font-family="DINCondensed-Bold" font-weight="bold" font-size="121.2" fill="#34A4DA" transform="matrix(1.00, 0.00, -0.00, -1.00, 1353.0, 820.0)"> </text><text xml:space="preserve" font-family="DINCondensed-Bold" font-weight="bold" font-size="121.2" fill="#34A4DA" transform="matrix(1.00, 0.00, -0.00, -1.00, 1375.5, 820.0)"> </text><text xml:space="preserve" font-family="DINCondensed-Bold" font-weight="bold" font-size="121.2" fill="#34A4DA" transform="matrix(1.00, 0.00, -0.00, -1.00, 1398.0, 820.0)">S</text><text xml:space="preserve" font-family="DINCondensed-Bold" font-weight="bold" font-size="121.2" fill="#34A4DA" transform="matrix(1.00, 0.00, -0.00, -1.00, 1447.3, 820.0)">C</text><text xml:space="preserve" font-family="DINCondensed-Bold" font-weight="bold" font-size="121.2" fill="#34A4DA" transform="matrix(1.00, 0.00, -0.00, -1.00, 1496.6, 820.0)">A</text><text xml:space="preserve" font-family="DINCondensed-Bold" font-weight="bold" font-size="121.2" fill="#34A4DA" transform="matrix(1.00, 0.00, -0.00, -1.00, 1545.9, 820.0)">R</text><text xml:space="preserve" font-family="DINCondensed-Bold" font-weight="bold" font-size="121.2" fill="#34A4DA" transform="matrix(1.00, 0.00, -0.00, -1.00, 1597.5, 820.0)">E</text><text xml:space="preserve" font-family="DINCondensed-Bold" font-weight="bold" font-size="121.2" fill="#34A4DA" transform="matrix(1.00, 0.00, -0.00, -1.00, 1642.4, 820.0)">D</text><text xml:space="preserve" font-family="DINCondensed-Bold" font-weight="bold" font-size="121.2" fill="#34A4DA" transform="matrix(1.00, 0.00, -0.00, -1.00, 1694.0, 820.0)"> </text><text xml:space="preserve" font-family="DINCondensed-Bold" font-weight="bold" font-size="121.2" fill="#34A4DA" transform="matrix(1.00, 0.00, -0.00, -1.00, 1716.6, 820.0)">(</text><text xml:space="preserve" font-family="DINCondensed-Bold" font-weight="bold" font-size="121.2" fill="#34A4DA" transform="matrix(1.00, 0.00, -0.00, -1.00, 1743.5, 820.0)">M</text><text xml:space="preserve" font-family="DINCondensed-Bold" font-weight="bold" font-size="121.2" fill="#34A4DA" transform="matrix(1.00, 0.00, -0.00, -1.00, 1810.9, 820.0)">)</text></g></g><image xlink:href="../../85991003-79EE-40F2-936C-4B166B53B98D/assets/23E307E35B48AAF14966A8DD3FB6686C.jpeg" width="928.00" height="650.00" transform="matrix(1.00, 0.00, -0.00, -1.00, 519.0, 728.0)"></image></g></svg>