<?xml version="1.0" encoding="UTF-8" standalone="no"?><svg xmlns="http://www.w3.org/2000/svg" xmlns:xlink="http://www.w3.org/1999/xlink" clip-rule="evenodd" stroke-miterlimit="4.00" viewBox="0 0 1920 1080"><desc>SVG generated by Keynote</desc><defs></defs><g transform="matrix(1.00, 0.00, -0.00, -1.00, 0.0, 1080.0)"><path d="M 0.0 1080.0 L 1920.0 1080.0 L 1920.0 0.0 L 0.0 0.0 Z M 0.0 1080.0 " fill="#FFFFFF"></path><path d="M 0.0 0.0 L 1800.0 0.0 " fill="none" stroke="#A6AAA9" stroke-width="2.00" transform="matrix(1.00, 0.00, 0.00, -1.00, 60.0, 970.0)"></path><text xml:space="preserve" font-family="DINAlternate-Bold" font-weight="bold" font-size="36.0" fill="#838686" transform="matrix(1.00, 0.00, -0.00, -1.00, 64.0, 992.0)">M</text><text xml:space="preserve" font-family="DINAlternate-Bold" font-weight="bold" font-size="36.0" fill="#838686" transform="matrix(1.00, 0.00, -0.00, -1.00, 93.1, 992.0)">A</text><text xml:space="preserve" font-family="DINAlternate-Bold" font-weight="bold" font-size="36.0" fill="#838686" transform="matrix(1.00, 0.00, -0.00, -1.00, 116.8, 992.0)">X</text><text xml:space="preserve" font-family="DINAlternate-Bold" font-weight="bold" font-size="36.0" fill="#838686" transform="matrix(1.00, 0.00, -0.00, -1.00, 137.9, 992.0)">I</text><text xml:space="preserve" font-family="DINAlternate-Bold" font-weight="bold" font-size="36.0" fill="#838686" transform="matrix(1.00, 0.00, -0.00, -1.00, 149.0, 992.0)">M</text><text xml:space="preserve" font-family="DINAlternate-Bold" font-weight="bold" font-size="36.0" fill="#838686" transform="matrix(1.00, 0.00, -0.00, -1.00, 178.1, 992.0)">I</text><text xml:space="preserve" font-family="DINAlternate-Bold" font-weight="bold" font-size="36.0" fill="#838686" transform="matrix(1.00, 0.00, -0.00, -1.00, 189.1, 992.0)">Z</text><text xml:space="preserve" font-family="DINAlternate-Bold" font-weight="bold" font-size="36.0" fill="#838686" transform="matrix(1.00, 0.00, -0.00, -1.00, 209.6, 992.0)">E</text><text xml:space="preserve" font-family="DINAlternate-Bold" font-weight="bold" font-size="36.0" fill="#838686" transform="matrix(1.00, 0.00, -0.00, -1.00, 231.4, 992.0)"> </text><text xml:space="preserve" font-family="DINAlternate-Bold" font-weight="bold" font-size="36.0" fill="#838686" transform="matrix(1.00, 0.00, -0.00, -1.00, 241.9, 992.0)">Y</text><text xml:space="preserve" font-family="DINAlternate-Bold" font-weight="bold" font-size="36.0" fill="#838686" transform="matrix(1.00, 0.00, -0.00, -1.00, 260.7, 992.0)">O</text><text xml:space="preserve" font-family="DINAlternate-Bold" font-weight="bold" font-size="36.0" fill="#838686" transform="matrix(1.00, 0.00, -0.00, -1.00, 284.5, 992.0)">U</text><text xml:space="preserve" font-family="DINAlternate-Bold" font-weight="bold" font-size="36.0" fill="#838686" transform="matrix(1.00, 0.00, -0.00, -1.00, 309.0, 992.0)">R</text><text xml:space="preserve" font-family="DINAlternate-Bold" font-weight="bold" font-size="36.0" fill="#838686" transform="matrix(1.00, 0.00, -0.00, -1.00, 332.7, 992.0)"> </text><text xml:space="preserve" font-family="DINAlternate-Bold" font-weight="bold" font-size="36.0" fill="#838686" transform="matrix(1.00, 0.00, -0.00, -1.00, 343.1, 992.0)">A</text><text xml:space="preserve" font-family="DINAlternate-Bold" font-weight="bold" font-size="36.0" fill="#838686" transform="matrix(1.00, 0.00, -0.00, -1.00, 366.9, 992.0)">B</text><text xml:space="preserve" font-family="DINAlternate-Bold" font-weight="bold" font-size="36.0" fill="#838686" transform="matrix(1.00, 0.00, -0.00, -1.00, 390.6, 992.0)">I</text><text xml:space="preserve" font-family="DINAlternate-Bold" font-weight="bold" font-size="36.0" fill="#838686" transform="matrix(1.00, 0.00, -0.00, -1.00, 401.7, 992.0)">L</text><text xml:space="preserve" font-family="DINAlternate-Bold" font-weight="bold" font-size="36.0" fill="#838686" transform="matrix(1.00, 0.00, -0.00, -1.00, 423.5, 992.0)">I</text><text xml:space="preserve" font-family="DINAlternate-Bold" font-weight="bold" font-size="36.0" fill="#838686" transform="matrix(1.00, 0.00, -0.00, -1.00, 434.6, 992.0)">T</text><text xml:space="preserve" font-family="DINAlternate-Bold" font-weight="bold" font-size="36.0" fill="#838686" transform="matrix(1.00, 0.00, -0.00, -1.00, 454.4, 992.0)">Y</text><text xml:space="preserve" font-family="DINAlternate-Bold" font-weight="bold" font-size="36.0" fill="#838686" transform="matrix(1.00, 0.00, -0.00, -1.00, 474.2, 992.0)"> </text><text xml:space="preserve" font-family="DINAlternate-Bold" font-weight="bold" font-size="36.0" fill="#838686" transform="matrix(1.00, 0.00, -0.00, -1.00, 484.6, 992.0)">T</text><text xml:space="preserve" font-family="DINAlternate-Bold" font-weight="bold" font-size="36.0" fill="#838686" transform="matrix(1.00, 0.00, -0.00, -1.00, 503.7, 992.0)">O</text><text xml:space="preserve" font-family="DINAlternate-Bold" font-weight="bold" font-size="36.0" fill="#838686" transform="matrix(1.00, 0.00, -0.00, -1.00, 527.5, 992.0)"> </text><text xml:space="preserve" font-family="DINAlternate-Bold" font-weight="bold" font-size="36.0" fill="#838686" transform="matrix(1.00, 0.00, -0.00, -1.00, 537.9, 992.0)">L</text><text xml:space="preserve" font-family="DINAlternate-Bold" font-weight="bold" font-size="36.0" fill="#838686" transform="matrix(1.00, 0.00, -0.00, -1.00, 559.7, 992.0)">E</text><text xml:space="preserve" font-family="DINAlternate-Bold" font-weight="bold" font-size="36.0" fill="#838686" transform="matrix(1.00, 0.00, -0.00, -1.00, 581.5, 992.0)">A</text><text xml:space="preserve" font-family="DINAlternate-Bold" font-weight="bold" font-size="36.0" fill="#838686" transform="matrix(1.00, 0.00, -0.00, -1.00, 605.3, 992.0)">R</text><text xml:space="preserve" font-family="DINAlternate-Bold" font-weight="bold" font-size="36.0" fill="#838686" transform="matrix(1.00, 0.00, -0.00, -1.00, 629.0, 992.0)">N</text><text xml:space="preserve" font-family="DINCondensed-Bold" font-weight="bold" font-size="72.0" fill="#34A4DA" transform="matrix(1.00, 0.00, -0.00, -1.00, 64.0, 855.0)">W</text><text xml:space="preserve" font-family="DINCondensed-Bold" font-weight="bold" font-size="72.0" fill="#34A4DA" transform="matrix(1.00, 0.00, -0.00, -1.00, 106.7, 855.0)">H</text><text xml:space="preserve" font-family="DINCondensed-Bold" font-weight="bold" font-size="72.0" fill="#34A4DA" transform="matrix(1.00, 0.00, -0.00, -1.00, 137.4, 855.0)">Y</text><text xml:space="preserve" font-family="DINCondensed-Bold" font-weight="bold" font-size="72.0" fill="#34A4DA" transform="matrix(1.00, 0.00, -0.00, -1.00, 165.3, 855.0)"> </text><text xml:space="preserve" font-family="DINCondensed-Bold" font-weight="bold" font-size="72.0" fill="#34A4DA" transform="matrix(1.00, 0.00, -0.00, -1.00, 178.7, 855.0)">G</text><text xml:space="preserve" font-family="DINCondensed-Bold" font-weight="bold" font-size="72.0" fill="#34A4DA" transform="matrix(1.00, 0.00, -0.00, -1.00, 209.4, 855.0)">R</text><text xml:space="preserve" font-family="DINCondensed-Bold" font-weight="bold" font-size="72.0" fill="#34A4DA" transform="matrix(1.00, 0.00, -0.00, -1.00, 240.0, 855.0)">O</text><text xml:space="preserve" font-family="DINCondensed-Bold" font-weight="bold" font-size="72.0" fill="#34A4DA" transform="matrix(1.00, 0.00, -0.00, -1.00, 270.7, 855.0)">U</text><text xml:space="preserve" font-family="DINCondensed-Bold" font-weight="bold" font-size="72.0" fill="#34A4DA" transform="matrix(1.00, 0.00, -0.00, -1.00, 301.4, 855.0)">P</text><text xml:space="preserve" font-family="DINCondensed-Bold" font-weight="bold" font-size="72.0" fill="#34A4DA" transform="matrix(1.00, 0.00, -0.00, -1.00, 330.7, 855.0)">S</text><text xml:space="preserve" font-family="DINCondensed-Bold" font-weight="bold" font-size="72.0" fill="#34A4DA" transform="matrix(1.00, 0.00, -0.00, -1.00, 359.9, 855.0)">?</text><text xml:space="preserve" font-family="AvenirNext-Medium" font-size="64.0" fill="#838686" transform="matrix(1.00, 0.00, -0.00, -1.00, 274.0, 612.0)">T</text><text xml:space="preserve" font-family="AvenirNext-Medium" font-size="64.0" fill="#838686" transform="matrix(1.00, 0.00, -0.00, -1.00, 309.3, 612.0)">h</text><text xml:space="preserve" font-family="AvenirNext-Medium" font-size="64.0" fill="#838686" transform="matrix(1.00, 0.00, -0.00, -1.00, 346.6, 612.0)">e</text><text xml:space="preserve" font-family="AvenirNext-Medium" font-size="64.0" fill="#838686" transform="matrix(1.00, 0.00, -0.00, -1.00, 383.3, 612.0)"> </text><text xml:space="preserve" font-family="AvenirNext-Medium" font-size="64.0" fill="#838686" transform="matrix(1.00, 0.00, -0.00, -1.00, 399.3, 612.0)">b</text><text xml:space="preserve" font-family="AvenirNext-Medium" font-size="64.0" fill="#838686" transform="matrix(1.00, 0.00, -0.00, -1.00, 440.0, 612.0)">e</text><text xml:space="preserve" font-family="AvenirNext-Medium" font-size="64.0" fill="#838686" transform="matrix(1.00, 0.00, -0.00, -1.00, 476.7, 612.0)">n</text><text xml:space="preserve" font-family="AvenirNext-Medium" font-size="64.0" fill="#838686" transform="matrix(1.00, 0.00, -0.00, -1.00, 513.9, 612.0)">e</text><text xml:space="preserve" font-family="AvenirNext-Medium" font-size="64.0" fill="#838686" transform="matrix(1.00, 0.00, -0.00, -1.00, 550.6, 612.0)">ﬁ</text><text xml:space="preserve" font-family="AvenirNext-Medium" font-size="64.0" fill="#838686" transform="matrix(1.00, 0.00, -0.00, -1.00, 587.3, 612.0)">t</text><text xml:space="preserve" font-family="AvenirNext-Medium" font-size="64.0" fill="#838686" transform="matrix(1.00, 0.00, -0.00, -1.00, 608.4, 612.0)">s</text><text xml:space="preserve" font-family="AvenirNext-Medium" font-size="64.0" fill="#838686" transform="matrix(1.00, 0.00, -0.00, -1.00, 636.8, 612.0)"> </text><text xml:space="preserve" font-family="AvenirNext-Medium" font-size="64.0" fill="#838686" transform="matrix(1.00, 0.00, -0.00, -1.00, 652.8, 612.0)">o</text><text xml:space="preserve" font-family="AvenirNext-Medium" font-size="64.0" fill="#838686" transform="matrix(1.00, 0.00, -0.00, -1.00, 691.9, 612.0)">f</text><text xml:space="preserve" font-family="AvenirNext-Medium" font-size="64.0" fill="#838686" transform="matrix(1.00, 0.00, -0.00, -1.00, 713.2, 612.0)"> </text><text xml:space="preserve" font-family="AvenirNext-Medium" font-size="64.0" fill="#838686" transform="matrix(1.00, 0.00, -0.00, -1.00, 729.2, 612.0)">l</text><text xml:space="preserve" font-family="AvenirNext-Medium" font-size="64.0" fill="#838686" transform="matrix(1.00, 0.00, -0.00, -1.00, 745.9, 612.0)">e</text><text xml:space="preserve" font-family="AvenirNext-Medium" font-size="64.0" fill="#838686" transform="matrix(1.00, 0.00, -0.00, -1.00, 782.2, 612.0)">a</text><text xml:space="preserve" font-family="AvenirNext-Medium" font-size="64.0" fill="#838686" transform="matrix(1.00, 0.00, -0.00, -1.00, 816.8, 612.0)">r</text><text xml:space="preserve" font-family="AvenirNext-Medium" font-size="64.0" fill="#838686" transform="matrix(1.00, 0.00, -0.00, -1.00, 840.0, 612.0)">n</text><text xml:space="preserve" font-family="AvenirNext-Medium" font-size="64.0" fill="#838686" transform="matrix(1.00, 0.00, -0.00, -1.00, 877.3, 612.0)">i</text><text xml:space="preserve" font-family="AvenirNext-Medium" font-size="64.0" fill="#838686" transform="matrix(1.00, 0.00, -0.00, -1.00, 893.8, 612.0)">n</text><text xml:space="preserve" font-family="AvenirNext-Medium" font-size="64.0" fill="#838686" transform="matrix(1.00, 0.00, -0.00, -1.00, 931.1, 612.0)">g</text><text xml:space="preserve" font-family="AvenirNext-Medium" font-size="64.0" fill="#838686" transform="matrix(1.00, 0.00, -0.00, -1.00, 971.5, 612.0)"> </text><text xml:space="preserve" font-family="AvenirNext-Medium" font-size="64.0" fill="#838686" transform="matrix(1.00, 0.00, -0.00, -1.00, 987.5, 612.0)">i</text><text xml:space="preserve" font-family="AvenirNext-Medium" font-size="64.0" fill="#838686" transform="matrix(1.00, 0.00, -0.00, -1.00, 1004.1, 612.0)">n</text><text xml:space="preserve" font-family="AvenirNext-Medium" font-size="64.0" fill="#838686" transform="matrix(1.00, 0.00, -0.00, -1.00, 1041.4, 612.0)"> </text><text xml:space="preserve" font-family="AvenirNext-Medium" font-size="64.0" fill="#838686" transform="matrix(1.00, 0.00, -0.00, -1.00, 1057.4, 612.0)">a</text><text xml:space="preserve" font-family="AvenirNext-Medium" font-size="64.0" fill="#838686" transform="matrix(1.00, 0.00, -0.00, -1.00, 1092.0, 612.0)"> </text><text xml:space="preserve" font-family="AvenirNext-Medium" font-size="64.0" fill="#838686" transform="matrix(1.00, 0.00, -0.00, -1.00, 1108.0, 612.0)">t</text><text xml:space="preserve" font-family="AvenirNext-Medium" font-size="64.0" fill="#838686" transform="matrix(1.00, 0.00, -0.00, -1.00, 1129.1, 612.0)">e</text><text xml:space="preserve" font-family="AvenirNext-Medium" font-size="64.0" fill="#838686" transform="matrix(1.00, 0.00, -0.00, -1.00, 1165.4, 612.0)">a</text><text xml:space="preserve" font-family="AvenirNext-Medium" font-size="64.0" fill="#838686" transform="matrix(1.00, 0.00, -0.00, -1.00, 1200.1, 612.0)">m</text><text xml:space="preserve" font-family="AvenirNext-Medium" font-size="64.0" fill="#838686" transform="matrix(1.00, 0.00, -0.00, -1.00, 1256.8, 612.0)"> </text><text xml:space="preserve" font-family="AvenirNext-Medium" font-size="64.0" fill="#838686" transform="matrix(1.00, 0.00, -0.00, -1.00, 1272.8, 612.0)">e</text><text xml:space="preserve" font-family="AvenirNext-Medium" font-size="64.0" fill="#838686" transform="matrix(1.00, 0.00, -0.00, -1.00, 1309.5, 612.0)">n</text><text xml:space="preserve" font-family="AvenirNext-Medium" font-size="64.0" fill="#838686" transform="matrix(1.00, 0.00, -0.00, -1.00, 1346.8, 612.0)">v</text><text xml:space="preserve" font-family="AvenirNext-Medium" font-size="64.0" fill="#838686" transform="matrix(1.00, 0.00, -0.00, -1.00, 1379.0, 612.0)">i</text><text xml:space="preserve" font-family="AvenirNext-Medium" font-size="64.0" fill="#838686" transform="matrix(1.00, 0.00, -0.00, -1.00, 1395.6, 612.0)">r</text><text xml:space="preserve" font-family="AvenirNext-Medium" font-size="64.0" fill="#838686" transform="matrix(1.00, 0.00, -0.00, -1.00, 1417.6, 612.0)">o</text><text xml:space="preserve" font-family="AvenirNext-Medium" font-size="64.0" fill="#838686" transform="matrix(1.00, 0.00, -0.00, -1.00, 1456.7, 612.0)">n</text><text xml:space="preserve" font-family="AvenirNext-Medium" font-size="64.0" fill="#838686" transform="matrix(1.00, 0.00, -0.00, -1.00, 1493.9, 612.0)">m</text><text xml:space="preserve" font-family="AvenirNext-Medium" font-size="64.0" fill="#838686" transform="matrix(1.00, 0.00, -0.00, -1.00, 1550.7, 612.0)">e</text><text xml:space="preserve" font-family="AvenirNext-Medium" font-size="64.0" fill="#838686" transform="matrix(1.00, 0.00, -0.00, -1.00, 1587.3, 612.0)">n</text><text xml:space="preserve" font-family="AvenirNext-Medium" font-size="64.0" fill="#838686" transform="matrix(1.00, 0.00, -0.00, -1.00, 1624.6, 612.0)">t</text><text xml:space="preserve" font-family="AvenirNext-Medium" font-size="64.0" fill="#838686" transform="matrix(1.00, 0.00, -0.00, -1.00, 1645.6, 612.0)"> </text><text xml:space="preserve" font-family="AvenirNext-Medium" font-size="64.0" fill="#838686" transform="matrix(1.00, 0.00, -0.00, -1.00, 504.0, 525.0)">q</text><text xml:space="preserve" font-family="AvenirNext-Medium" font-size="64.0" fill="#838686" transform="matrix(1.00, 0.00, -0.00, -1.00, 544.5, 525.0)">u</text><text xml:space="preserve" font-family="AvenirNext-Medium" font-size="64.0" fill="#838686" transform="matrix(1.00, 0.00, -0.00, -1.00, 581.8, 525.0)">i</text><text xml:space="preserve" font-family="AvenirNext-Medium" font-size="64.0" fill="#838686" transform="matrix(1.00, 0.00, -0.00, -1.00, 598.3, 525.0)">c</text><text xml:space="preserve" font-family="AvenirNext-Medium" font-size="64.0" fill="#838686" transform="matrix(1.00, 0.00, -0.00, -1.00, 630.0, 525.0)">k</text><text xml:space="preserve" font-family="AvenirNext-Medium" font-size="64.0" fill="#838686" transform="matrix(1.00, 0.00, -0.00, -1.00, 663.7, 525.0)">l</text><text xml:space="preserve" font-family="AvenirNext-Medium" font-size="64.0" fill="#838686" transform="matrix(1.00, 0.00, -0.00, -1.00, 680.3, 525.0)">y</text><text xml:space="preserve" font-family="AvenirNext-Medium" font-size="64.0" fill="#838686" transform="matrix(1.00, 0.00, -0.00, -1.00, 710.3, 525.0)">,</text><text xml:space="preserve" font-family="AvenirNext-Medium" font-size="64.0" fill="#838686" transform="matrix(1.00, 0.00, -0.00, -1.00, 725.0, 525.0)"> </text><text xml:space="preserve" font-family="AvenirNext-Medium" font-size="64.0" fill="#838686" transform="matrix(1.00, 0.00, -0.00, -1.00, 741.0, 525.0)">a</text><text xml:space="preserve" font-family="AvenirNext-Medium" font-size="64.0" fill="#838686" transform="matrix(1.00, 0.00, -0.00, -1.00, 775.7, 525.0)">n</text><text xml:space="preserve" font-family="AvenirNext-Medium" font-size="64.0" fill="#838686" transform="matrix(1.00, 0.00, -0.00, -1.00, 812.9, 525.0)">d</text><text xml:space="preserve" font-family="AvenirNext-Medium" font-size="64.0" fill="#838686" transform="matrix(1.00, 0.00, -0.00, -1.00, 853.6, 525.0)"> </text><text xml:space="preserve" font-family="AvenirNext-Medium" font-size="64.0" fill="#838686" transform="matrix(1.00, 0.00, -0.00, -1.00, 869.6, 525.0)">f</text><text xml:space="preserve" font-family="AvenirNext-Medium" font-size="64.0" fill="#838686" transform="matrix(1.00, 0.00, -0.00, -1.00, 889.4, 525.0)">o</text><text xml:space="preserve" font-family="AvenirNext-Medium" font-size="64.0" fill="#838686" transform="matrix(1.00, 0.00, -0.00, -1.00, 928.4, 525.0)">r</text><text xml:space="preserve" font-family="AvenirNext-Medium" font-size="64.0" fill="#838686" transform="matrix(1.00, 0.00, -0.00, -1.00, 950.5, 525.0)">c</text><text xml:space="preserve" font-family="AvenirNext-Medium" font-size="64.0" fill="#838686" transform="matrix(1.00, 0.00, -0.00, -1.00, 982.1, 525.0)">e</text><text xml:space="preserve" font-family="AvenirNext-Medium" font-size="64.0" fill="#838686" transform="matrix(1.00, 0.00, -0.00, -1.00, 1018.8, 525.0)">f</text><text xml:space="preserve" font-family="AvenirNext-Medium" font-size="64.0" fill="#838686" transform="matrix(1.00, 0.00, -0.00, -1.00, 1038.6, 525.0)">u</text><text xml:space="preserve" font-family="AvenirNext-Medium" font-size="64.0" fill="#838686" transform="matrix(1.00, 0.00, -0.00, -1.00, 1075.8, 525.0)">l</text><text xml:space="preserve" font-family="AvenirNext-Medium" font-size="64.0" fill="#838686" transform="matrix(1.00, 0.00, -0.00, -1.00, 1092.5, 525.0)">l</text><text xml:space="preserve" font-family="AvenirNext-Medium" font-size="64.0" fill="#838686" transform="matrix(1.00, 0.00, -0.00, -1.00, 1109.1, 525.0)">y</text><text xml:space="preserve" font-family="AvenirNext-Medium" font-size="64.0" fill="#838686" transform="matrix(1.00, 0.00, -0.00, -1.00, 1139.1, 525.0)">,</text><text xml:space="preserve" font-family="AvenirNext-Medium" font-size="64.0" fill="#838686" transform="matrix(1.00, 0.00, -0.00, -1.00, 1153.8, 525.0)"> </text><text xml:space="preserve" font-family="AvenirNext-Medium" font-size="64.0" fill="#838686" transform="matrix(1.00, 0.00, -0.00, -1.00, 1169.8, 525.0)">e</text><text xml:space="preserve" font-family="AvenirNext-Medium" font-size="64.0" fill="#838686" transform="matrix(1.00, 0.00, -0.00, -1.00, 1206.5, 525.0)">m</text><text xml:space="preserve" font-family="AvenirNext-Medium" font-size="64.0" fill="#838686" transform="matrix(1.00, 0.00, -0.00, -1.00, 1263.2, 525.0)">e</text><text xml:space="preserve" font-family="AvenirNext-Medium" font-size="64.0" fill="#838686" transform="matrix(1.00, 0.00, -0.00, -1.00, 1299.9, 525.0)">r</text><text xml:space="preserve" font-family="AvenirNext-Medium" font-size="64.0" fill="#838686" transform="matrix(1.00, 0.00, -0.00, -1.00, 1321.9, 525.0)">g</text><text xml:space="preserve" font-family="AvenirNext-Medium" font-size="64.0" fill="#838686" transform="matrix(1.00, 0.00, -0.00, -1.00, 1362.4, 525.0)">e</text><text xml:space="preserve" font-family="AvenirNext-Medium" font-size="64.0" fill="#838686" transform="matrix(1.00, 0.00, -0.00, -1.00, 1399.0, 525.0)">.</text></g></svg>