<?xml version="1.0" encoding="UTF-8" standalone="no"?><svg xmlns="http://www.w3.org/2000/svg" xmlns:xlink="http://www.w3.org/1999/xlink" clip-rule="evenodd" stroke-miterlimit="4.00" viewBox="0 0 1920 1080"><desc>SVG generated by Keynote</desc><defs></defs><g transform="matrix(1.00, 0.00, -0.00, -1.00, 0.0, 1080.0)"><path d="M 0.0 1080.0 L 1920.0 1080.0 L 1920.0 0.0 L 0.0 0.0 Z M 0.0 1080.0 " fill="#FFFFFF"></path><path d="M 0.0 0.0 L 1800.0 0.0 " fill="none" stroke="#A6AAA9" stroke-width="2.00" transform="matrix(1.00, 0.00, 0.00, -1.00, 60.0, 970.0)"></path><text xml:space="preserve" font-family="DINAlternate-Bold" font-weight="bold" font-size="36.0" fill="#838686" transform="matrix(1.00, 0.00, -0.00, -1.00, 64.0, 992.0)">M</text><text xml:space="preserve" font-family="DINAlternate-Bold" font-weight="bold" font-size="36.0" fill="#838686" transform="matrix(1.00, 0.00, -0.00, -1.00, 93.1, 992.0)">A</text><text xml:space="preserve" font-family="DINAlternate-Bold" font-weight="bold" font-size="36.0" fill="#838686" transform="matrix(1.00, 0.00, -0.00, -1.00, 116.8, 992.0)">X</text><text xml:space="preserve" font-family="DINAlternate-Bold" font-weight="bold" font-size="36.0" fill="#838686" transform="matrix(1.00, 0.00, -0.00, -1.00, 137.9, 992.0)">I</text><text xml:space="preserve" font-family="DINAlternate-Bold" font-weight="bold" font-size="36.0" fill="#838686" transform="matrix(1.00, 0.00, -0.00, -1.00, 149.0, 992.0)">M</text><text xml:space="preserve" font-family="DINAlternate-Bold" font-weight="bold" font-size="36.0" fill="#838686" transform="matrix(1.00, 0.00, -0.00, -1.00, 178.1, 992.0)">I</text><text xml:space="preserve" font-family="DINAlternate-Bold" font-weight="bold" font-size="36.0" fill="#838686" transform="matrix(1.00, 0.00, -0.00, -1.00, 189.1, 992.0)">Z</text><text xml:space="preserve" font-family="DINAlternate-Bold" font-weight="bold" font-size="36.0" fill="#838686" transform="matrix(1.00, 0.00, -0.00, -1.00, 209.6, 992.0)">E</text><text xml:space="preserve" font-family="DINAlternate-Bold" font-weight="bold" font-size="36.0" fill="#838686" transform="matrix(1.00, 0.00, -0.00, -1.00, 231.4, 992.0)"> </text><text xml:space="preserve" font-family="DINAlternate-Bold" font-weight="bold" font-size="36.0" fill="#838686" transform="matrix(1.00, 0.00, -0.00, -1.00, 241.9, 992.0)">Y</text><text xml:space="preserve" font-family="DINAlternate-Bold" font-weight="bold" font-size="36.0" fill="#838686" transform="matrix(1.00, 0.00, -0.00, -1.00, 260.7, 992.0)">O</text><text xml:space="preserve" font-family="DINAlternate-Bold" font-weight="bold" font-size="36.0" fill="#838686" transform="matrix(1.00, 0.00, -0.00, -1.00, 284.5, 992.0)">U</text><text xml:space="preserve" font-family="DINAlternate-Bold" font-weight="bold" font-size="36.0" fill="#838686" transform="matrix(1.00, 0.00, -0.00, -1.00, 309.0, 992.0)">R</text><text xml:space="preserve" font-family="DINAlternate-Bold" font-weight="bold" font-size="36.0" fill="#838686" transform="matrix(1.00, 0.00, -0.00, -1.00, 332.7, 992.0)"> </text><text xml:space="preserve" font-family="DINAlternate-Bold" font-weight="bold" font-size="36.0" fill="#838686" transform="matrix(1.00, 0.00, -0.00, -1.00, 343.1, 992.0)">A</text><text xml:space="preserve" font-family="DINAlternate-Bold" font-weight="bold" font-size="36.0" fill="#838686" transform="matrix(1.00, 0.00, -0.00, -1.00, 366.9, 992.0)">B</text><text xml:space="preserve" font-family="DINAlternate-Bold" font-weight="bold" font-size="36.0" fill="#838686" transform="matrix(1.00, 0.00, -0.00, -1.00, 390.6, 992.0)">I</text><text xml:space="preserve" font-family="DINAlternate-Bold" font-weight="bold" font-size="36.0" fill="#838686" transform="matrix(1.00, 0.00, -0.00, -1.00, 401.7, 992.0)">L</text><text xml:space="preserve" font-family="DINAlternate-Bold" font-weight="bold" font-size="36.0" fill="#838686" transform="matrix(1.00, 0.00, -0.00, -1.00, 423.5, 992.0)">I</text><text xml:space="preserve" font-family="DINAlternate-Bold" font-weight="bold" font-size="36.0" fill="#838686" transform="matrix(1.00, 0.00, -0.00, -1.00, 434.6, 992.0)">T</text><text xml:space="preserve" font-family="DINAlternate-Bold" font-weight="bold" font-size="36.0" fill="#838686" transform="matrix(1.00, 0.00, -0.00, -1.00, 454.4, 992.0)">Y</text><text xml:space="preserve" font-family="DINAlternate-Bold" font-weight="bold" font-size="36.0" fill="#838686" transform="matrix(1.00, 0.00, -0.00, -1.00, 474.2, 992.0)"> </text><text xml:space="preserve" font-family="DINAlternate-Bold" font-weight="bold" font-size="36.0" fill="#838686" transform="matrix(1.00, 0.00, -0.00, -1.00, 484.6, 992.0)">T</text><text xml:space="preserve" font-family="DINAlternate-Bold" font-weight="bold" font-size="36.0" fill="#838686" transform="matrix(1.00, 0.00, -0.00, -1.00, 503.7, 992.0)">O</text><text xml:space="preserve" font-family="DINAlternate-Bold" font-weight="bold" font-size="36.0" fill="#838686" transform="matrix(1.00, 0.00, -0.00, -1.00, 527.5, 992.0)"> </text><text xml:space="preserve" font-family="DINAlternate-Bold" font-weight="bold" font-size="36.0" fill="#838686" transform="matrix(1.00, 0.00, -0.00, -1.00, 537.9, 992.0)">L</text><text xml:space="preserve" font-family="DINAlternate-Bold" font-weight="bold" font-size="36.0" fill="#838686" transform="matrix(1.00, 0.00, -0.00, -1.00, 559.7, 992.0)">E</text><text xml:space="preserve" font-family="DINAlternate-Bold" font-weight="bold" font-size="36.0" fill="#838686" transform="matrix(1.00, 0.00, -0.00, -1.00, 581.5, 992.0)">A</text><text xml:space="preserve" font-family="DINAlternate-Bold" font-weight="bold" font-size="36.0" fill="#838686" transform="matrix(1.00, 0.00, -0.00, -1.00, 605.3, 992.0)">R</text><text xml:space="preserve" font-family="DINAlternate-Bold" font-weight="bold" font-size="36.0" fill="#838686" transform="matrix(1.00, 0.00, -0.00, -1.00, 629.0, 992.0)">N</text><g><clipPath id="clip-78"><path d="M 33.7 802.0 L 1886.3 802.0 L 1886.3 906.0 L 33.7 906.0 Z M 33.7 802.0 "></path></clipPath><g clip-path="url(#clip-78)"><text xml:space="preserve" font-family="DINCondensed-Bold" font-weight="bold" font-size="121.2" fill="#34A4DA" transform="matrix(1.00, 0.00, -0.00, -1.00, 64.0, 820.0)">P</text><text xml:space="preserve" font-family="DINCondensed-Bold" font-weight="bold" font-size="121.2" fill="#34A4DA" transform="matrix(1.00, 0.00, -0.00, -1.00, 108.8, 820.0)">A</text><text xml:space="preserve" font-family="DINCondensed-Bold" font-weight="bold" font-size="121.2" fill="#34A4DA" transform="matrix(1.00, 0.00, -0.00, -1.00, 158.2, 820.0)">I</text><text xml:space="preserve" font-family="DINCondensed-Bold" font-weight="bold" font-size="121.2" fill="#34A4DA" transform="matrix(1.00, 0.00, -0.00, -1.00, 182.9, 820.0)">N</text><text xml:space="preserve" font-family="DINCondensed-Bold" font-weight="bold" font-size="121.2" fill="#34A4DA" transform="matrix(1.00, 0.00, -0.00, -1.00, 236.7, 820.0)"> </text><text xml:space="preserve" font-family="DINCondensed-Bold" font-weight="bold" font-size="121.2" fill="#34A4DA" transform="matrix(1.00, 0.00, -0.00, -1.00, 259.3, 820.0)">(</text><text xml:space="preserve" font-family="DINCondensed-Bold" font-weight="bold" font-size="121.2" fill="#34A4DA" transform="matrix(1.00, 0.00, -0.00, -1.00, 286.2, 820.0)">A</text><text xml:space="preserve" font-family="DINCondensed-Bold" font-weight="bold" font-size="121.2" fill="#34A4DA" transform="matrix(1.00, 0.00, -0.00, -1.00, 335.5, 820.0)">)</text><text xml:space="preserve" font-family="DINCondensed-Bold" font-weight="bold" font-size="121.2" fill="#34A4DA" transform="matrix(1.00, 0.00, -0.00, -1.00, 362.4, 820.0)"> </text><text xml:space="preserve" font-family="DINCondensed-Bold" font-weight="bold" font-size="121.2" fill="#34A4DA" transform="matrix(1.00, 0.00, -0.00, -1.00, 384.9, 820.0)"> </text><text xml:space="preserve" font-family="DINCondensed-Bold" font-weight="bold" font-size="121.2" fill="#34A4DA" transform="matrix(1.00, 0.00, -0.00, -1.00, 407.5, 820.0)"> </text><text xml:space="preserve" font-family="DINCondensed-Bold" font-weight="bold" font-size="121.2" fill="#34A4DA" transform="matrix(1.00, 0.00, -0.00, -1.00, 430.0, 820.0)"> </text><text xml:space="preserve" font-family="DINCondensed-Bold" font-weight="bold" font-size="121.2" fill="#34A4DA" transform="matrix(1.00, 0.00, -0.00, -1.00, 452.6, 820.0)"> </text><text xml:space="preserve" font-family="DINCondensed-Bold" font-weight="bold" font-size="121.2" fill="#34A4DA" transform="matrix(1.00, 0.00, -0.00, -1.00, 475.1, 820.0)"> </text><text xml:space="preserve" font-family="DINCondensed-Bold" font-weight="bold" font-size="121.2" fill="#34A4DA" transform="matrix(1.00, 0.00, -0.00, -1.00, 497.7, 820.0)"> </text><text xml:space="preserve" font-family="DINCondensed-Bold" font-weight="bold" font-size="121.2" fill="#34A4DA" transform="matrix(1.00, 0.00, -0.00, -1.00, 520.2, 820.0)"> </text><text xml:space="preserve" font-family="DINCondensed-Bold" font-weight="bold" font-size="121.2" fill="#34A4DA" transform="matrix(1.00, 0.00, -0.00, -1.00, 542.7, 820.0)"> </text><text xml:space="preserve" font-family="DINCondensed-Bold" font-weight="bold" font-size="121.2" fill="#34A4DA" transform="matrix(1.00, 0.00, -0.00, -1.00, 565.3, 820.0)"> </text><text xml:space="preserve" font-family="DINCondensed-Bold" font-weight="bold" font-size="121.2" fill="#34A4DA" transform="matrix(1.00, 0.00, -0.00, -1.00, 587.8, 820.0)"> </text><text xml:space="preserve" font-family="DINCondensed-Bold" font-weight="bold" font-size="121.2" fill="#34A4DA" transform="matrix(1.00, 0.00, -0.00, -1.00, 610.4, 820.0)"> </text><text xml:space="preserve" font-family="DINCondensed-Bold" font-weight="bold" font-size="121.2" fill="#34A4DA" transform="matrix(1.00, 0.00, -0.00, -1.00, 632.9, 820.0)"> </text><text xml:space="preserve" font-family="DINCondensed-Bold" font-weight="bold" font-size="121.2" fill="#34A4DA" transform="matrix(1.00, 0.00, -0.00, -1.00, 655.5, 820.0)"> </text><text xml:space="preserve" font-family="DINCondensed-Bold" font-weight="bold" font-size="121.2" fill="#34A4DA" transform="matrix(1.00, 0.00, -0.00, -1.00, 678.0, 820.0)"> </text><text xml:space="preserve" font-family="DINCondensed-Bold" font-weight="bold" font-size="121.2" fill="#34A4DA" transform="matrix(1.00, 0.00, -0.00, -1.00, 700.5, 820.0)"> </text><text xml:space="preserve" font-family="DINCondensed-Bold" font-weight="bold" font-size="121.2" fill="#34A4DA" transform="matrix(1.00, 0.00, -0.00, -1.00, 723.1, 820.0)"> </text><text xml:space="preserve" font-family="DINCondensed-Bold" font-weight="bold" font-size="121.2" fill="#34A4DA" transform="matrix(1.00, 0.00, -0.00, -1.00, 745.6, 820.0)"> </text><text xml:space="preserve" font-family="DINCondensed-Bold" font-weight="bold" font-size="121.2" fill="#34A4DA" transform="matrix(1.00, 0.00, -0.00, -1.00, 768.2, 820.0)"> </text><text xml:space="preserve" font-family="DINCondensed-Bold" font-weight="bold" font-size="121.2" fill="#34A4DA" transform="matrix(1.00, 0.00, -0.00, -1.00, 790.7, 820.0)"> </text><text xml:space="preserve" font-family="DINCondensed-Bold" font-weight="bold" font-size="121.2" fill="#34A4DA" transform="matrix(1.00, 0.00, -0.00, -1.00, 813.3, 820.0)"> </text><text xml:space="preserve" font-family="DINCondensed-Bold" font-weight="bold" font-size="121.2" fill="#34A4DA" transform="matrix(1.00, 0.00, -0.00, -1.00, 835.8, 820.0)"> </text><text xml:space="preserve" font-family="DINCondensed-Bold" font-weight="bold" font-size="121.2" fill="#34A4DA" transform="matrix(1.00, 0.00, -0.00, -1.00, 858.3, 820.0)"> </text><text xml:space="preserve" font-family="DINCondensed-Bold" font-weight="bold" font-size="121.2" fill="#34A4DA" transform="matrix(1.00, 0.00, -0.00, -1.00, 880.9, 820.0)"> </text><text xml:space="preserve" font-family="DINCondensed-Bold" font-weight="bold" font-size="121.2" fill="#34A4DA" transform="matrix(1.00, 0.00, -0.00, -1.00, 903.4, 820.0)"> </text><text xml:space="preserve" font-family="DINCondensed-Bold" font-weight="bold" font-size="121.2" fill="#34A4DA" transform="matrix(1.00, 0.00, -0.00, -1.00, 926.0, 820.0)"> </text><text xml:space="preserve" font-family="DINCondensed-Bold" font-weight="bold" font-size="121.2" fill="#34A4DA" transform="matrix(1.00, 0.00, -0.00, -1.00, 948.5, 820.0)"> </text><text xml:space="preserve" font-family="DINCondensed-Bold" font-weight="bold" font-size="121.2" fill="#34A4DA" transform="matrix(1.00, 0.00, -0.00, -1.00, 971.1, 820.0)"> </text><text xml:space="preserve" font-family="DINCondensed-Bold" font-weight="bold" font-size="121.2" fill="#34A4DA" transform="matrix(1.00, 0.00, -0.00, -1.00, 993.6, 820.0)"> </text><text xml:space="preserve" font-family="DINCondensed-Bold" font-weight="bold" font-size="121.2" fill="#34A4DA" transform="matrix(1.00, 0.00, -0.00, -1.00, 1016.1, 820.0)"> </text><text xml:space="preserve" font-family="DINCondensed-Bold" font-weight="bold" font-size="121.2" fill="#34A4DA" transform="matrix(1.00, 0.00, -0.00, -1.00, 1038.7, 820.0)"> </text><text xml:space="preserve" font-family="DINCondensed-Bold" font-weight="bold" font-size="121.2" fill="#34A4DA" transform="matrix(1.00, 0.00, -0.00, -1.00, 1061.2, 820.0)"> </text><text xml:space="preserve" font-family="DINCondensed-Bold" font-weight="bold" font-size="121.2" fill="#34A4DA" transform="matrix(1.00, 0.00, -0.00, -1.00, 1083.8, 820.0)"> </text><text xml:space="preserve" font-family="DINCondensed-Bold" font-weight="bold" font-size="121.2" fill="#34A4DA" transform="matrix(1.00, 0.00, -0.00, -1.00, 1106.3, 820.0)"> </text><text xml:space="preserve" font-family="DINCondensed-Bold" font-weight="bold" font-size="121.2" fill="#34A4DA" transform="matrix(1.00, 0.00, -0.00, -1.00, 1128.9, 820.0)"> </text><text xml:space="preserve" font-family="DINCondensed-Bold" font-weight="bold" font-size="121.2" fill="#34A4DA" transform="matrix(1.00, 0.00, -0.00, -1.00, 1151.4, 820.0)"> </text><text xml:space="preserve" font-family="DINCondensed-Bold" font-weight="bold" font-size="121.2" fill="#34A4DA" transform="matrix(1.00, 0.00, -0.00, -1.00, 1173.9, 820.0)"> </text><text xml:space="preserve" font-family="DINCondensed-Bold" font-weight="bold" font-size="121.2" fill="#34A4DA" transform="matrix(1.00, 0.00, -0.00, -1.00, 1196.5, 820.0)"> </text><text xml:space="preserve" font-family="DINCondensed-Bold" font-weight="bold" font-size="121.2" fill="#34A4DA" transform="matrix(1.00, 0.00, -0.00, -1.00, 1219.0, 820.0)"> </text><text xml:space="preserve" font-family="DINCondensed-Bold" font-weight="bold" font-size="121.2" fill="#34A4DA" transform="matrix(1.00, 0.00, -0.00, -1.00, 1241.6, 820.0)"> </text><text xml:space="preserve" font-family="DINCondensed-Bold" font-weight="bold" font-size="121.2" fill="#34A4DA" transform="matrix(1.00, 0.00, -0.00, -1.00, 1264.1, 820.0)"> </text><text xml:space="preserve" font-family="DINCondensed-Bold" font-weight="bold" font-size="121.2" fill="#34A4DA" transform="matrix(1.00, 0.00, -0.00, -1.00, 1286.7, 820.0)"> </text><text xml:space="preserve" font-family="DINCondensed-Bold" font-weight="bold" font-size="121.2" fill="#34A4DA" transform="matrix(1.00, 0.00, -0.00, -1.00, 1309.2, 820.0)"> </text><text xml:space="preserve" font-family="DINCondensed-Bold" font-weight="bold" font-size="121.2" fill="#34A4DA" transform="matrix(1.00, 0.00, -0.00, -1.00, 1331.8, 820.0)"> </text><text xml:space="preserve" font-family="DINCondensed-Bold" font-weight="bold" font-size="121.2" fill="#34A4DA" transform="matrix(1.00, 0.00, -0.00, -1.00, 1354.3, 820.0)"> </text><text xml:space="preserve" font-family="DINCondensed-Bold" font-weight="bold" font-size="121.2" fill="#34A4DA" transform="matrix(1.00, 0.00, -0.00, -1.00, 1376.8, 820.0)"> </text><text xml:space="preserve" font-family="DINCondensed-Bold" font-weight="bold" font-size="121.2" fill="#34A4DA" transform="matrix(1.00, 0.00, -0.00, -1.00, 1399.4, 820.0)"> </text><text xml:space="preserve" font-family="DINCondensed-Bold" font-weight="bold" font-size="121.2" fill="#34A4DA" transform="matrix(1.00, 0.00, -0.00, -1.00, 1421.9, 820.0)"> </text><text xml:space="preserve" font-family="DINCondensed-Bold" font-weight="bold" font-size="121.2" fill="#34A4DA" transform="matrix(1.00, 0.00, -0.00, -1.00, 1444.5, 820.0)"> </text><text xml:space="preserve" font-family="DINCondensed-Bold" font-weight="bold" font-size="121.2" fill="#34A4DA" transform="matrix(1.00, 0.00, -0.00, -1.00, 1467.0, 820.0)"> </text><text xml:space="preserve" font-family="DINCondensed-Bold" font-weight="bold" font-size="121.2" fill="#34A4DA" transform="matrix(1.00, 0.00, -0.00, -1.00, 1489.6, 820.0)"> </text><text xml:space="preserve" font-family="DINCondensed-Bold" font-weight="bold" font-size="121.2" fill="#34A4DA" transform="matrix(1.00, 0.00, -0.00, -1.00, 1512.1, 820.0)"> </text><text xml:space="preserve" font-family="DINCondensed-Bold" font-weight="bold" font-size="121.2" fill="#34A4DA" transform="matrix(1.00, 0.00, -0.00, -1.00, 1534.6, 820.0)"> </text><text xml:space="preserve" font-family="DINCondensed-Bold" font-weight="bold" font-size="121.2" fill="#34A4DA" transform="matrix(1.00, 0.00, -0.00, -1.00, 1557.2, 820.0)"> </text><text xml:space="preserve" font-family="DINCondensed-Bold" font-weight="bold" font-size="121.2" fill="#34A4DA" transform="matrix(1.00, 0.00, -0.00, -1.00, 1579.7, 820.0)">S</text><text xml:space="preserve" font-family="DINCondensed-Bold" font-weight="bold" font-size="121.2" fill="#34A4DA" transform="matrix(1.00, 0.00, -0.00, -1.00, 1628.9, 820.0)">A</text><text xml:space="preserve" font-family="DINCondensed-Bold" font-weight="bold" font-size="121.2" fill="#34A4DA" transform="matrix(1.00, 0.00, -0.00, -1.00, 1678.3, 820.0)">D</text><text xml:space="preserve" font-family="DINCondensed-Bold" font-weight="bold" font-size="121.2" fill="#34A4DA" transform="matrix(1.00, 0.00, -0.00, -1.00, 1729.9, 820.0)"> </text><text xml:space="preserve" font-family="DINCondensed-Bold" font-weight="bold" font-size="121.2" fill="#34A4DA" transform="matrix(1.00, 0.00, -0.00, -1.00, 1752.4, 820.0)">(</text><text xml:space="preserve" font-family="DINCondensed-Bold" font-weight="bold" font-size="121.2" fill="#34A4DA" transform="matrix(1.00, 0.00, -0.00, -1.00, 1779.3, 820.0)">L</text><text xml:space="preserve" font-family="DINCondensed-Bold" font-weight="bold" font-size="121.2" fill="#34A4DA" transform="matrix(1.00, 0.00, -0.00, -1.00, 1824.2, 820.0)">)</text></g></g><image xlink:href="536D8A792576B12BDCECA02F19091150.png" width="659.00" height="356.00" transform="matrix(1.96, 0.00, -0.00, -1.96, 314.0, 760.0)"></image></g></svg>